<svg height="512" viewBox="0 0 64 64" width="512" xmlns="http://www.w3.org/2000/svg"><path d="M59 25H19a2.006 2.006 0 00-2 2v6h44v-6a2.006 2.006 0 00-2-2zm-6 28h4v4h-4zm0-8h4v4h-4zm0-8h4v4h-4zM51 5a2.006 2.006 0 00-2-2H5a2.006 2.006 0 00-2 2v6h48zm-6 48h4v4h-4zm0-8h4v4h-4zm0-8h4v4h-4zm-8 16h4v4h-4zm0-8h4v4h-4zm0-8h4v4h-4zm-8 16h4v4h-4zm0-8h4v4h-4zm0-8h4v4h-4zm-8 16h4v4h-4zm0-8h4v4h-4zm0-8h4v4h-4z" fill="#9bc9ff"/><g fill="#57a4ff"><path d="M59 24h-7V5a3 3 0 00-3-3H5a3 3 0 00-3 3v44a3 3 0 003 3h11v7a3 3 0 003 3h40a3 3 0 003-3V27a3 3 0 00-3-3zm0 2a1 1 0 011 1v5H18v-5a1 1 0 011-1h8v2h2v-2h10v2h2v-2h9v2h2v-2zM5 4h44a1 1 0 011 1v5H4V5a1 1 0 011-1zm0 46a1 1 0 01-1-1V12h46v12h-9v-2h-2v2H29v-2h-2v2h-8a3 3 0 00-3 3v23zm54 10H19a1 1 0 01-1-1V34h42v25a1 1 0 01-1 1z"/><path d="M25 36h-4a1 1 0 00-1 1v4a1 1 0 001 1h4a1 1 0 001-1v-4a1 1 0 00-1-1zm-1 4h-2v-2h2zm1 4h-4a1 1 0 00-1 1v4a1 1 0 001 1h4a1 1 0 001-1v-4a1 1 0 00-1-1zm-1 4h-2v-2h2zm1 4h-4a1 1 0 00-1 1v4a1 1 0 001 1h4a1 1 0 001-1v-4a1 1 0 00-1-1zm-1 4h-2v-2h2zm9-20h-4a1 1 0 00-1 1v4a1 1 0 001 1h4a1 1 0 001-1v-4a1 1 0 00-1-1zm-1 4h-2v-2h2zm1 4h-4a1 1 0 00-1 1v4a1 1 0 001 1h4a1 1 0 001-1v-4a1 1 0 00-1-1zm-1 4h-2v-2h2zm1 4h-4a1 1 0 00-1 1v4a1 1 0 001 1h4a1 1 0 001-1v-4a1 1 0 00-1-1zm-1 4h-2v-2h2zm9-20h-4a1 1 0 00-1 1v4a1 1 0 001 1h4a1 1 0 001-1v-4a1 1 0 00-1-1zm-1 4h-2v-2h2zm1 4h-4a1 1 0 00-1 1v4a1 1 0 001 1h4a1 1 0 001-1v-4a1 1 0 00-1-1zm-1 4h-2v-2h2zm1 4h-4a1 1 0 00-1 1v4a1 1 0 001 1h4a1 1 0 001-1v-4a1 1 0 00-1-1zm-1 4h-2v-2h2zm9-20h-4a1 1 0 00-1 1v4a1 1 0 001 1h4a1 1 0 001-1v-4a1 1 0 00-1-1zm-1 4h-2v-2h2zm1 4h-4a1 1 0 00-1 1v4a1 1 0 001 1h4a1 1 0 001-1v-4a1 1 0 00-1-1zm-1 4h-2v-2h2zm1 4h-4a1 1 0 00-1 1v4a1 1 0 001 1h4a1 1 0 001-1v-4a1 1 0 00-1-1zm-1 4h-2v-2h2zm9-20h-4a1 1 0 00-1 1v4a1 1 0 001 1h4a1 1 0 001-1v-4a1 1 0 00-1-1zm-1 4h-2v-2h2zm1 4h-4a1 1 0 00-1 1v4a1 1 0 001 1h4a1 1 0 001-1v-4a1 1 0 00-1-1zm-1 4h-2v-2h2zm1 4h-4a1 1 0 00-1 1v4a1 1 0 001 1h4a1 1 0 001-1v-4a1 1 0 00-1-1zm-1 4h-2v-2h2zM6 6h2v2H6zm4 0h2v2h-2zm4 0h2v2h-2zm32 0h2v2h-2z"/></g></svg>