<svg height="512" viewBox="0 0 64 64" width="512" xmlns="http://www.w3.org/2000/svg"><path d="m59 25h-40a2.006 2.006 0 0 0 -2 2v6h44v-6a2.006 2.006 0 0 0 -2-2z" fill="#9bc9ff"/><path d="m53 53h4v4h-4z" fill="#9bc9ff"/><path d="m53 45h4v4h-4z" fill="#9bc9ff"/><path d="m53 37h4v4h-4z" fill="#9bc9ff"/><path d="m51 5a2.006 2.006 0 0 0 -2-2h-44a2.006 2.006 0 0 0 -2 2v6h48z" fill="#9bc9ff"/><path d="m45 53h4v4h-4z" fill="#9bc9ff"/><path d="m45 45h4v4h-4z" fill="#9bc9ff"/><path d="m45 37h4v4h-4z" fill="#9bc9ff"/><path d="m37 53h4v4h-4z" fill="#9bc9ff"/><path d="m37 45h4v4h-4z" fill="#9bc9ff"/><path d="m37 37h4v4h-4z" fill="#9bc9ff"/><path d="m29 53h4v4h-4z" fill="#9bc9ff"/><path d="m29 45h4v4h-4z" fill="#9bc9ff"/><path d="m29 37h4v4h-4z" fill="#9bc9ff"/><path d="m21 53h4v4h-4z" fill="#9bc9ff"/><path d="m21 45h4v4h-4z" fill="#9bc9ff"/><path d="m21 37h4v4h-4z" fill="#9bc9ff"/><g fill="#57a4ff"><path d="m59 24h-7v-19a3 3 0 0 0 -3-3h-44a3 3 0 0 0 -3 3v44a3 3 0 0 0 3 3h11v7a3 3 0 0 0 3 3h40a3 3 0 0 0 3-3v-32a3 3 0 0 0 -3-3zm0 2a1 1 0 0 1 1 1v5h-42v-5a1 1 0 0 1 1-1h8v2h2v-2h10v2h2v-2h9v2h2v-2zm-54-22h44a1 1 0 0 1 1 1v5h-46v-5a1 1 0 0 1 1-1zm0 46a1 1 0 0 1 -1-1v-37h46v12h-9v-2h-2v2h-10v-2h-2v2h-8a3 3 0 0 0 -3 3v23zm54 10h-40a1 1 0 0 1 -1-1v-25h42v25a1 1 0 0 1 -1 1z"/><path d="m25 36h-4a1 1 0 0 0 -1 1v4a1 1 0 0 0 1 1h4a1 1 0 0 0 1-1v-4a1 1 0 0 0 -1-1zm-1 4h-2v-2h2z"/><path d="m25 44h-4a1 1 0 0 0 -1 1v4a1 1 0 0 0 1 1h4a1 1 0 0 0 1-1v-4a1 1 0 0 0 -1-1zm-1 4h-2v-2h2z"/><path d="m25 52h-4a1 1 0 0 0 -1 1v4a1 1 0 0 0 1 1h4a1 1 0 0 0 1-1v-4a1 1 0 0 0 -1-1zm-1 4h-2v-2h2z"/><path d="m33 36h-4a1 1 0 0 0 -1 1v4a1 1 0 0 0 1 1h4a1 1 0 0 0 1-1v-4a1 1 0 0 0 -1-1zm-1 4h-2v-2h2z"/><path d="m33 44h-4a1 1 0 0 0 -1 1v4a1 1 0 0 0 1 1h4a1 1 0 0 0 1-1v-4a1 1 0 0 0 -1-1zm-1 4h-2v-2h2z"/><path d="m33 52h-4a1 1 0 0 0 -1 1v4a1 1 0 0 0 1 1h4a1 1 0 0 0 1-1v-4a1 1 0 0 0 -1-1zm-1 4h-2v-2h2z"/><path d="m41 36h-4a1 1 0 0 0 -1 1v4a1 1 0 0 0 1 1h4a1 1 0 0 0 1-1v-4a1 1 0 0 0 -1-1zm-1 4h-2v-2h2z"/><path d="m41 44h-4a1 1 0 0 0 -1 1v4a1 1 0 0 0 1 1h4a1 1 0 0 0 1-1v-4a1 1 0 0 0 -1-1zm-1 4h-2v-2h2z"/><path d="m41 52h-4a1 1 0 0 0 -1 1v4a1 1 0 0 0 1 1h4a1 1 0 0 0 1-1v-4a1 1 0 0 0 -1-1zm-1 4h-2v-2h2z"/><path d="m49 36h-4a1 1 0 0 0 -1 1v4a1 1 0 0 0 1 1h4a1 1 0 0 0 1-1v-4a1 1 0 0 0 -1-1zm-1 4h-2v-2h2z"/><path d="m49 44h-4a1 1 0 0 0 -1 1v4a1 1 0 0 0 1 1h4a1 1 0 0 0 1-1v-4a1 1 0 0 0 -1-1zm-1 4h-2v-2h2z"/><path d="m49 52h-4a1 1 0 0 0 -1 1v4a1 1 0 0 0 1 1h4a1 1 0 0 0 1-1v-4a1 1 0 0 0 -1-1zm-1 4h-2v-2h2z"/><path d="m57 36h-4a1 1 0 0 0 -1 1v4a1 1 0 0 0 1 1h4a1 1 0 0 0 1-1v-4a1 1 0 0 0 -1-1zm-1 4h-2v-2h2z"/><path d="m57 44h-4a1 1 0 0 0 -1 1v4a1 1 0 0 0 1 1h4a1 1 0 0 0 1-1v-4a1 1 0 0 0 -1-1zm-1 4h-2v-2h2z"/><path d="m57 52h-4a1 1 0 0 0 -1 1v4a1 1 0 0 0 1 1h4a1 1 0 0 0 1-1v-4a1 1 0 0 0 -1-1zm-1 4h-2v-2h2z"/><path d="m6 6h2v2h-2z"/><path d="m10 6h2v2h-2z"/><path d="m14 6h2v2h-2z"/><path d="m46 6h2v2h-2z"/></g></svg>