<svg xmlns="http://www.w3.org/2000/svg" viewBox="0 0 512.003 512.003"><path d="M239.542 505.18a23.929 23.929 0 001.713 1.547c.264.219.546.408.818.613.334.251.661.51 1.008.743.33.222.673.413 1.013.616.312.186.617.383.939.554.349.186.704.343 1.06.51.334.158.663.324 1.004.467.346.143.697.258 1.049.383.366.132.728.272 1.1.385.352.105.706.185 1.061.273.382.098.76.203 1.15.281.408.081.816.127 1.227.188.341.048.678.113 1.022.147.763.074 1.53.116 2.296.116.766 0 1.533-.04 2.296-.116.346-.034.681-.099 1.022-.147.411-.059.819-.107 1.227-.188.389-.078.768-.185 1.15-.281.355-.088.709-.166 1.061-.273.372-.113.734-.253 1.1-.385.352-.126.703-.24 1.049-.383.343-.143.672-.309 1.004-.467.355-.166.711-.324 1.06-.51.321-.172.625-.368.939-.554.34-.203.683-.394 1.013-.616.349-.233.676-.492 1.008-.743.273-.205.554-.394.818-.613a23.01 23.01 0 001.713-1.547l116.359-116.361c9.089-9.089 9.089-23.824 0-32.912-9.087-9.089-23.824-9.089-32.912 0l-76.634 76.636V23.273C279.275 10.42 268.855 0 256.002 0 243.15 0 232.73 10.42 232.73 23.273v409.27l-76.636-76.634c-9.087-9.089-23.824-9.089-32.912 0s-9.089 23.823 0 32.912l116.36 116.359z" fill="#3d6deb"/></svg>