<svg xmlns="http://www.w3.org/2000/svg" width="512" height="399" viewBox="0 0 512 399">
  <g id="Group_2" data-name="Group 2" transform="translate(-228 -196)">
    <path id="Path_1" data-name="Path 1" d="M154,212.02l92.39,149.1,69.52-112.1L409,399.15V159.5H38V399.15Zm97.74-26a28.25,28.25,0,1,1-28.24,28.26v-.06A28.24,28.24,0,0,1,251.74,186.02Z" transform="translate(228 139.5)" fill="#9c27b0" opacity="0.06"/>
    <g id="Group_1" data-name="Group 1" transform="translate(228 139.5)">
      <path id="Path_2" data-name="Path 2" d="M251.74,250.47a36.25,36.25,0,1,0-36.24-36.26v.01A36.291,36.291,0,0,0,251.74,250.47Zm0-56.49a20.25,20.25,0,1,1-20.24,20.26v-.02a20.26,20.26,0,0,1,20.24-20.2Z" fill="#9c27b0"/>
      <path id="Path_3" data-name="Path 3" d="M65,56.5v65H0v334H447v-65h65V56.5Zm-42.63,383L154,227.24l131.6,212.3Zm282.05,0-48.61-78.38,60.1-97L424.63,439.54ZM431,390.5v28.91L315.91,233.8,246.39,345.94,154,196.87,16,419.45v-282H431Zm65-16H447v-253H81v-49H496Z" fill="#9c27b0"/>
    </g>
  </g>
</svg>
