<svg xmlns="http://www.w3.org/2000/svg" width="30" height="30"><path fill="#bd081c" d="M15 28.5C7.556 28.5 1.5 22.444 1.5 15S7.556 1.5 15 1.5 28.5 7.556 28.5 15 22.444 28.5 15 28.5z"/><path fill="#c74343" d="M15 2c7.168 0 13 5.832 13 13s-5.832 13-13 13S2 22.168 2 15 7.832 2 15 2m0-1C7.268 1 1 7.268 1 15s6.268 14 14 14 14-6.268 14-14S22.732 1 15 1z"/><path fill="#fff" d="M23.302 14.329c0-4.295-3.505-7.508-8.014-7.508-5.61 0-8.589 3.766-8.589 7.867 0 1.907 1.015 4.28 2.639 5.036.246.115.378.064.435-.174.043-.181.262-1.064.361-1.475a.389.389 0 00-.09-.373c-.537-.651-.967-1.849-.967-2.967 0-2.867 2.171-5.642 5.87-5.642 3.194 0 5.43 2.176 5.43 5.289 0 3.517-1.776 5.953-4.087 5.953-1.276 0-2.231-1.055-1.925-2.349.367-1.545 1.077-3.213 1.077-4.328 0-.998-.536-1.831-1.645-1.831-1.305 0-2.352 1.349-2.352 3.157 0 1.151.389 1.93.389 1.93s-1.288 5.448-1.524 6.462c-.261 1.12-.159 2.691-.046 3.72.293.115.586.23.889.324.53-.864 1.322-2.279 1.616-3.408.158-.608.81-3.09.81-3.09.424.808 1.662 1.493 2.98 1.493 3.918 0 6.743-3.606 6.743-8.086z"/></svg>