<svg xmlns="http://www.w3.org/2000/svg" width="512" height="380.931" viewBox="0 0 512 380.931"><g transform="translate(-757 -134)"><g transform="translate(757 68.466)"><path d="M450.783,207.165v14.042a89.043,89.043,0,1,0,0,138.872v14.042h33.391V207.165ZM395.13,346.3a55.652,55.652,0,1,1,55.652-55.652A55.715,55.715,0,0,1,395.13,346.3Z" fill="#3b49df"/></g><g transform="translate(757 68.466)"><rect width="512" height="33.391" transform="translate(0 413.074)" fill="#3b49df"/></g><g transform="translate(757 68.466)"><path d="M166.957,65.534,31.18,374.121H67.659l46.526-105.739H219.728l46.526,105.739h36.479Zm-38.08,169.457,38.079-86.545,38.079,86.545Z" fill="#3b49df"/></g></g></svg>