<svg xmlns="http://www.w3.org/2000/svg" width="527" height="442.008" viewBox="0 0 527 442.008"><g transform="translate(-504.5 -345.367)"><path d="M469.332,51.41H313.172l42.242-36.191A8.533,8.533,0,1,0,344.32,2.266l-59.734,51.2c-.086.07-.109.172-.187.238a8.67,8.67,0,0,0-1.527,2.023,8.483,8.483,0,0,0-.512.77,8.21,8.21,0,0,0,0,6.895,8.423,8.423,0,0,0,.512.766A8.59,8.59,0,0,0,284.4,66.18c.078.07.1.172.188.238l59.734,51.2a8.535,8.535,0,1,0,11.094-12.957L313.172,68.477h156.16a25.6,25.6,0,0,1,25.6,25.6V384.211a25.6,25.6,0,0,1-25.6,25.6H42.668a25.6,25.6,0,0,1-25.6-25.6V94.074a25.6,25.6,0,0,1,25.6-25.6H153.6a8.533,8.533,0,0,0,0-17.066H42.668A42.715,42.715,0,0,0,0,94.074V384.211a42.715,42.715,0,0,0,42.668,42.664H469.332A42.715,42.715,0,0,0,512,384.211V94.074A42.715,42.715,0,0,0,469.332,51.41Zm0,0" transform="translate(512 353)" fill="#2196f3" stroke="#2196f3" stroke-linejoin="bevel" stroke-width="15"/><path d="M190.488,350.074a19.89,19.89,0,0,0,10.465-2.961l148.059-91.262a19.582,19.582,0,0,0,0-33.418L200.953,131.188a19.964,19.964,0,0,0-20.184-.434,19.391,19.391,0,0,0-10.1,17.141v182.5a19.406,19.406,0,0,0,10.1,17.125A19.985,19.985,0,0,0,190.488,350.074Zm-2.754-202.18a2.471,2.471,0,0,1,1.348-2.234,2.94,2.94,0,0,1,1.426-.383,2.776,2.776,0,0,1,1.492.441l148.086,91.246a2.559,2.559,0,0,1,0,4.355L192,332.574a2.784,2.784,0,0,1-2.918.051,2.471,2.471,0,0,1-1.348-2.234Zm0,0" transform="translate(512 353)" fill="#2196f3" stroke="#2196f3" stroke-width="9"/></g></svg>