<svg xmlns="http://www.w3.org/2000/svg" width="648.209" height="773"><path d="M185 771h457.546v2H185zm-35-29h457.546v2H150zM5 713h457.546v2H5zm272-224.463h94.111v2.139H277zm0 23.528h94.111v2.139H277z" fill="#3f3d56"/><g transform="translate(-13.252 -34)"><path d="M276.252 609.576c-2.774 0-5.577-.044-8.328-.13l.063-2c3.95.123 7.981.157 11.95.1l.027 2q-1.853.03-3.712.03zm15.745-.464l-.117-2c3.956-.233 7.963-.562 11.909-.975l.209 1.988c-3.977.417-8.014.748-12 .982zm-36.1-.312a265.746 265.746 0 01-11.982-1.192l.244-1.984c3.932.481 7.932.88 11.891 1.183zm60.039-2.2l-.3-1.977c3.931-.6 7.892-1.289 11.77-2.06l.39 1.961a263.643 263.643 0 01-11.856 2.076zm-83.935-.731a264.477 264.477 0 01-11.823-2.283l.424-1.955c3.875.842 7.822 1.6 11.733 2.266zm107.548-3.962l-.48-1.941a261.878 261.878 0 0011.532-3.134l.568 1.918a259.676 259.676 0 01-11.615 3.159zm-131.067-1.145a260.217 260.217 0 01-11.562-3.363l.6-1.906a259.721 259.721 0 0011.474 3.336zm154.158-5.7l-.656-1.889a257.45 257.45 0 0011.194-4.184l.742 1.857a265.764 265.764 0 01-11.284 4.215zm-177.146-1.566a261.156 261.156 0 01-11.228-4.426l.776-1.844a260.583 260.583 0 0011.142 4.393zm199.475-7.368l-.828-1.82c3.6-1.634 7.21-3.378 10.742-5.184l.91 1.781a266.811 266.811 0 01-10.828 5.221zm21.4-10.938l-.99-1.736a263.663 263.663 0 0010.229-6.148l1.068 1.689a270.214 270.214 0 01-10.313 6.193zm20.313-12.86l-1.145-1.639a264.94 264.94 0 009.631-7.061l1.219 1.586a254.367 254.367 0 01-9.705 7.114zm-304.826-2.816a266.667 266.667 0 01-9.585-7.3l1.248-1.562a263.518 263.518 0 009.512 7.245zm323.9-11.846l-1.289-1.529a265.576 265.576 0 008.953-7.91l1.362 1.471a265.666 265.666 0 01-9.018 7.968zm-342.728-3.186a264.708 264.708 0 01-8.877-8.14l1.385-1.443a261.797 261.797 0 008.81 8.079zm360.4-13.161l-1.424-1.4c2.79-2.827 5.55-5.753 8.2-8.7l1.486 1.338a265.542 265.542 0 01-8.264 8.762zM85.664 527.81c-2.758-2.9-5.482-5.9-8.1-8.91l1.511-1.311c2.594 2.989 5.3 5.964 8.035 8.842zm393.893-14.38l-1.545-1.27c2.521-3.067 5-6.232 7.378-9.409l1.6 1.2a263.295 263.295 0 01-7.433 9.479zm-409.671-3.8a268.331 268.331 0 01-7.25-9.6l1.623-1.168a262.687 262.687 0 007.195 9.532zm424.1-15.5l-1.654-1.123a261.02 261.02 0 006.492-10.048l1.705 1.047a258.37 258.37 0 01-6.547 10.13zm-438.151-4.029a265.595 265.595 0 01-6.34-10.22l1.723-1.016a263.564 263.564 0 006.292 10.142zM506.601 473.6l-1.75-.967a262.855 262.855 0 005.546-10.606l1.793.887a270.366 270.366 0 01-5.589 10.686zm10.681-21.625l-1.832-.8a260.834 260.834 0 004.549-11.078l1.867.717a272.783 272.783 0 01-4.584 11.161zm-483.9-4.315c-1.533-3.68-3-7.444-4.364-11.19l1.88-.684a258.262 258.262 0 004.33 11.1zm492.551-18.216l-1.9-.629c1.248-3.761 2.426-7.6 3.5-11.426l1.926.541a271.866 271.866 0 01-3.529 11.514zm-500.767-4.383a262.81 262.81 0 01-3.323-11.574l1.935-.508c1.007 3.84 2.117 7.7 3.3 11.486zm507.286-18.795l-1.948-.453c.9-3.854 1.714-7.791 2.434-11.7l1.967.361a266.706 266.706 0 01-2.457 11.792zm-513.394-4.494a262.782 262.782 0 01-2.243-11.83l1.973-.328c.65 3.915 1.4 7.864 2.227 11.74zm517.752-19.184l-1.982-.271c.538-3.917.992-7.911 1.351-11.872l1.992.18a262.79 262.79 0 01-1.36 11.964zm-521.694-4.566a264.874 264.874 0 01-1.151-11.984l2-.146c.29 3.964.674 7.965 1.143 11.895zm523.866-19.409l-2-.09c.178-3.963.269-7.982.269-11.946h2c0 3.994-.091 8.044-.271 12.036zm-525.626-4.6c-.068-2.452-.1-4.954-.1-7.435q0-2.309.04-4.608l2 .035q-.04 2.282-.04 4.573c0 2.462.035 4.945.1 7.38zm2.411-23.948l-2-.125c.25-4 .594-8.032 1.023-12l1.988.215c-.426 3.935-.768 7.94-1.016 11.906zm520.194-12.2c-.4-3.943-.949-5.865-1.529-9.791l1.979-.292c.584 3.956 1.085 6.975 1.488 10.948zM18.339 306.31l-1.977-.306a263.437 263.437 0 012.116-11.854l1.96.4a261.06 261.06 0 00-2.1 11.763zm514.074-10.016c-.763-3.9-1.623-7.829-2.559-11.672l1.943-.473c.942 3.873 1.81 7.831 2.578 11.761zm-509.337-13.4l-1.94-.486a258.313 258.313 0 013.2-11.609l1.915.575a257.337 257.337 0 00-3.175 11.519zm503.685-9.813a260.044 260.044 0 00-3.622-11.387l1.891-.65c1.3 3.777 2.527 7.638 3.651 11.475zm-496.8-13.1l-1.887-.663a261.612 261.612 0 014.265-11.291l1.854.75a261.756 261.756 0 00-4.233 11.2zm489.033-9.495a260.371 260.371 0 00-4.645-10.979l1.824-.821a264.156 264.156 0 014.68 11.063zm-480.057-12.7l-1.817-.835a261.936 261.936 0 015.284-10.842l1.777.917a258.546 258.546 0 00-5.244 10.757zm470.269-9.036a261.918 261.918 0 00-5.637-10.515l1.74-.985a260.859 260.859 0 015.68 10.6zM49.915 216.517l-1.733-1c2-3.464 4.1-6.932 6.254-10.306l1.686 1.076a261.157 261.157 0 00-6.207 10.23zm447.542-8.535a263.657 263.657 0 00-6.577-9.962l1.643-1.14c2.269 3.271 4.5 6.648 6.628 10.038zM62.788 196.359l-1.635-1.152a264.264 264.264 0 017.167-9.687l1.58 1.226a260.236 260.236 0 00-7.112 9.613zm421.064-7.992a262.55 262.55 0 00-7.462-9.327l1.533-1.285a264.814 264.814 0 017.519 9.4zm-406.411-10.9l-1.522-1.3a265.718 265.718 0 018.015-8.991l1.462 1.364a263.582 263.582 0 00-7.955 8.928zm391.07-7.408a265.343 265.343 0 00-8.282-8.614l1.41-1.419a267.23 267.23 0 018.345 8.679zM93.746 160l-1.4-1.43c2.86-2.8 5.819-5.564 8.8-8.221l1.332 1.492A262.244 262.244 0 0093.749 160zm357.818-6.78c-2.944-2.67-5.984-5.3-9.035-7.828l1.275-1.541c3.073 2.543 6.137 5.2 9.1 7.888zm-340-9.132l-1.263-1.551c3.093-2.519 6.29-5 9.5-7.384l1.191 1.606a263.363 263.363 0 00-9.431 7.329zm19.182-14.217l-1.116-1.659a263.857 263.857 0 0110.13-6.484l1.039 1.709a258.134 258.134 0 00-10.053 6.43zm20.388-12.4l-.96-1.755a261.5 261.5 0 0110.674-5.527l.879 1.8a262.033 262.033 0 00-10.593 5.485zm241.37-4.634a259.14 259.14 0 00-10.835-5.091l.809-1.829a262.404 262.404 0 0110.919 5.13zm-219.948-5.844l-.795-1.835c3.66-1.586 7.4-3.108 11.128-4.522l.71 1.87c-3.7 1.4-7.411 2.913-11.043 4.487zm198.052-3.834a259.032 259.032 0 00-11.266-4.072l.637-1.9c3.8 1.276 7.62 2.656 11.352 4.1zm-175.743-4.637l-.623-1.9c3.8-1.246 7.679-2.419 11.525-3.486l.535 1.927a249.194 249.194 0 00-11.438 3.453zm153.063-2.974a260.966 260.966 0 00-11.563-3.01l.459-1.946c3.889.917 7.809 1.937 11.653 3.032zm-130.046-3.421l-.445-1.95c3.9-.89 7.866-1.7 11.8-2.41l.355 1.968a261.137 261.137 0 00-11.71 2.392zM324.67 90.06a261.07 261.07 0 00-11.791-1.933l.277-1.98a262.32 262.32 0 0111.883 1.948zm-83.275-2.176l-.265-1.982c3.959-.528 7.985-.973 11.967-1.319l.174 1.992c-3.948.344-7.943.784-11.873 1.309zm59.616-1.147a263.35 263.35 0 00-11.919-.849l.1-2c4 .194 8.039.482 12.009.856zm-35.814-.929l-.084-2c3.676-.153 7.422-.231 11.136-.232h.905l-.006 2h-.9c-3.682.001-7.4.079-11.048.231z" fill="#3f3d56"/><circle cx="81" cy="81" r="81" transform="translate(189.961 260.862)" fill="#a5b2f4"/><path d="M321.961 333.862h-43v-43h-16v43h-43v16h43v43h16v-43h43z" fill="#fff"/><path fill="#f2f2f2" d="M18.609 478.69h110.153v128.333H18.609z"/><path d="M171.539 608.092h-154v-154h154zm-151.857-2.138H169.4V456.231H19.682z" fill="#3f3d56"/><path fill="#3f3d56" d="M49.622 499.009h94.111v2.139H49.622z"/><path fill="#f2f2f2" d="M171.792 56.835h222V167h-222z"/><path d="M438.791 168h-268V34h268zm-266-2h264V36h-264z" fill="#3f3d56"/><path fill="#3f3d56" d="M210.822 89.917H354.76v2H210.822zm0 21H354.76v2H210.822zm0 21H354.76v2H210.822z"/><path fill="#f2f2f2" d="M476.961 334.862h95v101h-95z"/><path d="M595.961 436.862h-120v-120h120zm-118-2h116v-116h-116z" fill="#3f3d56"/><path fill="#3f3d56" d="M491.461 371.362h66v2h-66zm0 13h66v2h-66zm0 13h66v2h-66zM76.018 166h457.546v2H76.018zm334.443 268.862h251v2h-251z"/></g></svg>