<?xml version="1.0" encoding="utf-8"?>
<!-- Generator: Adobe Illustrator 24.0.0, SVG Export Plug-In . SVG Version: 6.00 Build 0)  -->
<svg version="1.1" id="Layer_1" xmlns="http://www.w3.org/2000/svg" xmlns:xlink="http://www.w3.org/1999/xlink" x="0px" y="0px"
	 viewBox="0 0 1280 500" style="enable-background:new 0 0 1280 500;" xml:space="preserve">
<style type="text/css">
	.st0{fill:#76A9EA;}
	.st1{fill:#CB2027;}
	.st2{fill:#F1F2F2;}
	.st3{fill:#0077B7;}
	.st4{fill:url(#SVGID_1_);}
	.st5{fill:url(#SVGID_2_);}
	.st6{fill:url(#SVGID_3_);}
	.st7{fill:#1976D2;}
	.st8{fill:#FAFAFA;}
</style>
<path class="st0" d="M336.2,422.8c-0.6,0.3-1.2,0.5-1.8,0.6c0.7-0.6,1.2-1.5,1.5-2.3l0,0c0.1-0.3-0.2-0.5-0.4-0.3l0,0
	c-0.9,0.5-1.8,0.9-2.7,1.1c-0.1,0-0.1,0-0.2,0c-0.2,0-0.3-0.1-0.5-0.2c-1-0.9-2.3-1.4-3.7-1.4c-0.6,0-1.2,0.1-1.8,0.3
	c-1.8,0.6-3.2,2.1-3.6,3.9c-0.2,0.7-0.2,1.4-0.1,2.1c0,0.1,0,0.1,0,0.2c0,0-0.1,0.1-0.1,0.1c0,0,0,0,0,0c-4-0.4-7.5-2.3-10.1-5.4
	l0,0c-0.1-0.2-0.4-0.1-0.5,0l0,0c-0.5,0.9-0.8,1.8-0.8,2.8c0,1.5,0.6,2.9,1.7,4c-0.4-0.1-0.9-0.3-1.3-0.5l0,0
	c-0.2-0.1-0.4,0-0.4,0.2l0,0c0,2.2,1.3,4.2,3.3,5.1c0,0-0.1,0-0.1,0c-0.3,0-0.6,0-0.9-0.1l0,0c-0.2,0-0.4,0.2-0.3,0.4l0,0
	c0.6,2,2.4,3.5,4.4,3.8c-1.7,1.1-3.7,1.8-5.8,1.8h-0.6c-0.2,0-0.4,0.1-0.4,0.3c0,0.2,0,0.4,0.2,0.5c2.3,1.4,5,2.1,7.7,2.1
	c2.4,0,4.6-0.5,6.6-1.4c1.8-0.9,3.5-2.1,4.8-3.6c1.3-1.4,2.3-3.1,3-4.9c0.7-1.8,1-3.6,1-5.4v-0.1c0-0.3,0.1-0.6,0.4-0.7
	c0.9-0.7,1.6-1.5,2.2-2.4l0,0C336.7,423,336.5,422.7,336.2,422.8L336.2,422.8z"/>
<g>
	<circle class="st1" cx="1095.1" cy="400" r="13"/>
	<g>
		<path class="st2" d="M1096.1,404.4c-1-0.1-1.4-0.6-2.2-1c-0.4,2.2-0.9,4.3-2.5,5.5c-0.5-3.4,0.7-5.9,1.2-8.5
			c-0.9-1.5,0.1-4.7,2.1-3.9c2.4,1-2.1,5.8,0.9,6.4c3.1,0.6,4.4-5.4,2.5-7.4c-2.8-2.9-8.2-0.1-7.5,4c0.2,1,1.2,1.3,0.4,2.7
			c-1.8-0.4-2.3-1.8-2.3-3.7c0.1-3.1,2.8-5.2,5.4-5.5c3.4-0.4,6.6,1.2,7,4.4C1101.8,400.7,1099.7,404.6,1096.1,404.4L1096.1,404.4z"
			/>
	</g>
</g>
<path class="st3" d="M80,270.1H58.8c-1.3,0-2.3,1.1-2.3,2.3v21.2c0,1.3,1.1,2.3,2.3,2.3H80c1.3,0,2.3-1,2.3-2.3v-21.2
	C82.4,271.2,81.3,270.1,80,270.1z M64.5,292.5c0,0.4-0.3,0.7-0.7,0.7h-2.9c-0.4,0-0.7-0.3-0.7-0.7v-12.2c0-0.4,0.3-0.7,0.7-0.7h2.9
	c0.4,0,0.7,0.3,0.7,0.7V292.5z M62.4,278.5c-1.5,0-2.8-1.2-2.8-2.8s1.2-2.8,2.8-2.8s2.8,1.2,2.8,2.8
	C65.1,277.3,63.9,278.5,62.4,278.5z M79.7,292.6c0,0.3-0.3,0.6-0.6,0.6h-3.1c-0.4,0-0.6-0.3-0.6-0.6v-5.7c0-0.8,0.2-3.7-2.2-3.7
	c-1.9,0-2.3,2-2.4,2.9v6.6c0,0.4-0.3,0.6-0.6,0.6h-3c-0.4,0-0.6-0.3-0.6-0.6v-12.3c0-0.4,0.3-0.6,0.6-0.6h3c0.4,0,0.6,0.3,0.6,0.6
	v1.1c0.7-1.1,1.8-1.9,4-1.9c5,0,5,4.7,5,7.2L79.7,292.6L79.7,292.6z"/>
<g>
	
		<linearGradient id="SVGID_1_" gradientUnits="userSpaceOnUse" x1="744.551" y1="279.8739" x2="745.2128" y2="280.5356" gradientTransform="matrix(32 0 0 -32 -22692 9111)">
		<stop  offset="0" style="stop-color:#FFC107"/>
		<stop  offset="0.507" style="stop-color:#F44336"/>
		<stop  offset="0.99" style="stop-color:#9C27B0"/>
	</linearGradient>
	<path class="st4" d="M1149.1,131.5h-9.7c-4.5,0-8.1,3.6-8.1,8.1v9.7c0,4.5,3.6,8.1,8.1,8.1h9.7c4.5,0,8.1-3.6,8.1-8.1v-9.7
		C1157.2,135.1,1153.6,131.5,1149.1,131.5z M1154.8,149.3c0,3.1-2.5,5.7-5.7,5.7h-9.7c-3.1,0-5.7-2.5-5.7-5.7v-9.7
		c0-3.1,2.5-5.7,5.7-5.7h9.7c3.1,0,5.7,2.5,5.7,5.7V149.3z"/>
	
		<linearGradient id="SVGID_2_" gradientUnits="userSpaceOnUse" x1="744.7386" y1="280.0615" x2="745.0251" y2="280.3479" gradientTransform="matrix(32 0 0 -32 -22692 9111)">
		<stop  offset="0" style="stop-color:#FFC107"/>
		<stop  offset="0.507" style="stop-color:#F44336"/>
		<stop  offset="0.99" style="stop-color:#9C27B0"/>
	</linearGradient>
	<path class="st5" d="M1144.2,138c-3.6,0-6.5,2.9-6.5,6.5c0,3.6,2.9,6.5,6.5,6.5s6.5-2.9,6.5-6.5
		C1150.7,140.9,1147.8,138,1144.2,138z M1144.2,148.5c-2.2,0-4.1-1.8-4.1-4.1s1.8-4.1,4.1-4.1c2.2,0,4.1,1.8,4.1,4.1
		S1146.4,148.5,1144.2,148.5z"/>
	
		<linearGradient id="SVGID_3_" gradientUnits="userSpaceOnUse" x1="745.0803" y1="280.4034" x2="745.1184" y2="280.4416" gradientTransform="matrix(32 0 0 -32 -22692 9111)">
		<stop  offset="0" style="stop-color:#FFC107"/>
		<stop  offset="0.507" style="stop-color:#F44336"/>
		<stop  offset="0.99" style="stop-color:#9C27B0"/>
	</linearGradient>
	<circle class="st6" cx="1151.2" cy="137.5" r="0.9"/>
</g>
<g>
	<path class="st7" d="M210.7,47.3h-19.4c-1.8,0-3.2,1.4-3.2,3.2V70c0,1.8,1.4,3.2,3.2,3.2h19.4c1.8,0,3.2-1.4,3.2-3.2V50.5
		C213.9,48.8,212.5,47.3,210.7,47.3z"/>
	<path class="st8" d="M209.9,60.3h-4V57c0-0.9,0.7-0.8,1.6-0.8h1.6v-4.1h-3.2l0,0c-2.7,0-4.9,2.2-4.9,4.9v3.2h-3.2v4.1h3.2v8.9h4.9
		v-8.9h2.4L209.9,60.3z"/>
</g>
</svg>
