<svg xmlns="http://www.w3.org/2000/svg" viewBox="0 0 1280 500"><path d="M336.2 422.8c-.6.3-1.2.5-1.8.6.7-.6 1.2-1.5 1.5-2.3.1-.3-.2-.5-.4-.3-.9.5-1.8.9-2.7 1.1h-.2c-.2 0-.3-.1-.5-.2-1-.9-2.3-1.4-3.7-1.4-.6 0-1.2.1-1.8.3-1.8.6-3.2 2.1-3.6 3.9-.2.7-.2 1.4-.1 2.1v.2l-.1.1c-4-.4-7.5-2.3-10.1-5.4-.1-.2-.4-.1-.5 0-.5.9-.8 1.8-.8 2.8 0 1.5.6 2.9 1.7 4-.4-.1-.9-.3-1.3-.5-.2-.1-.4 0-.4.2 0 2.2 1.3 4.2 3.3 5.1h-.1c-.3 0-.6 0-.9-.1-.2 0-.4.2-.3.4.6 2 2.4 3.5 4.4 3.8-1.7 1.1-3.7 1.8-5.8 1.8h-.6c-.2 0-.4.1-.4.3 0 .2 0 .4.2.5 2.3 1.4 5 2.1 7.7 2.1 2.4 0 4.6-.5 6.6-1.4 1.8-.9 3.5-2.1 4.8-3.6 1.3-1.4 2.3-3.1 3-4.9.7-1.8 1-3.6 1-5.4v-.1c0-.3.1-.6.4-.7.9-.7 1.6-1.5 2.2-2.4-.2-.4-.4-.7-.7-.6z" fill="#76a9ea"/><circle cx="1095.1" cy="400" r="13" fill="#cb2027"/><path d="M1096.1 404.4c-1-.1-1.4-.6-2.2-1-.4 2.2-.9 4.3-2.5 5.5-.5-3.4.7-5.9 1.2-8.5-.9-1.5.1-4.7 2.1-3.9 2.4 1-2.1 5.8.9 6.4 3.1.6 4.4-5.4 2.5-7.4-2.8-2.9-8.2-.1-7.5 4 .2 1 1.2 1.3.4 2.7-1.8-.4-2.3-1.8-2.3-3.7.1-3.1 2.8-5.2 5.4-5.5 3.4-.4 6.6 1.2 7 4.4.7 3.3-1.4 7.2-5 7z" fill="#f1f2f2"/><path d="M80 270.1H58.8c-1.3 0-2.3 1.1-2.3 2.3v21.2c0 1.3 1.1 2.3 2.3 2.3H80c1.3 0 2.3-1 2.3-2.3v-21.2c.1-1.2-1-2.3-2.3-2.3zm-15.5 22.4c0 .4-.3.7-.7.7h-2.9c-.4 0-.7-.3-.7-.7v-12.2c0-.4.3-.7.7-.7h2.9c.4 0 .7.3.7.7v12.2zm-2.1-14c-1.5 0-2.8-1.2-2.8-2.8s1.2-2.8 2.8-2.8 2.8 1.2 2.8 2.8c-.1 1.6-1.3 2.8-2.8 2.8zm17.3 14.1c0 .3-.3.6-.6.6H76c-.4 0-.6-.3-.6-.6v-5.7c0-.8.2-3.7-2.2-3.7-1.9 0-2.3 2-2.4 2.9v6.6c0 .4-.3.6-.6.6h-3c-.4 0-.6-.3-.6-.6v-12.3c0-.4.3-.6.6-.6h3c.4 0 .6.3.6.6v1.1c.7-1.1 1.8-1.9 4-1.9 5 0 5 4.7 5 7.2l-.1 5.8z" fill="#0077b7"/><linearGradient id="a" gradientUnits="userSpaceOnUse" x1="744.551" y1="279.874" x2="745.213" y2="280.536" gradientTransform="matrix(32 0 0 -32 -22692 9111)"><stop offset="0" stop-color="#ffc107"/><stop offset=".507" stop-color="#f44336"/><stop offset=".99" stop-color="#9c27b0"/></linearGradient><path d="M1149.1 131.5h-9.7c-4.5 0-8.1 3.6-8.1 8.1v9.7c0 4.5 3.6 8.1 8.1 8.1h9.7c4.5 0 8.1-3.6 8.1-8.1v-9.7c0-4.5-3.6-8.1-8.1-8.1zm5.7 17.8c0 3.1-2.5 5.7-5.7 5.7h-9.7c-3.1 0-5.7-2.5-5.7-5.7v-9.7c0-3.1 2.5-5.7 5.7-5.7h9.7c3.1 0 5.7 2.5 5.7 5.7v9.7z" fill="url(#a)"/><linearGradient id="b" gradientUnits="userSpaceOnUse" x1="744.739" y1="280.062" x2="745.025" y2="280.348" gradientTransform="matrix(32 0 0 -32 -22692 9111)"><stop offset="0" stop-color="#ffc107"/><stop offset=".507" stop-color="#f44336"/><stop offset=".99" stop-color="#9c27b0"/></linearGradient><path d="M1144.2 138c-3.6 0-6.5 2.9-6.5 6.5s2.9 6.5 6.5 6.5 6.5-2.9 6.5-6.5-2.9-6.5-6.5-6.5zm0 10.5c-2.2 0-4.1-1.8-4.1-4.1s1.8-4.1 4.1-4.1c2.2 0 4.1 1.8 4.1 4.1s-1.9 4.1-4.1 4.1z" fill="url(#b)"/><linearGradient id="c" gradientUnits="userSpaceOnUse" x1="745.08" y1="280.403" x2="745.118" y2="280.442" gradientTransform="matrix(32 0 0 -32 -22692 9111)"><stop offset="0" stop-color="#ffc107"/><stop offset=".507" stop-color="#f44336"/><stop offset=".99" stop-color="#9c27b0"/></linearGradient><circle cx="1151.2" cy="137.5" r=".9" fill="url(#c)"/><path d="M210.7 47.3h-19.4c-1.8 0-3.2 1.4-3.2 3.2V70c0 1.8 1.4 3.2 3.2 3.2h19.4c1.8 0 3.2-1.4 3.2-3.2V50.5c0-1.7-1.4-3.2-3.2-3.2z" fill="#1976d2"/><path d="M209.9 60.3h-4V57c0-.9.7-.8 1.6-.8h1.6v-4.1h-3.2c-2.7 0-4.9 2.2-4.9 4.9v3.2h-3.2v4.1h3.2v8.9h4.9v-8.9h2.4l1.6-4z" fill="#fafafa"/></svg>