<svg version="1.1" id="Layer_1" xmlns="http://www.w3.org/2000/svg" x="0" y="0" viewBox="0 0 200 20" xml:space="preserve"><style>.st0{fill-rule:evenodd;clip-rule:evenodd;fill:#d3cc76}</style><path class="st0" d="M11.94 17.49c.11-.12.21-.24.32-.36.08-.09.22-.31.32-.36.06-.03.29.32.36.32.07-.01.26-.39.32-.37.11.03.28.24.37.32.05.04.36.26.36.32s-.28.31-.32.36c-.11.12-.21.24-.32.36-.04.05-.26.36-.32.36s-.31-.28-.36-.32c-.24-.21-.49-.42-.73-.63zm66.82-8.44c-.03-.11-.36-.21-.36-.32 0-.06.28-.31.32-.36.1-.13.22-.24.32-.36.1-.13.21-.24.32-.36.08-.09.21-.31.32-.36.06-.03.29.32.36.32.11-.01.21-.33.32-.36.03.11.36.21.37.32.01.11-.33.25-.32.36.01.11.36.21.36.32 0 .06-.28.31-.32.36-.04.05-.26.36-.32.36-.1.01-.27-.34-.36-.32-.1.03-.22.37-.32.36-.13-.01-.25-.3-.37-.32-.11.12-.22.24-.32.36zm6.79 4.03c.02-.11.33-.25.32-.36-.01-.11-.33-.21-.36-.32.11-.12.21-.24.32-.36.05-.06.25-.35.32-.36.02 0 .36.3.36.32.01.1-.34.27-.32.36.02.07.38.25.36.32-.03.14-.28.23-.32.36-.11.03-.21.36-.32.36-.11.01-.25-.31-.36-.32zm14.01-1.25l.73.64-.64.73c-.12-.11-.24-.21-.36-.32-.05-.04-.36-.26-.36-.32-.01-.06.28-.31.32-.36.09-.13.2-.25.31-.37zm-5.1-4.48c.1-.13.22-.24.32-.36.04-.06.32-.3.32-.36-.01-.11-.33-.21-.36-.32.11-.03.21-.36.32-.36.11-.01.25.31.36.32.11-.03.21-.36.32-.36.02 0 .36.3.36.32.01.1-.35.27-.32.36.04.13.31.2.36.32-.11.03-.21.36-.32.36-.1.01-.27-.34-.36-.32-.13.04-.2.31-.32.36-.11.03-.21.36-.32.36-.11.01-.25-.31-.36-.32zm7.2 5.03c.11-.12.21-.24.32-.36.02-.03.31-.37.32-.36.05.03.36.27.36.32 0 .08-.28.29-.32.36-.06.13-.23.26-.32.36-.04.05-.26.36-.32.36s-.31-.28-.36-.32c-.04-.04-.37-.27-.36-.32 0-.03.29-.36.32-.36.11 0 .24.31.36.32zm5.15.01c-.04.05-.26.36-.32.36s-.31-.28-.36-.32c-.06-.05-.35-.25-.36-.32-.01-.05.28-.32.32-.36.05-.06.25-.35.32-.36.05-.01.32.28.36.32.04.04.37.27.37.32-.01.07-.28.31-.33.36zm-3.18-6.66l.64-.73c.06-.07.23-.34.32-.36.05-.01.32.29.36.32.07.04.29.32.36.32.1-.01.23-.38.32-.36.13.02.23.28.36.32-.02.12-.33.25-.32.36 0 .03.37.31.36.32-.05.05-.25.36-.32.36-.06 0-.31-.28-.36-.32-.09-.07-.26-.3-.36-.32-.07-.02-.23.36-.31.36-.11.01-.25-.33-.36-.32-.12.01-.2.33-.32.36-.12.04-.2.34-.32.36-.02 0-.36-.3-.36-.32-.02-.1.3-.24.31-.35zm7.97 6.35c-.11.03-.21.36-.32.36-.06 0-.31-.28-.36-.32-.05-.04-.36-.26-.36-.32-.01-.11.3-.25.32-.36.11-.03.21-.36.32-.36.05 0 .33.28.36.32.02.03-.32.32-.32.36.01.12.33.21.36.32zm7.22-5.27c-.12-.11-.24-.21-.36-.32-.04-.04-.37-.27-.36-.32 0-.12.3-.24.32-.36.11-.12.21-.24.32-.36.04-.04.27-.37.32-.36.12 0 .24.3.36.32-.02.12-.33.25-.32.36 0 .07.38.26.36.32-.04.11-.24.28-.32.36-.1.11-.21.24-.32.36zm1.69-.46c.02-.11.33-.25.32-.36-.01-.11-.36-.21-.36-.32-.01-.11.33-.25.32-.36-.01-.07-.39-.26-.37-.32.04-.11.24-.27.32-.36l.64-.73c.07-.08.22-.33.32-.36.01 0 .36.3.36.32.01.11-.3.25-.32.36.03.11.36.21.36.32.01.07-.28.31-.32.37-.08.1-.27.24-.32.36-.04.09-.33.27-.32.36.01.07.38.26.36.32-.04.11-.24.28-.32.36-.1.11-.2.28-.32.36-.01.02-.3-.31-.35-.32zm1.33-.77c.11-.12.21-.24.32-.36.04-.04.27-.37.32-.36.1 0 .27.27.36.32.13.06.26.23.36.32.12.11.24.21.37.32-.11.03-.21.36-.32.36-.1.01-.27-.34-.36-.32-.06.02-.26.38-.32.36-.11-.03-.28-.24-.36-.32-.13-.11-.25-.21-.37-.32zm11.62 4.41c-.11.03-.21.36-.32.36-.06 0-.31-.28-.36-.32-.05-.04-.36-.26-.37-.32-.01-.11.3-.25.32-.36.11-.03.21-.36.32-.36.05 0 .33.28.36.32.02.03-.32.32-.32.36.02.11.34.2.37.32zm22.82-3.2c-.02.11-.33.25-.32.36.01.07.38.26.36.32-.04.11-.24.28-.32.36-.08.1-.21.3-.32.36-.05.03-.3-.33-.37-.32-.11.01-.21.33-.32.36-.12-.11-.24-.21-.36-.32-.05-.04-.36-.26-.36-.32s.28-.32.32-.36c.11-.12.21-.24.32-.36.08-.09.21-.31.32-.36.06-.03.29.32.36.32.1-.01.23-.38.32-.36.14.02.24.29.37.32zm-1.41-.59c-.04.05-.26.36-.32.36-.06.01-.31-.28-.37-.32-.05-.05-.35-.25-.36-.32-.01-.05.28-.32.32-.36.05-.06.25-.35.32-.36.05-.01.32.28.36.32.04.04.37.27.36.32.01.07-.26.3-.31.36zm8.3.84l.73.64c.05.05.36.26.36.32.01.11-.31.25-.32.36-.12-.11-.24-.21-.36-.32-.09-.08-.25-.28-.36-.32-.06-.02-.25.36-.32.36-.11.01-.25-.3-.36-.32.02-.11.33-.25.32-.36 0-.07-.38-.26-.36-.32.04-.11.24-.28.32-.36.04-.04.27-.37.32-.36.03 0 .36.29.36.32 0 .11-.31.24-.33.36zm2.51 1.55c-.12-.11-.24-.21-.36-.32-.04-.04-.37-.27-.37-.32.01-.13.3-.24.32-.36.11-.03.21-.36.32-.36.02 0 .37.3.36.32-.01.12-.33.25-.32.36.01.12.36.2.36.32.02.11-.3.25-.31.36zm20.68-4.42c.12.11.24.21.36.32.09.08.32.22.37.32.03.06-.33.29-.32.36 0 .04.32.3.36.32.09.04.27.33.37.32.06 0 .27-.31.32-.36.09-.09.21-.31.32-.36.09-.05.22-.36.32-.36.11-.01.26.33.36.32.12-.02.2-.36.32-.36.11-.01.25.3.36.32.12.02.25.33.37.32.11-.01.21-.36.32-.36.02 0 .36.3.37.32.01.11-.3.25-.32.36-.11.12-.21.24-.32.36-.11.12-.21.24-.32.36-.07.08-.23.33-.32.36-.03.01-.33-.29-.36-.32-.05-.04-.3-.32-.36-.32s-.28.31-.32.36c-.04.05-.27.36-.32.36-.07 0-.31-.27-.36-.32-.04-.04-.31-.33-.36-.32-.05.01-.29.38-.32.36-.13-.08-.25-.22-.36-.32-.12-.11-.24-.21-.36-.32-.04-.04-.37-.27-.36-.32 0-.12.33-.25.32-.36-.01-.11-.36-.21-.36-.32-.01-.11.3-.25.32-.36.06-.12.17-.24.28-.36z"/><path class="st0" d="M87.91 17.74c-.12-.02-.25-.33-.36-.32-.05 0-.29.38-.32.36-.05-.03-.36-.27-.36-.32 0-.07.28-.31.32-.37.06-.08.31-.27.32-.36.01-.09-.35-.23-.36-.32-.11.12-.21.24-.32.36-.08.09-.21.31-.32.36-.06.03-.29-.32-.36-.32-.1.01-.22.32-.32.36-.06.03-.29-.33-.36-.32-.08.01-.25.31-.32.36-.12.08-.23.26-.32.36-.05.06-.25.35-.32.36-.05.01-.32-.28-.36-.32-.1-.09-.24-.26-.36-.32-.08-.04-.28-.33-.36-.32-.08.01-.25.31-.32.36-.12.08-.23.26-.32.36-.04.05-.27.36-.32.36-.07 0-.31-.27-.36-.32-.1-.09-.25-.27-.36-.32-.09-.04-.27-.33-.36-.32-.11.01-.21.33-.32.36-.11.03-.21.36-.32.36-.1.01-.26-.34-.36-.32-.1.02-.26-.33-.36-.32-.06 0-.27.31-.32.36-.04.04-.28.37-.32.36-.09-.02-.29-.26-.36-.32-.11-.1-.24-.25-.36-.32-.07-.04-.29-.33-.36-.32-.07 0-.26.38-.32.36-.11-.04-.28-.24-.37-.32-.05-.04-.31-.33-.36-.32-.07.01-.27.31-.32.36-.11.12-.21.24-.32.36-.08.09-.21.31-.32.37-.06.03-.3-.33-.36-.32-.12.01-.2.35-.32.36-.11.01-.25-.33-.36-.32-.06 0-.27.31-.32.36-.05.05-.26.36-.32.36s-.31-.28-.36-.32c-.09-.08-.31-.22-.36-.32-.03-.06.32-.29.32-.36 0-.02-.34-.32-.36-.32-.12 0-.25-.33-.36-.32-.08.01-.25.31-.32.36-.12.08-.23.26-.32.36-.05.06-.24.35-.32.36-.05.01-.32-.28-.36-.32-.09-.08-.25-.28-.36-.32-.06-.02-.25.36-.32.36-.11.01-.26-.33-.36-.32-.07.01-.27.31-.32.36-.08.09-.22.31-.32.37-.06.03-.29-.33-.36-.32-.11.01-.21.36-.32.36-.12 0-.25-.33-.36-.32-.07 0-.26.38-.32.36-.11-.04-.28-.24-.36-.32-.05-.04-.31-.33-.36-.32-.07.01-.27.31-.32.36-.04.04-.27.37-.32.36-.09 0-.28-.34-.37-.32-.11.03-.21.36-.32.36-.1.01-.27-.34-.36-.32-.13.03-.19.34-.32.36-.1.02-.26-.33-.36-.32-.1.01-.23.38-.32.36-.07-.01-.31-.34-.36-.32-.1.05-.24.28-.32.36-.05.06-.25.35-.32.36-.05.01-.32-.28-.36-.32-.05-.04-.3-.32-.36-.32s-.28.31-.32.36c-.04.05-.26.36-.32.36-.07 0-.31-.27-.36-.32-.05-.04-.3-.32-.36-.32-.11.01-.25-.33-.36-.32-.08.01-.25.31-.32.37-.12.08-.23.26-.32.36-.03.04-.29.37-.32.36-.09-.02-.29-.26-.36-.32-.11-.09-.24-.26-.36-.32-.08-.04-.28-.33-.36-.32-.03 0-.31.38-.32.37-.05-.04-.36-.26-.36-.32-.01-.1.34-.27.32-.36-.01-.03-.33-.32-.36-.32-.02 0-.32.34-.32.36 0 .07.39.26.36.32-.04.11-.24.28-.32.36-.08.09-.21.32-.32.36-.01 0-.36-.3-.36-.32-.01-.1.34-.27.32-.36-.01-.03-.35-.33-.36-.32-.03.01-.32.33-.32.36 0 .02.34.32.36.32-.11 0-.21.36-.32.36-.06 0-.31-.28-.36-.32-.06-.05-.29-.32-.36-.32-.12 0-.25-.33-.36-.32-.11.01-.21.33-.32.36-.11.03-.21.36-.32.36-.1.01-.27-.34-.36-.32-.12.03-.2.36-.32.36-.1.01-.27-.34-.36-.32-.1.03-.22.37-.32.36-.07 0-.31-.27-.36-.32-.09-.08-.25-.28-.36-.32-.06-.02-.25.36-.32.36-.11.01-.26-.3-.36-.32-.12-.03-.24-.32-.36-.32-.11 0-.21.36-.32.36-.11.01-.25-.33-.37-.32-.11.01-.21.36-.32.36-.07 0-.3-.35-.36-.32-.1.05-.25.28-.32.36-.11.12-.21.24-.32.37-.04.04-.27.36-.32.36-.07 0-.31-.27-.36-.32-.1-.09-.24-.26-.36-.32-.09-.04-.27-.33-.36-.32-.06 0-.27.31-.32.36-.08.08-.22.33-.32.36-.08.03-.28-.33-.36-.32-.11.01-.21.36-.32.36-.07 0-.31-.27-.36-.32-.06-.05-.29-.32-.36-.32-.12 0-.25-.33-.36-.32-.11.01-.21.33-.32.36-.11.03-.21.36-.32.36-.09.01-.28-.35-.36-.32-.11.03-.21.36-.32.36-.07 0-.31-.35-.36-.32-.11.05-.24.28-.32.36-.05.06-.25.35-.32.36-.05.01-.32-.28-.36-.32-.04-.04-.32-.33-.36-.32-.12.02-.2.36-.32.36-.11.01-.25-.33-.36-.32-.06 0-.27.31-.32.36-.04.04-.27.37-.32.36-.08-.01-.3-.26-.36-.32-.04-.04-.32-.33-.36-.32-.04.01-.3.38-.32.36-.05-.04-.36-.26-.36-.32-.01-.1.34-.27.32-.36-.01-.03-.33-.32-.36-.32-.02 0-.32.34-.32.36 0 .07.38.26.36.32-.04.11-.24.28-.32.36-.05.06-.25.36-.32.36-.05.01-.32-.28-.36-.32-.1-.09-.24-.27-.36-.32-.09-.04-.27-.33-.36-.32-.07 0-.27.31-.32.36-.08.08-.22.33-.32.36-.08.03-.28-.33-.36-.32-.09.01-.24.38-.32.36-.1-.02-.29-.25-.37-.32-.12-.11-.24-.21-.36-.32-.11-.09-.24-.26-.36-.32-.04-.02-.26.36-.32.36-.07 0-.31-.28-.36-.32-.05-.04-.31-.33-.36-.32-.07.01-.27.31-.32.36-.11.12-.21.24-.32.36-.1.12-.2.27-.32.36-.03.02-.32-.32-.36-.32-.02 0-.32.35-.32.36 0 .02.35.32.36.32-.12.02-.2.36-.32.36-.07 0-.31-.28-.36-.32-.09-.07-.25-.29-.36-.32-.07-.02-.24.36-.32.36-.07 0-.31-.28-.36-.32-.05-.04-.31-.33-.37-.32-.06.01-.27.31-.32.36-.11.12-.21.24-.32.36-.07.08-.22.32-.32.36-.07.03-.29-.32-.36-.32-.1.01-.23.38-.32.36-.07-.01-.31-.34-.36-.32-.1.05-.24.28-.32.36-.11.12-.21.24-.32.36-.08.09-.22.31-.32.36-.06.03-.29-.33-.36-.32-.12.01-.2.35-.32.36-.02 0-.36-.3-.36-.32-.01-.1.34-.27.32-.36-.01-.05-.31-.3-.36-.32-.1-.03-.26-.33-.36-.32-.06 0-.27.31-.32.36-.08.08-.22.33-.32.36-.08.03-.28-.33-.36-.32-.12.01-.2.35-.32.36-.11.02-.26-.33-.36-.32-.1.01-.23.38-.32.36-.13-.02-.24-.32-.36-.32-.11 0-.21.36-.32.36-.09.01-.29-.35-.36-.32-.09.03-.25.29-.32.36-.04.04-.27.37-.32.36-.05 0-.33-.34-.36-.32-.12.08-.23.26-.32.36-.11.12-.21.24-.32.36-.11.12-.21.24-.32.36l-.73-.64c.11-.12.21-.24.32-.36.04-.04.33-.32.32-.36-.02-.12-.32-.2-.36-.32-.11.12-.21.24-.32.36-.09.11-.25.24-.32.36-.04.08-.33.28-.32.36 0 .02.36.32.36.32-.09.05-.23.36-.32.36-.06 0-.31-.28-.36-.32-.08-.07-.26-.3-.36-.32-.11-.02-.25-.33-.36-.32-.06 0-.27.31-.32.36-.08.08-.22.33-.32.36-.08.03-.28-.33-.36-.32-.07 0-.26.38-.32.36-.11-.04-.27-.24-.36-.32-.04-.04-.37-.27-.36-.32 0-.04.34-.35.32-.37-.04-.04-.31-.32-.37-.32-.07 0-.26.39-.32.36-.11-.04-.28-.24-.36-.32-.06-.05-.29-.32-.36-.32-.12-.01-.25-.33-.36-.32-.08.01-.25.31-.32.36-.12.08-.23.26-.32.36-.09.1-.21.3-.32.36-.05.03-.3-.32-.36-.32-.07 0-.27.31-.32.36-.11.12-.21.25-.32.36l-.73-.64c.11-.12.21-.24.32-.36.03-.03.33-.33.32-.36-.43.36-.75.07-.78.07-.11.01-.21.36-.32.36-.11.01-.25-.33-.36-.32-.06 0-.28.31-.32.36-.01.02.36.29.36.32.01.06-.28.31-.32.36-.04.05-.26.36-.32.36-.02 0-.36-.3-.36-.32-.01-.1.34-.27.32-.36-.01-.03-.33-.32-.36-.32-.12-.01-.25-.33-.36-.32-.06 0-.27.31-.32.36-.08.09-.21.32-.32.36-.07.03-.29-.33-.36-.32-.07 0-.27.31-.32.36-.06.07-.23.34-.32.36-.1.02-.26-.33-.36-.32-.11.01-.21.36-.32.36-.11.01-.25-.33-.36-.32-.1.01-.22.37-.32.36-.12-.01-.25-.33-.36-.32-.07 0-.26.38-.32.36-.11-.04-.28-.24-.36-.32-.04-.04-.32-.33-.36-.32-.08.02-.27.3-.32.36-.11.12-.21.24-.32.36-.11.12-.21.24-.32.36-.07.08-.22.32-.32.36-.11.09-.33-.27-.41-.26-.1.01-.23.38-.32.36-.13-.02-.23-.3-.36-.32-.09-.01-.23.36-.32.37-.06 0-.31-.28-.36-.32-.04-.03-.33-.33-.36-.32-.09.03-.26.29-.32.36-.11.12-.21.24-.32.37-.05.06-.24.35-.32.36-.05.01-.32-.28-.36-.32-.06-.04-.3-.32-.36-.32-.05 0-.28.39-.32.36-.13-.07-.26-.22-.36-.32-.12-.11-.24-.21-.36-.32-.12-.11-.24-.21-.36-.32-.11-.07-.35-.22-.4-.32-.03-.07.33-.29.32-.36-.01-.1-.38-.23-.36-.32.01-.05.34-.33.32-.36-.07-.11-.26-.23-.36-.32-.12-.11-.24-.21-.36-.32-.12-.11-.24-.21-.36-.32-.06-.05-.35-.24-.36-.32 0-.02.3-.36.32-.36.03 0 .35.29.36.32-.03-.08.33-.28.32-.36 0-.02-.35-.32-.36-.32-.04.01-.29.38-.32.36-.13-.08-.25-.22-.36-.32-.12-.11-.24-.21-.36-.32-.06-.05-.35-.24-.36-.32-.01-.05.28-.32.32-.36.09-.11.26-.24.32-.36.04-.08.33-.28.32-.36-.01-.08-.38-.25-.36-.32.03-.11.24-.28.32-.36.04-.04.33-.32.32-.36 0-.03-.37-.32-.36-.32.06-.05.25-.36.32-.36.1-.01.27.34.36.32.06-.02.26-.38.32-.36.08-.01.24.2.33.28.06.05.29.32.36.32.05 0 .28-.32.32-.36.04-.05.26-.36.32-.36s.31.28.36.32c.04.04.31.33.36.32.07-.01.27-.31.32-.36.08-.09.22-.31.32-.36.06-.03.29.33.36.32.11-.01.21-.33.32-.36.08-.03.28.33.36.32.06 0 .27-.31.32-.36.05-.05.25-.36.32-.36.11-.01.25.33.36.32.1-.01.23-.38.32-.37.12.02.24.32.36.32s.25.33.36.32c.06 0 .27-.31.32-.36.04-.04.27-.37.32-.36.08.01.3.26.36.32.11.1.24.24.36.32.1.06.26.31.36.32.09.01.22-.36.32-.36.08-.01.3.35.36.32.1-.04.25-.28.32-.36.11-.12.21-.24.32-.36.05-.05.26-.36.32-.36.06-.01.32.28.37.32.04.04.31.33.36.32.09-.01.23-.38.32-.36.11.02.25.33.36.32.1-.01.23-.38.32-.36.09.01.28.34.36.32.08-.02.26-.3.32-.36.04-.04.27-.37.32-.36.06 0 .32.35.36.32.11-.06.23-.27.32-.36.05-.06.25-.35.32-.36.05-.01.32.28.36.32.05.04.3.32.36.32s.28-.31.32-.36c.04-.05.27-.36.32-.36.12 0 .25.33.36.32.07 0 .26-.38.32-.36.11.04.28.24.36.32.04.03.32.33.36.32.08-.02.26-.3.32-.36.11-.12.21-.24.32-.36.11-.12.21-.24.32-.36.06-.07.23-.33.32-.36.03-.01.33.29.36.32.04.04.32.33.36.32.12-.02.2-.34.32-.36.12-.02.2-.36.32-.36.11-.01.25.33.36.32.12-.01.2-.36.32-.36.11-.01.25.33.36.32.11-.01.21-.36.32-.36.07 0 .3.35.36.32.1-.05.24-.28.32-.36.11-.12.21-.24.32-.36.04-.05.26-.36.32-.36.02 0 .36.3.36.32.01.1-.34.27-.32.36.02.06.31.29.36.32.08.04.28.33.36.32.1-.01.23-.38.32-.36.04.01.34.34.36.32.04-.03.32-.32.32-.36 0-.02-.34-.32-.36-.32.12-.01.21-.36.32-.36.08 0 .29.28.36.32.13.06.26.23.36.32.03.02.35.33.36.32.04-.02.32-.33.32-.36 0-.08-.31-.25-.36-.32-.08-.12-.26-.23-.36-.32-.04-.04-.32-.33-.36-.32.11-.02.2-.36.32-.36.08 0 .29.28.36.32.13.06.26.23.36.32.06.05.29.32.36.32.12.01.25.33.36.32.02 0 .32-.35.32-.36 0-.02-.36-.32-.37-.32.1-.04.22-.36.32-.36.1-.01.27.34.37.32.11-.03.21-.36.32-.36.11-.01.25.33.36.32.1-.01.23-.38.32-.36.08.01.29.34.36.32.09-.03.26-.29.32-.36.04-.04.27-.37.32-.36.06 0 .32.35.36.32.11-.06.23-.27.32-.36.04-.05.26-.36.32-.37.06 0 .31.27.36.32.04.04.32.33.36.32.11-.02.21-.36.32-.36.12-.01.25.33.36.32.08-.01.25-.38.32-.36.1.03.28.25.36.32.12.11.24.21.36.32.09.08.25.28.36.32.06.02.25-.36.32-.36.11-.01.25.31.36.32l.64-.73c.11-.12.21-.24.32-.36.11-.12.21-.24.32-.36.1-.12.2-.26.32-.36.12-.1.22-.25.32-.36.08-.09.21-.31.32-.36.06-.03.29.33.36.32.11-.01.21-.33.32-.36.04-.01.29-.38.32-.36.13.07.25.22.37.32.04.04.37.27.36.32 0 .03-.33.36-.32.36.06.04.3.32.36.32.12-.01.2-.34.32-.37.12-.02.2-.36.32-.36.07 0 .31.28.36.32.03.02.35.33.36.32.04-.03.32-.32.32-.36 0-.07-.39-.26-.36-.32.04-.11.24-.28.32-.36.04-.05.26-.36.32-.36s.31.28.36.32c.04.04.32.33.36.32.09-.02.23-.38.32-.36.12.02.25.33.36.32.1-.01.23-.38.32-.36.13.02.23.31.36.32.12.01.25.33.36.32.06 0 .27-.31.32-.36.05-.05.26-.36.32-.36.07 0 .31.27.36.32.09.08.25.28.36.32.06.02.25-.36.32-.36.12-.01.25.32.36.32.11 0 .21-.36.32-.36.1-.01.27.34.36.32.11-.03.21-.36.32-.36.12 0 .25.33.36.32.11-.01.21-.36.32-.36.11-.01.25.33.36.32.11-.01.21-.36.32-.36.12 0 .25.33.36.32.09-.01.23-.38.32-.36.09.01.28.34.36.32.08-.02.26-.3.32-.36.04-.04.27-.37.32-.36.06 0 .32.35.36.32.11-.06.24-.27.32-.36.05-.05.26-.36.32-.36.06-.01.32.28.36.32.06.05.29.31.36.32.12.01.25.33.36.32.1-.01.23-.38.32-.36.13.02.24.32.36.32.11 0 .21-.36.32-.36.1-.01.27.34.36.32.08-.02.26-.3.32-.36.08-.09.21-.31.32-.36.06-.03.29.32.36.32.11-.01.21-.36.32-.36.07 0 .31.28.36.32.06.04.3.32.36.32.07 0 .27-.31.32-.36.04-.04.27-.37.32-.36.07 0 .31.27.36.32.04.04.32.33.36.32.09-.02.23-.38.32-.36.11.02.25.33.36.32.1-.01.23-.38.32-.36.13.02.24.32.36.32s.25.33.36.32c.1-.01.23-.38.32-.36.13.02.24.32.36.32.11 0 .21-.36.32-.36.1-.01.26.34.36.32.12-.02.2-.36.32-.36.07-.01.3.35.36.32.1-.05.24-.28.32-.36.04-.05.27-.36.32-.36.07 0 .31.27.36.32.04.04.32.33.36.32.06-.01.27-.38.32-.36.12.05.27.23.36.32.04.04.31.33.36.32.07-.01.27-.31.32-.36.04-.04.27-.37.32-.36.07 0 .3.35.36.32.1-.04.25-.28.32-.36.04-.04.27-.37.32-.36.09 0 .29.35.36.32.11-.04.21-.36.32-.36.1-.01.27.34.36.32.13-.03.19-.32.32-.36.11-.04.21-.36.32-.36.1-.01.27.34.36.32.12-.03.2-.35.32-.36.02 0 .36.3.36.32.01.1-.34.27-.32.36.02.06.31.3.36.32.02.01.3-.34.32-.36.04-.05.26-.36.32-.36s.31.28.36.32c.03.03.34.33.36.32.1-.04.25-.28.32-.36.11-.12.21-.24.32-.36.05-.05.26-.36.32-.36.11-.01.25.33.36.32.11-.01.21-.36.32-.36.12-.01.25.33.37.32.07 0 .26-.39.32-.36.11.04.27.24.36.32.12.11.24.21.37.32.05.05.3.32.36.32.05 0 .28-.32.32-.36.11-.12.21-.24.32-.36.06-.06.24-.35.32-.36.04-.01.32.28.36.32.09.08.25.28.36.32.06.02.25-.36.32-.36.11-.01.26.33.36.32.07-.01.27-.31.32-.36.11-.12.21-.24.32-.36.07-.08.22-.32.32-.36.03-.01.33.29.36.32.06.05.3.32.37.32.05 0 .28-.32.32-.36.11-.12.21-.24.32-.36.06-.07.24-.34.32-.36.04-.01.33.29.36.32.05.04.3.32.36.32s.28-.31.32-.36c.05-.06.25-.35.32-.36.02 0 .36.3.36.32 0 .02-.3.36-.32.36.11-.01.25.33.36.32.11-.01.21-.33.32-.36.11-.03.21-.36.32-.36.11-.01.25.33.36.32.11-.01.25.33.36.32.07 0 .27-.31.32-.36.07-.07.23-.34.32-.36.09-.02.27.33.36.32.11-.01.26.33.36.32.11-.01.21-.33.32-.36.11-.03.21-.36.32-.36.1-.01.27.34.37.32.11-.03.2-.36.32-.36.1-.01.27.34.36.32.53-.5.68-.85.77-.84.03 0 .36.29.36.32.01.1-.34.28-.32.36.02.06.31.29.36.32.04.02.27-.36.32-.36.11-.01.25.33.36.32.11-.01.25.33.36.32.02 0 .32-.35.32-.36 0-.02-.36-.32-.36-.32.08-.05.23-.36.32-.36.1-.01.27.34.36.32.12-.03.2-.35.32-.36.11-.02.26.33.36.32.11-.01.22-.33.32-.36.1-.04.21-.36.32-.36.07 0 .3.35.36.32.11-.05.24-.28.32-.36.05-.06.25-.35.32-.36.05-.01.32.28.36.32.07.06.28.31.36.32.12.02.25.33.36.32.11-.01.21-.36.32-.36.11-.01.25.33.36.32.11-.01.21-.36.32-.36.11-.01.21-.36.32-.36.06 0 .31.28.36.32.04.03.32.33.36.32.08-.02.26-.3.32-.36.04-.04.27-.37.32-.36.06 0 .32.35.36.32.11-.06.23-.27.32-.36.06-.06.24-.35.32-.36.04-.01.32.29.36.32.05.04.3.32.36.32s.28-.31.32-.36c.05-.05.26-.36.32-.36s.32.28.36.32c.05.05.3.32.36.32.12 0 .25.33.36.32.1-.01.23-.38.32-.36.07.01.31.34.36.32.1-.05.24-.28.32-.36.04-.05.26-.36.32-.37.11-.01.25.33.36.32.07-.01.26-.39.32-.36.11.04.28.24.36.32.04.03.33.33.36.32.09-.03.26-.29.32-.36.11-.12.21-.24.32-.37.09-.1.21-.29.32-.36.08-.05.23-.36.32-.36.11-.01.25.3.36.32 0-.08.35-.3.32-.36.04.1.28.25.36.32.05.04.36.26.36.32s-.28.32-.32.37c.08-.07-.2.28-.21.27.07.04.29.32.36.32.1-.01.23-.38.32-.36.07.01.31.34.36.32.1-.04.25-.28.32-.36.11-.12.21-.24.32-.36.04-.04.27-.37.32-.36.07 0 .31.27.36.32.12.11.24.21.36.32.04.04.32.33.36.32.08-.02.27-.3.32-.37.11-.12.21-.24.32-.36.11-.12.21-.24.32-.36.06-.06.24-.35.32-.36.09-.02.26.33.36.32.07-.01.26-.39.32-.36.11.03.28.24.36.32.09.08.25.28.36.32.06.02.25-.36.32-.36s.31.28.36.32c.06.05.29.32.36.32.06 0 .28-.32.32-.36.04-.04.27-.37.32-.36.11 0 .26.34.36.32.1-.02.26.33.36.32.02 0 .32-.35.32-.36 0-.03-.34-.32-.36-.32.11-.01.21-.36.32-.36.11-.01.25.33.36.32.11-.01.21-.36.32-.36.11-.01.26.29.36.32.1.03.28.25.36.32.09.08.25.28.36.32.06.02.25-.36.32-.36.12-.01.25.32.36.32.05 0 .28-.32.32-.36.11-.12.21-.24.32-.36.06-.06.24-.35.32-.36.04-.01.32.29.36.32.04.04.32.33.36.32.11-.02.21-.36.32-.36.12-.01.25.33.36.32.07 0 .27-.39.32-.36.04.02.36.28.36.32.01.1-.34.27-.32.36.02.06.31.29.36.32.04.02.27-.36.32-.36.11-.01.25.33.36.32.02 0 .32-.34.32-.36 0-.07-.38-.26-.36-.32.04-.11.24-.27.32-.36.05-.06.25-.35.32-.36.05-.01.32.28.36.32.04.04.32.33.36.32.11-.02.21-.36.32-.36.12 0 .25.33.36.32.1-.01.23-.38.32-.36.12.01.25.33.36.32.07 0 .26-.38.32-.36.11.04.28.24.36.32.05.04.31.33.36.32.07-.01.27-.31.32-.36.04-.04.27-.37.32-.36.06 0 .32.35.36.32.11-.06.23-.27.32-.36.06-.07.23-.34.32-.36.09-.02.27.33.36.32.11-.01.21-.36.32-.36.11-.01.25.33.36.32.11-.01.21-.37.32-.36.07 0 .31.27.36.32.04.04.37.27.36.32 0 .03-.29.36-.32.36.11-.01.25.33.36.32.02 0 .32-.35.32-.36 0-.02-.36-.32-.36-.32.08-.05.23-.36.32-.36.11-.01.25.33.37.32.11-.01.21-.36.32-.36.1-.01.26.34.37.32.11-.02.2-.36.32-.36.07 0 .3.35.36.32.11-.05.24-.28.32-.36.05-.06.25-.35.32-.36.1-.02.26.33.37.32.07 0 .26-.38.32-.36.11.04.28.24.36.32.05.04.3.32.36.32s.28-.31.32-.36c.08-.09.21-.31.32-.36.06-.03.29.33.37.32.11-.01.21-.36.32-.36.12-.01.25.33.36.32.1-.01.23-.38.32-.36.12.02.24.32.36.32s.25.33.36.32c.07 0 .27-.31.32-.36.04-.04.27-.37.32-.36.08 0 .3.27.37.32.05.05.3.32.36.32.12 0 .25.33.36.32.08-.01.25-.31.32-.36.12-.08.23-.26.32-.36.04-.04.27-.37.32-.36.07 0 .31.27.36.32.12.11.24.21.36.32.08.07.26.29.36.32.11.03.26.33.37.32.07 0 .27-.31.32-.36.08-.08.22-.33.32-.36.08-.03.28.33.36.32.11-.01.22-.37.32-.36.07 0 .3.27.36.32.09.08.25.28.36.32.06.02.25-.36.32-.36.11-.01.25.33.36.32.11-.01.21-.36.32-.36.07-.01.3.35.36.32.1-.05.24-.28.32-.36.04-.05.26-.36.32-.37.11-.01.25.33.36.32.07 0 .26-.38.32-.36.11.04.28.24.36.32.06.06.28.31.36.32.1.01.22-.36.32-.36.1-.01.27.34.36.32.13-.04.19-.33.32-.36.09-.02.27.33.37.32.06 0 .27-.31.32-.36.04-.04.28-.37.32-.36.09.01.3.26.36.32.12.11.24.21.36.32.09.08.25.28.36.32.1.03.27.33.36.32.07 0 .27-.31.32-.36.03-.03.3-.37.32-.36.11.04.27.24.36.32.04.04.37.27.36.32 0 .03-.33.36-.32.36.13.1.24.22.36.32l.64-.73c.1-.11.2-.28.32-.36.07-.05.24-.36.32-.36.1-.01.27.34.36.32.06-.02.27-.38.32-.36.11.04.27.24.36.32.09.08.31.22.36.32.03.06-.33.29-.32.36 0 .02.34.32.36.32.06-.01.28-.31.32-.36.11-.12.21-.24.32-.36.11-.12.21-.24.32-.36.05-.06.25-.35.32-.36.05-.01.32.28.36.32.09.08.25.28.36.32.06.02.25-.36.32-.36.12-.01.25.32.36.32.12 0 .25.33.37.32.06-.01.27-.31.32-.36.03-.04.28-.37.32-.36.09.02.29.26.36.32.1.09.24.27.36.32.09.04.27.33.36.32.1-.01.23-.38.32-.36.13.02.23.3.36.32.09.01.23-.36.32-.36.06 0 .31.28.36.32.07.05.28.31.36.32.02 0 .32-.34.32-.36 0-.03-.38-.31-.36-.32.04-.05.26-.36.32-.36.12-.01.25.31.36.32.12.01.25.33.36.32.07 0 .27-.31.32-.36.04-.04.27-.37.32-.36.03 0 .36.29.36.32 0 .03-.33.36-.32.36.07.04.29.33.36.32.1-.01.23-.38.32-.36.12.02.25.33.36.32.11-.01.21-.36.32-.36.1-.01.27.34.37.32.07-.02.25-.38.32-.36.1.02.29.25.36.32.06.05.29.32.36.32.12 0 .25.33.36.32.06 0 .27-.31.32-.36.08-.08.22-.33.32-.36.08-.03.28.33.37.32.11-.01.21-.33.32-.36.09-.02.27.33.36.32.07 0 .27-.31.32-.36.08-.08.22-.33.32-.36.08-.03.28.33.36.32.1-.01.22-.37.32-.36.07 0 .3.27.36.32.04.04.37.27.37.32 0 .02-.31.37-.32.36.1.03.26.33.36.32.11-.01.21-.36.32-.36.11-.01.25.33.37.32.11-.01.21-.33.32-.36.09-.02.27.33.36.32.07 0 .27-.31.32-.36.05-.05.26-.36.32-.36s.31.27.37.32c.09.08.25.28.36.32.06.02.25-.36.32-.36.12-.01.25.31.36.32.1.01.22-.36.32-.36.11-.01.25.33.36.32.11-.01.21-.36.32-.36.12-.01.25.32.36.32.12 0 .25.33.36.32.1-.01.23-.38.32-.36.07.01.31.35.36.32.1-.05.24-.28.32-.36.04-.04.27-.37.32-.36.03 0 .36.3.37.32 0 .02-.3.36-.32.36.12 0 .25.33.36.32.1-.01.23-.38.32-.36.12.02.24.32.36.32.11 0 .21-.36.32-.36.1-.01.27.34.36.32.08-.02.26-.3.32-.36.04-.04.27-.37.32-.36.06 0 .32.35.36.32.11-.06.24-.27.32-.36.03-.03.29-.37.32-.36.03.01.36.29.36.32.01.11-.33.25-.32.36.01.11.36.21.36.32 0 .05-.34.34-.32.36.03.04.32.32.36.32.1-.01.23-.38.32-.36.13.02.23.28.36.32.11-.12.21-.24.32-.36.08-.09.21-.31.32-.36.06-.03.29.32.36.32.1-.01.23-.32.32-.36.09-.04.22-.36.32-.36.07-.01.31.35.36.32.1-.05.24-.27.32-.36.05-.05.25-.36.32-.36.05-.01.32.28.37.32.04.04.31.33.36.32.11-.02.21-.36.32-.36.12 0 .25.33.36.32.06 0 .27-.38.32-.36.12.05.27.23.36.32.11.09.28.2.36.32.05.07.36.24.37.32 0 .04-.34.34-.32.36.11.12.25.2.36.32l.64-.73c.11-.12.21-.24.32-.36.05-.06.25-.35.32-.37.05-.01.32.28.36.32.1.09.24.27.36.32.09.04.27.33.37.32.06 0 .27-.31.32-.36.08-.08.22-.33.32-.36.08-.03.28.33.37.32.1-.01.22-.37.32-.36.08.01.3.26.36.32.11.1.24.24.36.32.07.04.29.32.36.32.09-.01.23-.38.32-.36.07.01.31.34.36.32.1-.05.24-.28.32-.36.03-.03.3-.37.32-.37.11.04.27.24.36.32.09.08.31.21.36.32.03.06-.32.29-.32.36 0 .06.31.27.36.32.05.04.31.32.36.32.1-.01.23-.38.32-.36.11.01.27.26.36.32.13.08.25.22.37.32.12.11.24.21.36.32l-.64.73c-.08.09-.22.31-.32.36-.06.03-.29-.32-.36-.32-.1.01-.23.32-.32.36-.06.03-.29-.33-.37-.32-.08.01-.25.31-.32.36-.12.08-.23.26-.32.36-.05.06-.25.35-.32.36-.1.02-.26-.33-.36-.32-.05 0-.29.38-.32.36-.05-.03-.36-.27-.36-.32 0-.02.32-.37.32-.36-.09-.04-.28-.33-.36-.32-.1.01-.23.38-.32.36-.12-.02-.24-.32-.36-.32-.11 0-.21.36-.32.36-.12.01-.25-.31-.37-.32-.12-.01-.25-.33-.36-.32-.1.01-.23.38-.32.36-.13-.02-.24-.32-.36-.32-.11 0-.21.36-.32.36-.1.01-.27-.34-.37-.32-.08.02-.26.3-.32.36-.08.09-.22.31-.32.36-.06.03-.29-.32-.36-.32-.11.01-.21.36-.32.36-.11.01-.25-.33-.36-.32-.1.01-.23.38-.32.36-.06-.01-.33-.27-.36-.32-.03-.04.32-.31.32-.36 0-.03-.37-.31-.37-.32-.04.04-.32.31-.32.37.01.1.38.23.36.32-.02.13-.32.24-.32.36 0 .11.36.21.36.32.01.11-.29.26-.32.36-.02.11-.33.26-.32.36.01.07.38.26.36.32-.04.11-.24.28-.32.36-.11.12-.21.24-.32.36l.73.64c.11-.12.21-.24.32-.36.08-.09.22-.31.32-.36.06-.03.29.32.36.32.11-.01.21-.36.32-.36.11-.01.25.33.37.32.07 0 .26-.38.32-.36.11.03.27.24.36.32.03.03.33.33.36.32.09-.03.25-.29.32-.36.11-.12.21-.24.32-.36.11-.12.21-.24.32-.36.04-.05.26-.36.32-.36.02 0 .36.3.36.32.01.1-.34.27-.32.36.01.04.33.31.36.32.12.02.25.33.36.32.06 0 .27-.31.32-.36.06-.06.24-.35.32-.36.1-.02.26.33.36.32.1-.01.23-.38.32-.36.11.01.26.33.36.32.12-.02.2-.36.32-.36.09-.01.27.34.36.32.12-.03.2-.35.32-.36.11-.02.26.33.36.32.1-.01.22-.37.32-.36.12.01.25.33.36.32.07 0 .26-.38.32-.36.11.04.28.24.36.32.04.04.32.33.36.32.07-.01.27-.31.32-.36.11-.12.21-.24.32-.36.04-.05.27-.36.32-.36.07 0 .31.27.36.32.03.03.34.33.36.32.1-.04.25-.28.32-.36.11-.12.21-.24.32-.36.05-.06.25-.35.32-.36.1-.02.26.33.36.32.1-.01.23-.38.32-.36.06.01.33.27.36.32.03.04-.32.31-.32.36 0 .02.35.32.37.32.09-.03.25-.29.32-.36.11-.12.21-.24.32-.36.07-.08.22-.32.32-.36.07-.03.29.33.36.32.09-.01.23-.38.32-.36.04.01.34.34.36.32.12-.1.22-.25.32-.36.04-.04.33-.32.32-.36-.01-.06-.38-.27-.36-.32.05-.12.23-.27.32-.36.05-.06.25-.35.32-.36.11-.01.26.33.36.32.07 0 .26-.39.32-.36.11.04.28.24.37.32.06.06.29.31.36.32.1.01.22-.36.32-.36.1-.01.27.34.36.32.07-.02.25-.38.32-.36.1.02.29.25.36.32.12.11.24.21.37.32.08.07.26.29.36.32.07.02.24-.36.32-.36.1-.01.27.34.36.32.04-.01.3-.38.32-.36.05.03.36.27.36.32.01.11-.33.25-.32.36.01.11.36.21.36.32 0 .02-.32.37-.32.36.09.04.27.33.36.32.11-.01.21-.36.32-.36.11-.01.25.33.36.32.11-.01.21-.36.32-.36.11-.01.25.33.36.32.11-.01.21-.36.32-.36.11-.01.25.33.36.32.1-.01.22-.37.32-.36.03 0 .36.29.36.32.01.11-.3.25-.32.37-.11.03-.21.36-.32.36-.07.01-.31-.35-.36-.32-.11.05-.24.28-.32.36-.05.06-.25.36-.32.36-.05.01-.32-.28-.36-.32-.05-.04-.3-.32-.36-.32s-.28.31-.32.36c-.04.04-.27.37-.32.36-.08 0-.31-.27-.37-.32-.09-.08-.25-.28-.36-.32-.06-.02-.25.36-.32.36-.12.01-.25-.32-.36-.32-.11 0-.21.36-.32.36-.1.01-.27-.34-.36-.32-.04.01-.3.38-.32.36-.05-.04-.36-.26-.37-.32-.01-.11.33-.25.32-.36-.01-.11-.36-.21-.36-.32-.01-.11.33-.25.32-.36-.01-.12-.36-.2-.36-.32-.01-.1.34-.27.32-.36-.01-.04-.32-.31-.36-.32-.11-.02-.25-.33-.36-.32-.11.01-.21.33-.32.36-.11.03-.21.36-.32.36-.04 0-.34-.34-.36-.32-.04.04-.32.31-.32.36 0 .07.38.26.36.32-.04.11-.24.28-.32.36-.06.07-.23.34-.32.36-.04.01-.33-.29-.36-.32-.04-.04-.32-.33-.37-.32-.11.02-.21.36-.32.36-.12.01-.25-.33-.36-.32-.06 0-.28.32-.32.36-.04.06-.32.3-.32.36.01.08.31.25.36.32.08.12.26.23.36.32.12.11.24.21.36.32-.11.03-.21.36-.32.36-.11.01-.25-.33-.36-.32-.12.01-.21.36-.32.36-.11.01-.25-.33-.36-.32-.12.01-.2.36-.32.36-.1.01-.27-.34-.37-.32-.13.03-.2.31-.32.36-.13.06-.19.29-.32.36.11.02.25.33.36.32.1-.01.23-.38.32-.37.13.02.24.32.36.32.11 0 .21-.36.32-.36.11-.01.25.3.37.32-.11.12-.21.24-.32.36-.04.04-.27.37-.32.36-.12-.01-.24-.3-.36-.32-.12-.02-.25-.33-.36-.32-.07 0-.27.31-.32.36-.08.08-.22.33-.32.36-.08.03-.28-.33-.37-.32-.12.01-.2.35-.32.36-.1.02-.26-.33-.36-.32-.11.01-.21.36-.32.36-.11.01-.25-.33-.36-.32-.11.01-.21.36-.32.36-.12 0-.25-.33-.36-.32-.1.01-.23.38-.32.36-.12-.02-.24-.32-.36-.32s-.25-.33-.36-.32c-.07 0-.27.31-.32.36-.06.06-.24.35-.32.36-.11.02-.26-.33-.36-.32-.07 0-.26.38-.32.36-.11-.04-.28-.24-.37-.32-.04-.04-.32-.33-.36-.32-.07.01-.27.3-.32.36-.11.12-.21.24-.32.36-.05.06-.25.35-.32.36-.11.01-.26-.33-.37-.32-.11.01-.21.36-.32.36-.11.01-.25-.33-.36-.32-.1.01-.23.38-.32.36-.09-.01-.3-.26-.36-.32-.09-.08-.25-.28-.36-.32-.06-.02-.25.36-.32.36-.09.01-.29-.35-.37-.32-.09.03-.25.29-.32.36-.11.12-.21.24-.32.36-.04.04-.27.36-.32.36-.07 0-.31-.27-.36-.32-.04-.04-.31-.33-.36-.32-.11.02-.21.36-.32.36-.12 0-.25-.33-.37-.32-.05 0-.29.38-.32.37-.05-.03-.36-.27-.36-.32-.01-.1.34-.27.32-.36-.01-.03-.34-.32-.36-.32-.06 0-.28.31-.32.36-.11.12-.21.24-.32.36-.11.12-.21.24-.32.36-.08.09-.22.32-.32.36-.02.01-.33-.29-.36-.32-.04-.04-.31-.33-.36-.32-.12.02-.2.35-.32.36-.12.02-.2.36-.32.36-.1.01-.27-.34-.36-.32-.09.02-.23.37-.32.36-.08-.01-.3-.26-.37-.32-.04-.04-.31-.33-.36-.32-.06.01-.27.38-.32.36-.12-.05-.27-.24-.36-.32-.05-.05-.3-.32-.36-.32-.11.01-.25-.33-.36-.32-.08.01-.25.31-.32.36-.12.08-.23.26-.32.36-.07.08-.22.32-.32.36-.07.03-.29-.33-.36-.32-.1.01-.23.38-.32.36-.07-.01-.31-.34-.36-.32-.1.05-.24.28-.32.36-.04.05-.27.36-.32.36-.07 0-.31-.27-.36-.32-.11-.09-.24-.26-.36-.32-.08-.04-.28-.33-.36-.32-.09.01-.23.38-.32.36-.11-.02-.25-.33-.36-.32-.1.01-.23.38-.32.37-.1-.01-.27-.26-.36-.32-.13-.08-.25-.22-.37-.32-.09-.08-.31-.22-.36-.32-.03-.06.33-.29.32-.36-.01-.08-.31-.25-.36-.32-.1-.13-.26-.2-.37-.32-.11.12-.21.24-.32.36-.04.05-.26.36-.32.36s-.31-.28-.36-.32c-.04-.04-.32-.33-.36-.32-.08.02-.26.3-.32.36-.04.04-.27.37-.32.36-.07 0-.3-.35-.36-.32-.1.04-.25.28-.32.36-.04.04-.27.37-.32.36-.12 0-.24-.29-.36-.32-.02.12-.32.24-.32.36 0-.11-.36-.21-.37-.32 0-.06.28-.31.32-.36.03-.04.33-.32.32-.36-.02-.08-.3-.26-.36-.32-.12-.11-.25-.21-.36-.32-.11-.11-.25-.21-.36-.32-.11.12-.21.25-.32.36-.05.05-.25.36-.32.37-.05 0-.33-.35-.36-.32-.12.08-.23.26-.32.36-.11.12-.21.24-.32.36-.11.12-.21.24-.32.36l-.64.73c-.05.06-.25.35-.32.36-.02 0-.36-.3-.36-.32-.01-.06.28-.31.32-.36.03-.04.33-.33.32-.36-.02-.04-.32-.31-.37-.32-.09-.01-.22.36-.32.36-.11.01-.25-.3-.36-.32-.11.12-.21.24-.32.36-.08.09-.28.25-.32.36-.02.06.36.25.36.32.01.11-.3.25-.32.36-.02.08.36.24.37.32 0 .06-.28.31-.32.36-.1.12-.21.26-.32.36-.01.01-.33-.31-.36-.32-.13-.03-.23-.3-.36-.32-.12-.01-.25-.33-.36-.32-.11.01-.21.36-.32.36-.11.01-.25-.33-.37-.32-.1.01-.22.37-.32.36-.12-.01-.25-.33-.36-.32-.07.01-.26.39-.32.36-.11-.04-.28-.24-.36-.32-.06-.05-.29-.32-.36-.32-.11 0-.21.36-.32.36-.07 0-.3-.35-.36-.32-.11.05-.24.27-.32.36-.05.05-.26.36-.32.36-.06.01-.32-.28-.36-.32-.04-.04-.32-.33-.36-.32-.11.02-.21.36-.32.36-.12.01-.25-.33-.37-.32-.11.01-.21.36-.32.36-.12 0-.25-.33-.36-.32-.11.01-.21.36-.32.36-.11.01-.25-.33-.36-.32-.09.01-.23.38-.32.36-.03-.01-.36-.29-.36-.32 0-.05.34-.33.32-.36-.03-.04-.32-.32-.36-.32-.08.01-.24.38-.32.36-.11-.02-.26-.33-.36-.32-.1.01-.23.38-.32.36-.12-.02-.25-.32-.36-.32-.02 0-.32.34-.32.36 0 .02.35.32.36.32-.11.03-.21.36-.32.36-.07 0-.31-.28-.36-.32-.04-.03-.32-.33-.37-.32-.08.02-.26.3-.32.36-.04.05-.26.36-.32.36-.12 0-.25-.33-.36-.32-.07 0-.26.38-.32.36-.11-.04-.28-.24-.36-.32-.06-.05-.29-.31-.36-.32-.1-.01-.22.36-.32.36-.07.01-.3-.35-.37-.32-.1.05-.24.28-.32.36-.05.06-.25.36-.32.36-.05.01-.32-.28-.36-.32-.04-.04-.32-.33-.36-.32-.12.02-.2.36-.32.36-.11.01-.25-.33-.36-.32-.07 0-.27.31-.32.36-.05.05-.26.36-.32.36-.07 0-.31-.27-.36-.32-.06-.05-.3-.32-.36-.32-.12 0-.25-.33-.36-.32-.11.01-.21.36-.32.36-.11.01-.25-.33-.36-.32-.11.01-.21.33-.32.36-.11.03-.21.36-.32.36-.1.01-.27-.34-.36-.32-.11.03-.21.36-.32.36-.12 0-.25-.33-.36-.32-.1.01-.23.38-.32.36-.14-.02-.23-.29-.37-.32-.11-.02-.26-.33-.36-.32-.1.01-.23.38-.32.36-.11-.01-.26-.33-.36-.32-.07.01-.27.31-.32.36-.11.12-.21.24-.32.36-.08.09-.21.31-.32.36-.06.03-.29-.32-.36-.32-.11.01-.21.36-.32.36-.11.01-.25-.33-.37-.32-.11.01-.21.33-.32.36-.11.03-.21.36-.32.36-.1.01-.27-.34-.36-.32-.12.03-.2.35-.32.36-.06.01-.32-.28-.36-.32-.05-.05-.3-.32-.36-.32-.12 0-.25-.33-.36-.32-.11.01-.21.33-.32.36-.11.03-.21.36-.32.36-.1.01-.27-.34-.37-.32-.11.02-.2.36-.32.36-.1.01-.27-.34-.36-.32-.1.03-.23.37-.32.36-.08 0-.3-.27-.36-.32-.08-.07-.26-.29-.36-.32-.11-.03-.26-.33-.36-.32-.07 0-.27.31-.32.36-.04.04-.28.37-.32.36-.09-.01-.3-.26-.36-.32-.12-.11-.24-.21-.37-.32-.05-.05-.3-.32-.36-.32s-.28.32-.32.37c-.11.12-.21.24-.32.36-.11.12-.21.24-.32.36-.06.07-.23.34-.32.37-.08.03-.27-.33-.36-.32-.11.01-.21.36-.32.36-.11.01-.25-.33-.36-.32-.11.01-.21.36-.32.36-.07 0-.31-.27-.36-.32-.05-.04-.3-.32-.36-.32s-.28.31-.32.36c-.03.04-.28.37-.32.36-.03 0-.36-.29-.36-.32 0-.02.3-.36.32-.36-.12 0-.25-.33-.37-.32-.1.01-.23.38-.32.36-.13-.02-.24-.32-.36-.32-.11 0-.21.36-.32.36-.07 0-.31-.35-.36-.32-.11.05-.24.27-.32.36-.11.12-.21.24-.32.36-.04.05-.26.36-.32.36-.12 0-.25-.33-.36-.32-.1.01-.23.38-.32.36-.06-.01-.33-.27-.36-.32-.03-.04.32-.31.32-.36 0-.03-.33-.32-.36-.32-.04-.01-.29.33-.32.36-.11.12-.21.24-.32.36-.06.07-.23.34-.32.36-.04.01-.33-.29-.37-.32-.04-.04-.32-.33-.36-.32-.06.01-.27.38-.32.36-.12-.05-.27-.23-.37-.32-.04-.04-.32-.33-.36-.32-.07.01-.27.3-.32.36-.08.09-.21.31-.32.36-.06.03-.29-.32-.36-.32-.1.01-.23.32-.32.36-.09.04-.22.36-.32.36-.07 0-.3-.35-.36-.32-.11.05-.24.28-.32.36-.04.05-.26.36-.32.36s-.31-.28-.36-.32c-.1-.09-.24-.27-.36-.32-.09-.04-.27-.33-.36-.32-.06 0-.27.31-.32.36-.08.08-.22.33-.32.36-.08.03-.28-.33-.36-.32-.11.01-.21.36-.32.36-.06 0-.31-.27-.36-.32-.06-.05-.29-.32-.36-.32-.12 0-.25-.33-.36-.32-.11.01-.21.33-.32.36-.11.03-.21.36-.32.36-.1.01-.27-.34-.36-.32-.12.03-.2.36-.32.36-.1.01-.27-.34-.37-.32-.09.02-.23.37-.32.36-.08-.01-.3-.26-.36-.32-.12-.11-.24-.21-.36-.32-.05-.04-.31-.33-.37-.32-.07.01-.27.31-.32.36-.11.12-.21.24-.32.37-.08.09-.21.31-.32.36-.05.03-.3-.32-.36-.32-.1.01-.23.38-.32.36-.1-.01-.28-.34-.36-.32-.08.02-.27.3-.32.36-.04.04-.27.37-.32.36-.13 0-.24-.3-.36-.32l-.64.73-.73-.64.64-.73c.05-.05.32-.3.32-.36 0-.11-.34-.21-.36-.32l-.64.73c-.08.09-.21.31-.32.36-.06.03-.3-.33-.36-.32-.1.01-.23.38-.32.36-.13-.02-.24-.32-.36-.32-.11 0-.21.36-.32.36-.09.01-.28-.35-.36-.32-.09.03-.26.29-.32.36-.09.11-.2.28-.32.36-.07.05-.24.36-.32.36-.11.01-.25-.3-.36-.32-.09.01-.24.38-.32.36-.03-.01-.36-.29-.36-.32-.01-.11.33-.25.32-.36-.01-.11-.36-.21-.36-.32 0-.04.34-.34.32-.36-.03-.04-.32-.32-.36-.32-.1.01-.23.38-.32.36-.13-.02-.23-.28-.36-.32-.11.12-.21.24-.32.36-.04.04-.33.31-.32.36.01.04.38.3.36.32-.04.05-.27.36-.32.36-.07 0-.3-.35-.36-.32-.1.05-.24.27-.32.36-.05.06-.24.35-.32.36-.1.02-.26-.33-.36-.32-.1.01-.23.38-.32.36-.1-.01-.27-.34-.36-.32-.03.01-.32.34-.32.36 0 .02.35.32.36.32-.11.03-.21.36-.32.36-.02 0-.37-.3-.36-.32 0-.03.32-.36.32-.36-.1-.06-.25-.31-.36-.32-.09-.01-.22.36-.32.36-.12.01-.25-.31-.36-.32-.12-.01-.25-.33-.36-.32-.07 0-.27.31-.32.36-.04.04-.27.37-.32.36-.08-.01-.3-.26-.36-.32-.03-.03-.34-.33-.36-.32-.1.04-.25.28-.32.36-.11.12-.21.24-.32.36-.15.35-.37.59-.58.84zm3.07-5.7c.07.13.3.19.36.32.03.06-.32.29-.32.36 0 .06.32.28.36.32.02.02.28-.36.32-.36.08-.01.29.28.36.32.13.07.26.23.36.32.05.05.3.32.36.32s.28-.32.32-.36c.08-.1.21-.3.32-.36.05-.03.3.32.36.32.08-.01.25-.31.32-.36.12-.08.23-.26.32-.36.11-.12.21-.24.32-.36l-.73-.64c-.11.12-.21.25-.32.36-.05.05-.26.36-.32.36-.08.01-.3-.35-.36-.32-.11.05-.24.28-.32.36-.05.05-.26.36-.32.36-.11.01-.25-.33-.36-.32-.07 0-.31-.28-.36-.32-.06-.04-.3-.32-.36-.32-.1 0-.2.35-.31.36-.12.01-.25-.31-.36-.32-.02 0-.32.34-.32.36.01.11.34.21.36.32.11-.12.21-.24.32-.36zm4.51.74c0 .07-.35.31-.32.36.05.1.27.25.36.32.06.04.3.33.36.32.05 0 .29-.32.32-.36.01-.01-.35-.29-.36-.32.11-.12.21-.24.32-.36l.64-.73c.12.02.25.33.36.32.1-.01.23-.38.32-.36.07.01.32.26.36.32.02.03-.32.32-.32.36.01.11.36.21.36.32.01.11-.33.25-.32.36.01.11.33.21.36.32-.02-.09.32-.27.32-.36.11-.12.21-.24.32-.36.04-.04.33-.32.32-.36-.02-.12-.32-.2-.37-.32.02-.12.33-.25.32-.36 0-.04-.32-.3-.36-.32-.05-.02-.26.36-.32.36-.07 0-.31-.28-.36-.32-.06-.05-.3-.32-.36-.32s-.27.32-.32.37c-.05.05-.26.36-.32.36-.09 0-.29-.35-.36-.32-.11.04-.21.36-.32.36-.07 0-.31-.35-.36-.32-.11.05-.24.28-.32.36-.11.12-.21.24-.32.36.04.11.37.21.37.32zm9.27-.25c.03 0 .31-.33.32-.36 0-.01-.34-.32-.36-.32-.09-.01-.22.36-.32.36-.12.01-.25-.32-.36-.32-.12 0-.25-.33-.36-.32-.02 0-.32.34-.32.36 0 .06.31.28.36.32.08.07.26.29.36.32.07.02.24-.38.32-.36.11.02.25.32.36.32zm3.43-5.38c.11-.01.21-.33.32-.36.13.04.23.3.36.32.09.01.22-.36.32-.36.08-.01.3.35.36.32.1-.04.25-.28.32-.36.11-.12.21-.24.32-.36.05-.06.24-.35.32-.36.05-.01.32.28.36.32.06.05.29.31.36.32.05 0 .28-.32.32-.36.04-.05.26-.36.32-.36s.32.28.37.32c.12.11.24.21.36.32l.64-.73-.73-.64c-.12-.02-.24-.32-.36-.32-.05 0-.28.32-.32.36-.07.08-.22.32-.32.36-.1.04-.22.36-.32.36-.11.01-.25-.33-.36-.32-.11.01-.21.36-.32.36-.09.01-.28-.28-.36-.32-.12-.06-.26-.23-.36-.32-.12-.11-.24-.21-.36-.32-.07-.06-.27-.3-.36-.32-.03-.01-.29.33-.32.36-.04.06-.32.3-.32.36.01.11.33.21.36.32-.11.12-.21.24-.32.36l-.64.73c.11.01.25.33.36.32zm8.49-1.58c.11-.12.21-.24.32-.36.08-.08.29-.26.32-.36.01-.03-.33-.29-.36-.32-.05-.05-.36-.26-.36-.32 0-.07.28-.31.32-.36.1-.13.22-.24.32-.36-.12-.11-.24-.21-.36-.32-.06-.05-.29-.32-.36-.32-.02 0-.32.34-.32.36-.01.09.36.22.36.32.01.1-.29.26-.32.36-.02.07.36.24.36.32.01.11-.32.25-.32.36.01.11.35.21.36.32.01.05-.28.32-.32.36-.11.12-.21.24-.32.37-.05-.13-.33-.19-.36-.32-.02-.09.33-.27.32-.36 0-.03-.33-.32-.36-.32-.04 0-.29.33-.32.36-.11.12-.21.24-.32.36-.09.1-.2.29-.32.36-.04.02-.31-.32-.37-.32-.05 0-.28.32-.32.36-.11.12-.21.24-.32.36.13.04.23.29.36.32.08.02.23-.36.32-.36.11-.01.25.33.36.32.11-.01.21-.36.32-.36.1-.01.26.29.36.32.11.03.27.25.36.32.06.04.3.32.36.32.1-.01.23-.38.32-.36-.13-.02-.23-.28-.36-.32.22-.24.44-.49.65-.73zm7.94.52l.64-.73c.12.11.24.21.36.32.11-.12.21-.24.32-.36.11-.12.21-.24.32-.36.05-.06.32-.29.32-.36 0-.02-.34-.32-.36-.32-.08.01-.25.31-.32.36-.12.08-.23.26-.32.36-.11.12-.21.24-.32.36-.12-.11-.24-.21-.36-.32-.05-.04-.3-.32-.36-.32s-.28.31-.32.36c-.11.12-.21.24-.32.36.23.22.48.43.72.65zm27.92 1.29c-.02-.09.33-.27.32-.36 0-.05-.32-.29-.36-.32-.01-.01-.3.34-.32.36-.05.05-.25.36-.32.36-.09.01-.27-.28-.36-.32 0 0 .32-.34.32-.36 0-.06-.31-.28-.36-.32-.05-.04-.3-.32-.36-.32-.11.01-.21.34-.32.36.12.11.24.21.36.32.09.08.31.21.36.32.03.06-.33.29-.32.36 0 .05.32.29.36.32.06.04.29.32.36.32.11-.01.21-.36.32-.36.11-.01.25.33.36.32.11-.01.21-.33.32-.36-.05-.13-.32-.19-.36-.32zm8.94.11c.11-.12.21-.24.32-.36-.12-.11-.24-.21-.36-.32-.11-.1-.24-.24-.36-.32-.1-.06-.26-.31-.36-.32-.09-.01-.22.36-.32.36-.11.01-.25-.3-.36-.32-.11.12-.21.24-.32.36-.1.11-.24.24-.32.36-.06.1-.31.26-.32.37-.01.09.36.22.36.32.01.11-.3.25-.32.36l.73.64c.1-.13.22-.24.32-.36.04-.06.33-.3.32-.36 0-.04-.38-.29-.37-.32.08-.12.22-.26.32-.36.05-.05.25-.36.32-.36.11-.01.26.29.36.32.04 0 .36.28.36.31 0 .05-.34.33-.32.36.03.04.32.32.36.32.11-.01.21-.33.32-.36-.11-.11-.23-.21-.36-.32z"/><path class="st0" d="M110.84 5.6c.11-.01.25.33.36.32.1-.01.22-.32.32-.36.1-.05.25-.28.32-.36.04-.04.27-.37.32-.36.12 0 .24.3.36.32l.73.64-.64.73c-.12-.11-.24-.21-.36-.32-.05-.04-.3-.32-.37-.32-.06 0-.28.31-.32.36-.04.04-.27.37-.32.36-.08-.01-.3-.27-.36-.32-.04-.04-.32-.33-.36-.32-.08.01-.27.3-.32.36-.11.12-.21.24-.32.36-.07.08-.22.32-.32.36-.07.03-.29-.33-.36-.32-.1.01-.23.38-.32.36-.13-.02-.23-.28-.36-.32-.11.03-.21.36-.32.36-.11.01-.25-.31-.36-.32l.64-.73c.11-.12.21-.24.32-.36-.03-.11-.36-.21-.36-.32 0-.06.28-.31.32-.36.03-.04.29-.37.32-.36.09.02.29.26.36.32.12.11.24.21.36.32.1.09.24.26.36.32m5.88.66c.13.03.23.3.36.32-.09-.01-.22.36-.32.36-.06 0-.31-.28-.36-.32-.09-.08-.25-.29-.36-.32-.1-.03-.26-.33-.36-.32-.11.01-.21.36-.32.36-.11.01-.25-.33-.36-.32-.09.01-.24.38-.32.36-.14-.03-.23-.28-.36-.32.11-.12.21-.24.32-.36.04-.04.27-.37.32-.36.05 0 .33.34.37.32.12-.08.23-.26.32-.36.11-.12.21-.24.32-.36.03-.04.28-.37.32-.36.03 0 .36.29.36.32.01.1-.34.27-.32.36.04.13.31.19.36.32.11-.12.21-.24.32-.37.04-.04.33-.31.32-.36-.02-.11-.36-.21-.36-.32 0-.12.33-.25.32-.36 0-.08-.38-.25-.36-.32.03-.11.33-.26.32-.36-.01-.1-.38-.23-.36-.32 0-.03.3-.36.32-.36.07 0 .31.27.36.32.12.11.24.21.36.32-.1.13-.22.24-.32.36-.04.06-.33.3-.32.36.01.06.31.27.36.32.03.03.37.29.36.32-.03.11-.24.28-.32.36-.11.12-.21.24-.32.36-.22.24-.44.49-.65.73zm45.81 1.51c-.11.03-.21.36-.32.36-.05 0-.33-.28-.36-.32-.02-.03.32-.32.32-.36 0-.03-.33-.31-.36-.32-.1-.03-.26-.33-.36-.32-.07 0-.27.31-.32.36-.1.11-.24.24-.32.36-.02.03.36.27.37.32 0 .07-.28.31-.32.36-.1.13-.22.24-.32.36l-.73-.64c.02-.11.33-.25.32-.36-.01-.1-.38-.23-.36-.32.01-.11.26-.27.32-.37.08-.13.22-.25.32-.36.11-.12.21-.24.32-.36.11.01.25.33.36.32.1-.01.23-.38.32-.36.11.02.27.26.36.32.13.08.25.22.36.32.12.11.24.21.36.32-.11.12-.21.24-.32.36.12.12.24.22.36.33z"/></svg>