<?xml version="1.0" encoding="utf-8"?>
<!-- Generator: Adobe Illustrator 24.0.0, SVG Export Plug-In . SVG Version: 6.00 Build 0)  -->
<svg version="1.1" id="Layer_1" xmlns="http://www.w3.org/2000/svg" xmlns:xlink="http://www.w3.org/1999/xlink" x="0px" y="0px"
	 viewBox="0 0 200 20" style="enable-background:new 0 0 200 20;" xml:space="preserve">
<style type="text/css">
	.st0{fill-rule:evenodd;clip-rule:evenodd;fill:#D3CC76;}
</style>
<g>
	<path class="st0" d="M11.94,17.49c0.11-0.12,0.21-0.24,0.32-0.36c0.08-0.09,0.22-0.31,0.32-0.36c0.06-0.03,0.29,0.32,0.36,0.32
		c0.07-0.01,0.26-0.39,0.32-0.37c0.11,0.03,0.28,0.24,0.37,0.32c0.05,0.04,0.36,0.26,0.36,0.32c0,0.06-0.28,0.31-0.32,0.36
		c-0.11,0.12-0.21,0.24-0.32,0.36c-0.04,0.05-0.26,0.36-0.32,0.36c-0.06,0-0.31-0.28-0.36-0.32C12.43,17.91,12.18,17.7,11.94,17.49z
		"/>
	<path class="st0" d="M78.76,9.05c-0.03-0.11-0.36-0.21-0.36-0.32c0-0.06,0.28-0.31,0.32-0.36c0.1-0.13,0.22-0.24,0.32-0.36
		c0.1-0.13,0.21-0.24,0.32-0.36c0.08-0.09,0.21-0.31,0.32-0.36c0.06-0.03,0.29,0.32,0.36,0.32c0.11-0.01,0.21-0.33,0.32-0.36
		c0.03,0.11,0.36,0.21,0.37,0.32c0.01,0.11-0.33,0.25-0.32,0.36c0.01,0.11,0.36,0.21,0.36,0.32c0,0.06-0.28,0.31-0.32,0.36
		c-0.04,0.05-0.26,0.36-0.32,0.36c-0.1,0.01-0.27-0.34-0.36-0.32c-0.1,0.03-0.22,0.37-0.32,0.36C79.32,9,79.2,8.71,79.08,8.69
		C78.97,8.81,78.86,8.93,78.76,9.05z"/>
	<path class="st0" d="M85.55,13.08c0.02-0.11,0.33-0.25,0.32-0.36c-0.01-0.11-0.33-0.21-0.36-0.32c0.11-0.12,0.21-0.24,0.32-0.36
		c0.05-0.06,0.25-0.35,0.32-0.36c0.02,0,0.36,0.3,0.36,0.32c0.01,0.1-0.34,0.27-0.32,0.36c0.02,0.07,0.38,0.25,0.36,0.32
		c-0.03,0.14-0.28,0.23-0.32,0.36c-0.11,0.03-0.21,0.36-0.32,0.36C85.8,13.41,85.66,13.09,85.55,13.08z"/>
	<path class="st0" d="M99.56,11.83c0.24,0.21,0.49,0.43,0.73,0.64c-0.21,0.24-0.43,0.49-0.64,0.73c-0.12-0.11-0.24-0.21-0.36-0.32
		c-0.05-0.04-0.36-0.26-0.36-0.32c-0.01-0.06,0.28-0.31,0.32-0.36C99.34,12.07,99.45,11.95,99.56,11.83z"/>
	<path class="st0" d="M94.46,7.35c0.1-0.13,0.22-0.24,0.32-0.36c0.04-0.06,0.32-0.3,0.32-0.36c-0.01-0.11-0.33-0.21-0.36-0.32
		c0.11-0.03,0.21-0.36,0.32-0.36c0.11-0.01,0.25,0.31,0.36,0.32c0.11-0.03,0.21-0.36,0.32-0.36c0.02,0,0.36,0.3,0.36,0.32
		c0.01,0.1-0.35,0.27-0.32,0.36c0.04,0.13,0.31,0.2,0.36,0.32c-0.11,0.03-0.21,0.36-0.32,0.36c-0.1,0.01-0.27-0.34-0.36-0.32
		c-0.13,0.04-0.2,0.31-0.32,0.36c-0.11,0.03-0.21,0.36-0.32,0.36C94.71,7.68,94.57,7.36,94.46,7.35z"/>
	<path class="st0" d="M101.66,12.38c0.11-0.12,0.21-0.24,0.32-0.36c0.02-0.03,0.31-0.37,0.32-0.36c0.05,0.03,0.36,0.27,0.36,0.32
		c0,0.08-0.28,0.29-0.32,0.36c-0.06,0.13-0.23,0.26-0.32,0.36c-0.04,0.05-0.26,0.36-0.32,0.36c-0.06,0-0.31-0.28-0.36-0.32
		c-0.04-0.04-0.37-0.27-0.36-0.32c0-0.03,0.29-0.36,0.32-0.36C101.41,12.06,101.54,12.37,101.66,12.38z"/>
	<path class="st0" d="M106.81,12.39c-0.04,0.05-0.26,0.36-0.32,0.36c-0.06,0-0.31-0.28-0.36-0.32c-0.06-0.05-0.35-0.25-0.36-0.32
		c-0.01-0.05,0.28-0.32,0.32-0.36c0.05-0.06,0.25-0.35,0.32-0.36c0.05-0.01,0.32,0.28,0.36,0.32c0.04,0.04,0.37,0.27,0.37,0.32
		C107.13,12.1,106.86,12.34,106.81,12.39z"/>
	<path class="st0" d="M103.63,5.73c0.21-0.24,0.43-0.49,0.64-0.73c0.06-0.07,0.23-0.34,0.32-0.36c0.05-0.01,0.32,0.29,0.36,0.32
		c0.07,0.04,0.29,0.32,0.36,0.32c0.1-0.01,0.23-0.38,0.32-0.36c0.13,0.02,0.23,0.28,0.36,0.32c-0.02,0.12-0.33,0.25-0.32,0.36
		c0,0.03,0.37,0.31,0.36,0.32c-0.05,0.05-0.25,0.36-0.32,0.36c-0.06,0-0.31-0.28-0.36-0.32c-0.09-0.07-0.26-0.3-0.36-0.32
		C104.92,5.62,104.76,6,104.68,6c-0.11,0.01-0.25-0.33-0.36-0.32c-0.12,0.01-0.2,0.33-0.32,0.36c-0.12,0.04-0.2,0.34-0.32,0.36
		c-0.02,0-0.36-0.3-0.36-0.32C103.3,5.98,103.62,5.84,103.63,5.73z"/>
	<path class="st0" d="M111.6,12.08c-0.11,0.03-0.21,0.36-0.32,0.36c-0.06,0-0.31-0.28-0.36-0.32c-0.05-0.04-0.36-0.26-0.36-0.32
		c-0.01-0.11,0.3-0.25,0.32-0.36c0.11-0.03,0.21-0.36,0.32-0.36c0.05,0,0.33,0.28,0.36,0.32c0.02,0.03-0.32,0.32-0.32,0.36
		C111.25,11.88,111.57,11.97,111.6,12.08z"/>
	<path class="st0" d="M118.82,6.81c-0.12-0.11-0.24-0.21-0.36-0.32c-0.04-0.04-0.37-0.27-0.36-0.32c0-0.12,0.3-0.24,0.32-0.36
		c0.11-0.12,0.21-0.24,0.32-0.36c0.04-0.04,0.27-0.37,0.32-0.36c0.12,0,0.24,0.3,0.36,0.32c-0.02,0.12-0.33,0.25-0.32,0.36
		c0,0.07,0.38,0.26,0.36,0.32c-0.04,0.11-0.24,0.28-0.32,0.36C119.04,6.56,118.93,6.69,118.82,6.81z"/>
	<path class="st0" d="M120.51,6.35c0.02-0.11,0.33-0.25,0.32-0.36c-0.01-0.11-0.36-0.21-0.36-0.32c-0.01-0.11,0.33-0.25,0.32-0.36
		c-0.01-0.07-0.39-0.26-0.37-0.32c0.04-0.11,0.24-0.27,0.32-0.36c0.21-0.24,0.43-0.49,0.64-0.73c0.07-0.08,0.22-0.33,0.32-0.36
		c0.01,0,0.36,0.3,0.36,0.32c0.01,0.11-0.3,0.25-0.32,0.36c0.03,0.11,0.36,0.21,0.36,0.32c0.01,0.07-0.28,0.31-0.32,0.37
		c-0.08,0.1-0.27,0.24-0.32,0.36c-0.04,0.09-0.33,0.27-0.32,0.36c0.01,0.07,0.38,0.26,0.36,0.32c-0.04,0.11-0.24,0.28-0.32,0.36
		c-0.1,0.11-0.2,0.28-0.32,0.36C120.85,6.69,120.56,6.36,120.51,6.35z"/>
	<path class="st0" d="M121.84,5.58c0.11-0.12,0.21-0.24,0.32-0.36c0.04-0.04,0.27-0.37,0.32-0.36c0.1,0,0.27,0.27,0.36,0.32
		c0.13,0.06,0.26,0.23,0.36,0.32c0.12,0.11,0.24,0.21,0.37,0.32c-0.11,0.03-0.21,0.36-0.32,0.36c-0.1,0.01-0.27-0.34-0.36-0.32
		c-0.06,0.02-0.26,0.38-0.32,0.36c-0.11-0.03-0.28-0.24-0.36-0.32C122.08,5.79,121.96,5.69,121.84,5.58z"/>
	<path class="st0" d="M133.46,9.99c-0.11,0.03-0.21,0.36-0.32,0.36c-0.06,0-0.31-0.28-0.36-0.32c-0.05-0.04-0.36-0.26-0.37-0.32
		c-0.01-0.11,0.3-0.25,0.32-0.36c0.11-0.03,0.21-0.36,0.32-0.36c0.05,0,0.33,0.28,0.36,0.32c0.02,0.03-0.32,0.32-0.32,0.36
		C133.11,9.78,133.43,9.87,133.46,9.99z"/>
	<path class="st0" d="M156.28,6.79c-0.02,0.11-0.33,0.25-0.32,0.36c0.01,0.07,0.38,0.26,0.36,0.32c-0.04,0.11-0.24,0.28-0.32,0.36
		c-0.08,0.1-0.21,0.3-0.32,0.36c-0.05,0.03-0.3-0.33-0.37-0.32c-0.11,0.01-0.21,0.33-0.32,0.36c-0.12-0.11-0.24-0.21-0.36-0.32
		c-0.05-0.04-0.36-0.26-0.36-0.32c0-0.06,0.28-0.32,0.32-0.36c0.11-0.12,0.21-0.24,0.32-0.36c0.08-0.09,0.21-0.31,0.32-0.36
		c0.06-0.03,0.29,0.32,0.36,0.32c0.1-0.01,0.23-0.38,0.32-0.36C156.05,6.49,156.15,6.76,156.28,6.79z"/>
	<path class="st0" d="M154.87,6.2c-0.04,0.05-0.26,0.36-0.32,0.36c-0.06,0.01-0.31-0.28-0.37-0.32c-0.05-0.05-0.35-0.25-0.36-0.32
		c-0.01-0.05,0.28-0.32,0.32-0.36c0.05-0.06,0.25-0.35,0.32-0.36c0.05-0.01,0.32,0.28,0.36,0.32c0.04,0.04,0.37,0.27,0.36,0.32
		C155.19,5.91,154.92,6.14,154.87,6.2z"/>
	<path class="st0" d="M163.17,7.04c0.24,0.21,0.49,0.43,0.73,0.64c0.05,0.05,0.36,0.26,0.36,0.32c0.01,0.11-0.31,0.25-0.32,0.36
		c-0.12-0.11-0.24-0.21-0.36-0.32c-0.09-0.08-0.25-0.28-0.36-0.32c-0.06-0.02-0.25,0.36-0.32,0.36c-0.11,0.01-0.25-0.3-0.36-0.32
		c0.02-0.11,0.33-0.25,0.32-0.36c0-0.07-0.38-0.26-0.36-0.32c0.04-0.11,0.24-0.28,0.32-0.36c0.04-0.04,0.27-0.37,0.32-0.36
		c0.03,0,0.36,0.29,0.36,0.32C163.5,6.79,163.19,6.92,163.17,7.04z"/>
	<path class="st0" d="M165.68,8.59c-0.12-0.11-0.24-0.21-0.36-0.32c-0.04-0.04-0.37-0.27-0.37-0.32c0.01-0.13,0.3-0.24,0.32-0.36
		c0.11-0.03,0.21-0.36,0.32-0.36c0.02,0,0.37,0.3,0.36,0.32c-0.01,0.12-0.33,0.25-0.32,0.36c0.01,0.12,0.36,0.2,0.36,0.32
		C166.01,8.34,165.69,8.48,165.68,8.59z"/>
	<path class="st0" d="M186.36,4.17c0.12,0.11,0.24,0.21,0.36,0.32c0.09,0.08,0.32,0.22,0.37,0.32c0.03,0.06-0.33,0.29-0.32,0.36
		c0,0.04,0.32,0.3,0.36,0.32c0.09,0.04,0.27,0.33,0.37,0.32c0.06,0,0.27-0.31,0.32-0.36c0.09-0.09,0.21-0.31,0.32-0.36
		c0.09-0.05,0.22-0.36,0.32-0.36c0.11-0.01,0.26,0.33,0.36,0.32c0.12-0.02,0.2-0.36,0.32-0.36c0.11-0.01,0.25,0.3,0.36,0.32
		c0.12,0.02,0.25,0.33,0.37,0.32c0.11-0.01,0.21-0.36,0.32-0.36c0.02,0,0.36,0.3,0.37,0.32c0.01,0.11-0.3,0.25-0.32,0.36
		c-0.11,0.12-0.21,0.24-0.32,0.36c-0.11,0.12-0.21,0.24-0.32,0.36c-0.07,0.08-0.23,0.33-0.32,0.36c-0.03,0.01-0.33-0.29-0.36-0.32
		c-0.05-0.04-0.3-0.32-0.36-0.32c-0.06,0-0.28,0.31-0.32,0.36c-0.04,0.05-0.27,0.36-0.32,0.36c-0.07,0-0.31-0.27-0.36-0.32
		c-0.04-0.04-0.31-0.33-0.36-0.32c-0.05,0.01-0.29,0.38-0.32,0.36c-0.13-0.08-0.25-0.22-0.36-0.32c-0.12-0.11-0.24-0.21-0.36-0.32
		c-0.04-0.04-0.37-0.27-0.36-0.32c0-0.12,0.33-0.25,0.32-0.36c-0.01-0.11-0.36-0.21-0.36-0.32c-0.01-0.11,0.3-0.25,0.32-0.36
		C186.14,4.41,186.25,4.29,186.36,4.17z"/>
	<path class="st0" d="M87.91,17.74c-0.12-0.02-0.25-0.33-0.36-0.32c-0.05,0-0.29,0.38-0.32,0.36c-0.05-0.03-0.36-0.27-0.36-0.32
		c0-0.07,0.28-0.31,0.32-0.37c0.06-0.08,0.31-0.27,0.32-0.36c0.01-0.09-0.35-0.23-0.36-0.32c-0.11,0.12-0.21,0.24-0.32,0.36
		c-0.08,0.09-0.21,0.31-0.32,0.36c-0.06,0.03-0.29-0.32-0.36-0.32c-0.1,0.01-0.22,0.32-0.32,0.36c-0.06,0.03-0.29-0.33-0.36-0.32
		c-0.08,0.01-0.25,0.31-0.32,0.36c-0.12,0.08-0.23,0.26-0.32,0.36c-0.05,0.06-0.25,0.35-0.32,0.36c-0.05,0.01-0.32-0.28-0.36-0.32
		c-0.1-0.09-0.24-0.26-0.36-0.32c-0.08-0.04-0.28-0.33-0.36-0.32c-0.08,0.01-0.25,0.31-0.32,0.36c-0.12,0.08-0.23,0.26-0.32,0.36
		c-0.04,0.05-0.27,0.36-0.32,0.36c-0.07,0-0.31-0.27-0.36-0.32c-0.1-0.09-0.25-0.27-0.36-0.32c-0.09-0.04-0.27-0.33-0.36-0.32
		c-0.11,0.01-0.21,0.33-0.32,0.36c-0.11,0.03-0.21,0.36-0.32,0.36c-0.1,0.01-0.26-0.34-0.36-0.32c-0.1,0.02-0.26-0.33-0.36-0.32
		c-0.06,0-0.27,0.31-0.32,0.36c-0.04,0.04-0.28,0.37-0.32,0.36c-0.09-0.02-0.29-0.26-0.36-0.32c-0.11-0.1-0.24-0.25-0.36-0.32
		c-0.07-0.04-0.29-0.33-0.36-0.32c-0.07,0-0.26,0.38-0.32,0.36c-0.11-0.04-0.28-0.24-0.37-0.32c-0.05-0.04-0.31-0.33-0.36-0.32
		c-0.07,0.01-0.27,0.31-0.32,0.36c-0.11,0.12-0.21,0.24-0.32,0.36c-0.08,0.09-0.21,0.31-0.32,0.37c-0.06,0.03-0.3-0.33-0.36-0.32
		c-0.12,0.01-0.2,0.35-0.32,0.36c-0.11,0.01-0.25-0.33-0.36-0.32c-0.06,0-0.27,0.31-0.32,0.36c-0.05,0.05-0.26,0.36-0.32,0.36
		c-0.06,0-0.31-0.28-0.36-0.32c-0.09-0.08-0.31-0.22-0.36-0.32c-0.03-0.06,0.32-0.29,0.32-0.36c0-0.02-0.34-0.32-0.36-0.32
		c-0.12,0-0.25-0.33-0.36-0.32c-0.08,0.01-0.25,0.31-0.32,0.36c-0.12,0.08-0.23,0.26-0.32,0.36c-0.05,0.06-0.24,0.35-0.32,0.36
		c-0.05,0.01-0.32-0.28-0.36-0.32c-0.09-0.08-0.25-0.28-0.36-0.32c-0.06-0.02-0.25,0.36-0.32,0.36c-0.11,0.01-0.26-0.33-0.36-0.32
		c-0.07,0.01-0.27,0.31-0.32,0.36c-0.08,0.09-0.22,0.31-0.32,0.37c-0.06,0.03-0.29-0.33-0.36-0.32c-0.11,0.01-0.21,0.36-0.32,0.36
		c-0.12,0-0.25-0.33-0.36-0.32c-0.07,0-0.26,0.38-0.32,0.36c-0.11-0.04-0.28-0.24-0.36-0.32c-0.05-0.04-0.31-0.33-0.36-0.32
		c-0.07,0.01-0.27,0.31-0.32,0.36c-0.04,0.04-0.27,0.37-0.32,0.36c-0.09,0-0.28-0.34-0.37-0.32c-0.11,0.03-0.21,0.36-0.32,0.36
		c-0.1,0.01-0.27-0.34-0.36-0.32c-0.13,0.03-0.19,0.34-0.32,0.36c-0.1,0.02-0.26-0.33-0.36-0.32c-0.1,0.01-0.23,0.38-0.32,0.36
		c-0.07-0.01-0.31-0.34-0.36-0.32c-0.1,0.05-0.24,0.28-0.32,0.36c-0.05,0.06-0.25,0.35-0.32,0.36c-0.05,0.01-0.32-0.28-0.36-0.32
		c-0.05-0.04-0.3-0.32-0.36-0.32c-0.06,0-0.28,0.31-0.32,0.36c-0.04,0.05-0.26,0.36-0.32,0.36c-0.07,0-0.31-0.27-0.36-0.32
		c-0.05-0.04-0.3-0.32-0.36-0.32c-0.11,0.01-0.25-0.33-0.36-0.32c-0.08,0.01-0.25,0.31-0.32,0.37c-0.12,0.08-0.23,0.26-0.32,0.36
		c-0.03,0.04-0.29,0.37-0.32,0.36c-0.09-0.02-0.29-0.26-0.36-0.32c-0.11-0.09-0.24-0.26-0.36-0.32c-0.08-0.04-0.28-0.33-0.36-0.32
		c-0.03,0-0.31,0.38-0.32,0.37c-0.05-0.04-0.36-0.26-0.36-0.32c-0.01-0.1,0.34-0.27,0.32-0.36c-0.01-0.03-0.33-0.32-0.36-0.32
		c-0.02,0-0.32,0.34-0.32,0.36c0,0.07,0.39,0.26,0.36,0.32c-0.04,0.11-0.24,0.28-0.32,0.36c-0.08,0.09-0.21,0.32-0.32,0.36
		c-0.01,0-0.36-0.3-0.36-0.32c-0.01-0.1,0.34-0.27,0.32-0.36c-0.01-0.03-0.35-0.33-0.36-0.32c-0.03,0.01-0.32,0.33-0.32,0.36
		c0,0.02,0.34,0.32,0.36,0.32c-0.11,0-0.21,0.36-0.32,0.36c-0.06,0-0.31-0.28-0.36-0.32c-0.06-0.05-0.29-0.32-0.36-0.32
		c-0.12,0-0.25-0.33-0.36-0.32c-0.11,0.01-0.21,0.33-0.32,0.36c-0.11,0.03-0.21,0.36-0.32,0.36c-0.1,0.01-0.27-0.34-0.36-0.32
		c-0.12,0.03-0.2,0.36-0.32,0.36c-0.1,0.01-0.27-0.34-0.36-0.32c-0.1,0.03-0.22,0.37-0.32,0.36c-0.07,0-0.31-0.27-0.36-0.32
		c-0.09-0.08-0.25-0.28-0.36-0.32c-0.06-0.02-0.25,0.36-0.32,0.36c-0.11,0.01-0.26-0.3-0.36-0.32c-0.12-0.03-0.24-0.32-0.36-0.32
		c-0.11,0-0.21,0.36-0.32,0.36c-0.11,0.01-0.25-0.33-0.37-0.32c-0.11,0.01-0.21,0.36-0.32,0.36c-0.07,0-0.3-0.35-0.36-0.32
		c-0.1,0.05-0.25,0.28-0.32,0.36c-0.11,0.12-0.21,0.24-0.32,0.37c-0.04,0.04-0.27,0.36-0.32,0.36c-0.07,0-0.31-0.27-0.36-0.32
		c-0.1-0.09-0.24-0.26-0.36-0.32c-0.09-0.04-0.27-0.33-0.36-0.32c-0.06,0-0.27,0.31-0.32,0.36c-0.08,0.08-0.22,0.33-0.32,0.36
		c-0.08,0.03-0.28-0.33-0.36-0.32c-0.11,0.01-0.21,0.36-0.32,0.36c-0.07,0-0.31-0.27-0.36-0.32c-0.06-0.05-0.29-0.32-0.36-0.32
		c-0.12,0-0.25-0.33-0.36-0.32c-0.11,0.01-0.21,0.33-0.32,0.36c-0.11,0.03-0.21,0.36-0.32,0.36c-0.09,0.01-0.28-0.35-0.36-0.32
		c-0.11,0.03-0.21,0.36-0.32,0.36c-0.07,0-0.31-0.35-0.36-0.32c-0.11,0.05-0.24,0.28-0.32,0.36c-0.05,0.06-0.25,0.35-0.32,0.36
		c-0.05,0.01-0.32-0.28-0.36-0.32c-0.04-0.04-0.32-0.33-0.36-0.32c-0.12,0.02-0.2,0.36-0.32,0.36c-0.11,0.01-0.25-0.33-0.36-0.32
		c-0.06,0-0.27,0.31-0.32,0.36c-0.04,0.04-0.27,0.37-0.32,0.36c-0.08-0.01-0.3-0.26-0.36-0.32c-0.04-0.04-0.32-0.33-0.36-0.32
		c-0.04,0.01-0.3,0.38-0.32,0.36c-0.05-0.04-0.36-0.26-0.36-0.32c-0.01-0.1,0.34-0.27,0.32-0.36c-0.01-0.03-0.33-0.32-0.36-0.32
		c-0.02,0-0.32,0.34-0.32,0.36c0,0.07,0.38,0.26,0.36,0.32c-0.04,0.11-0.24,0.28-0.32,0.36c-0.05,0.06-0.25,0.36-0.32,0.36
		c-0.05,0.01-0.32-0.28-0.36-0.32c-0.1-0.09-0.24-0.27-0.36-0.32c-0.09-0.04-0.27-0.33-0.36-0.32c-0.07,0-0.27,0.31-0.32,0.36
		c-0.08,0.08-0.22,0.33-0.32,0.36c-0.08,0.03-0.28-0.33-0.36-0.32c-0.09,0.01-0.24,0.38-0.32,0.36c-0.1-0.02-0.29-0.25-0.37-0.32
		c-0.12-0.11-0.24-0.21-0.36-0.32c-0.11-0.09-0.24-0.26-0.36-0.32c-0.04-0.02-0.26,0.36-0.32,0.36c-0.07,0-0.31-0.28-0.36-0.32
		c-0.05-0.04-0.31-0.33-0.36-0.32c-0.07,0.01-0.27,0.31-0.32,0.36c-0.11,0.12-0.21,0.24-0.32,0.36c-0.1,0.12-0.2,0.27-0.32,0.36
		c-0.03,0.02-0.32-0.32-0.36-0.32c-0.02,0-0.32,0.35-0.32,0.36c0,0.02,0.35,0.32,0.36,0.32c-0.12,0.02-0.2,0.36-0.32,0.36
		c-0.07,0-0.31-0.28-0.36-0.32c-0.09-0.07-0.25-0.29-0.36-0.32c-0.07-0.02-0.24,0.36-0.32,0.36c-0.07,0-0.31-0.28-0.36-0.32
		c-0.05-0.04-0.31-0.33-0.37-0.32c-0.06,0.01-0.27,0.31-0.32,0.36c-0.11,0.12-0.21,0.24-0.32,0.36c-0.07,0.08-0.22,0.32-0.32,0.36
		c-0.07,0.03-0.29-0.32-0.36-0.32c-0.1,0.01-0.23,0.38-0.32,0.36c-0.07-0.01-0.31-0.34-0.36-0.32c-0.1,0.05-0.24,0.28-0.32,0.36
		c-0.11,0.12-0.21,0.24-0.32,0.36c-0.08,0.09-0.22,0.31-0.32,0.36c-0.06,0.03-0.29-0.33-0.36-0.32c-0.12,0.01-0.2,0.35-0.32,0.36
		c-0.02,0-0.36-0.3-0.36-0.32c-0.01-0.1,0.34-0.27,0.32-0.36c-0.01-0.05-0.31-0.3-0.36-0.32c-0.1-0.03-0.26-0.33-0.36-0.32
		c-0.06,0-0.27,0.31-0.32,0.36c-0.08,0.08-0.22,0.33-0.32,0.36c-0.08,0.03-0.28-0.33-0.36-0.32c-0.12,0.01-0.2,0.35-0.32,0.36
		c-0.11,0.02-0.26-0.33-0.36-0.32c-0.1,0.01-0.23,0.38-0.32,0.36c-0.13-0.02-0.24-0.32-0.36-0.32c-0.11,0-0.21,0.36-0.32,0.36
		c-0.09,0.01-0.29-0.35-0.36-0.32c-0.09,0.03-0.25,0.29-0.32,0.36c-0.04,0.04-0.27,0.37-0.32,0.36c-0.05,0-0.33-0.34-0.36-0.32
		c-0.12,0.08-0.23,0.26-0.32,0.36c-0.11,0.12-0.21,0.24-0.32,0.36c-0.11,0.12-0.21,0.24-0.32,0.36c-0.24-0.21-0.49-0.43-0.73-0.64
		c0.11-0.12,0.21-0.24,0.32-0.36c0.04-0.04,0.33-0.32,0.32-0.36c-0.02-0.12-0.32-0.2-0.36-0.32c-0.11,0.12-0.21,0.24-0.32,0.36
		c-0.09,0.11-0.25,0.24-0.32,0.36c-0.04,0.08-0.33,0.28-0.32,0.36c0,0.02,0.36,0.32,0.36,0.32c-0.09,0.05-0.23,0.36-0.32,0.36
		c-0.06,0-0.31-0.28-0.36-0.32c-0.08-0.07-0.26-0.3-0.36-0.32c-0.11-0.02-0.25-0.33-0.36-0.32c-0.06,0-0.27,0.31-0.32,0.36
		c-0.08,0.08-0.22,0.33-0.32,0.36c-0.08,0.03-0.28-0.33-0.36-0.32c-0.07,0-0.26,0.38-0.32,0.36c-0.11-0.04-0.27-0.24-0.36-0.32
		c-0.04-0.04-0.37-0.27-0.36-0.32c0-0.04,0.34-0.35,0.32-0.37c-0.04-0.04-0.31-0.32-0.37-0.32c-0.07,0-0.26,0.39-0.32,0.36
		c-0.11-0.04-0.28-0.24-0.36-0.32c-0.06-0.05-0.29-0.32-0.36-0.32c-0.12-0.01-0.25-0.33-0.36-0.32c-0.08,0.01-0.25,0.31-0.32,0.36
		c-0.12,0.08-0.23,0.26-0.32,0.36c-0.09,0.1-0.21,0.3-0.32,0.36c-0.05,0.03-0.3-0.32-0.36-0.32c-0.07,0-0.27,0.31-0.32,0.36
		c-0.11,0.12-0.21,0.25-0.32,0.36c-0.24-0.21-0.49-0.43-0.73-0.64c0.11-0.12,0.21-0.24,0.32-0.36c0.03-0.03,0.33-0.33,0.32-0.36
		C15.48,19.29,15.16,19,15.13,19c-0.11,0.01-0.21,0.36-0.32,0.36c-0.11,0.01-0.25-0.33-0.36-0.32c-0.06,0-0.28,0.31-0.32,0.36
		c-0.01,0.02,0.36,0.29,0.36,0.32c0.01,0.06-0.28,0.31-0.32,0.36c-0.04,0.05-0.26,0.36-0.32,0.36c-0.02,0-0.36-0.3-0.36-0.32
		c-0.01-0.1,0.34-0.27,0.32-0.36c-0.01-0.03-0.33-0.32-0.36-0.32c-0.12-0.01-0.25-0.33-0.36-0.32c-0.06,0-0.27,0.31-0.32,0.36
		c-0.08,0.09-0.21,0.32-0.32,0.36c-0.07,0.03-0.29-0.33-0.36-0.32c-0.07,0-0.27,0.31-0.32,0.36c-0.06,0.07-0.23,0.34-0.32,0.36
		c-0.1,0.02-0.26-0.33-0.36-0.32c-0.11,0.01-0.21,0.36-0.32,0.36c-0.11,0.01-0.25-0.33-0.36-0.32c-0.1,0.01-0.22,0.37-0.32,0.36
		c-0.12-0.01-0.25-0.33-0.36-0.32c-0.07,0-0.26,0.38-0.32,0.36c-0.11-0.04-0.28-0.24-0.36-0.32c-0.04-0.04-0.32-0.33-0.36-0.32
		c-0.08,0.02-0.27,0.3-0.32,0.36c-0.11,0.12-0.21,0.24-0.32,0.36c-0.11,0.12-0.21,0.24-0.32,0.36c-0.07,0.08-0.22,0.32-0.32,0.36
		C7.3,21.25,7.08,20.89,7,20.9c-0.1,0.01-0.23,0.38-0.32,0.36c-0.13-0.02-0.23-0.3-0.36-0.32C6.23,20.93,6.09,21.3,6,21.31
		c-0.06,0-0.31-0.28-0.36-0.32c-0.04-0.03-0.33-0.33-0.36-0.32c-0.09,0.03-0.26,0.29-0.32,0.36c-0.11,0.12-0.21,0.24-0.32,0.37
		c-0.05,0.06-0.24,0.35-0.32,0.36c-0.05,0.01-0.32-0.28-0.36-0.32c-0.06-0.04-0.3-0.32-0.36-0.32c-0.05,0-0.28,0.39-0.32,0.36
		c-0.13-0.07-0.26-0.22-0.36-0.32c-0.12-0.11-0.24-0.21-0.36-0.32c-0.12-0.11-0.24-0.21-0.36-0.32C2.09,20.45,1.85,20.3,1.8,20.2
		c-0.03-0.07,0.33-0.29,0.32-0.36c-0.01-0.1-0.38-0.23-0.36-0.32c0.01-0.05,0.34-0.33,0.32-0.36c-0.07-0.11-0.26-0.23-0.36-0.32
		c-0.12-0.11-0.24-0.21-0.36-0.32c-0.12-0.11-0.24-0.21-0.36-0.32c-0.06-0.05-0.35-0.24-0.36-0.32c0-0.02,0.3-0.36,0.32-0.36
		c0.03,0,0.35,0.29,0.36,0.32c-0.03-0.08,0.33-0.28,0.32-0.36c0-0.02-0.35-0.32-0.36-0.32c-0.04,0.01-0.29,0.38-0.32,0.36
		c-0.13-0.08-0.25-0.22-0.36-0.32c-0.12-0.11-0.24-0.21-0.36-0.32c-0.06-0.05-0.35-0.24-0.36-0.32c-0.01-0.05,0.28-0.32,0.32-0.36
		c0.09-0.11,0.26-0.24,0.32-0.36c0.04-0.08,0.33-0.28,0.32-0.36c-0.01-0.08-0.38-0.25-0.36-0.32c0.03-0.11,0.24-0.28,0.32-0.36
		c0.04-0.04,0.33-0.32,0.32-0.36c0-0.03-0.37-0.32-0.36-0.32c0.06-0.05,0.25-0.36,0.32-0.36c0.1-0.01,0.27,0.34,0.36,0.32
		c0.06-0.02,0.26-0.38,0.32-0.36C1.84,13.71,2,13.92,2.09,14c0.06,0.05,0.29,0.32,0.36,0.32c0.05,0,0.28-0.32,0.32-0.36
		c0.04-0.05,0.26-0.36,0.32-0.36c0.06,0,0.31,0.28,0.36,0.32c0.04,0.04,0.31,0.33,0.36,0.32c0.07-0.01,0.27-0.31,0.32-0.36
		c0.08-0.09,0.22-0.31,0.32-0.36c0.06-0.03,0.29,0.33,0.36,0.32c0.11-0.01,0.21-0.33,0.32-0.36c0.08-0.03,0.28,0.33,0.36,0.32
		c0.06,0,0.27-0.31,0.32-0.36c0.05-0.05,0.25-0.36,0.32-0.36c0.11-0.01,0.25,0.33,0.36,0.32c0.1-0.01,0.23-0.38,0.32-0.37
		c0.12,0.02,0.24,0.32,0.36,0.32c0.12,0,0.25,0.33,0.36,0.32c0.06,0,0.27-0.31,0.32-0.36c0.04-0.04,0.27-0.37,0.32-0.36
		c0.08,0.01,0.3,0.26,0.36,0.32c0.11,0.1,0.24,0.24,0.36,0.32c0.1,0.06,0.26,0.31,0.36,0.32c0.09,0.01,0.22-0.36,0.32-0.36
		c0.08-0.01,0.3,0.35,0.36,0.32c0.1-0.04,0.25-0.28,0.32-0.36c0.11-0.12,0.21-0.24,0.32-0.36c0.05-0.05,0.26-0.36,0.32-0.36
		c0.06-0.01,0.32,0.28,0.37,0.32c0.04,0.04,0.31,0.33,0.36,0.32c0.09-0.01,0.23-0.38,0.32-0.36c0.11,0.02,0.25,0.33,0.36,0.32
		c0.1-0.01,0.23-0.38,0.32-0.36c0.09,0.01,0.28,0.34,0.36,0.32c0.08-0.02,0.26-0.3,0.32-0.36c0.04-0.04,0.27-0.37,0.32-0.36
		c0.06,0,0.32,0.35,0.36,0.32c0.11-0.06,0.23-0.27,0.32-0.36c0.05-0.06,0.25-0.35,0.32-0.36c0.05-0.01,0.32,0.28,0.36,0.32
		c0.05,0.04,0.3,0.32,0.36,0.32c0.06,0,0.28-0.31,0.32-0.36c0.04-0.05,0.27-0.36,0.32-0.36c0.12,0,0.25,0.33,0.36,0.32
		c0.07,0,0.26-0.38,0.32-0.36c0.11,0.04,0.28,0.24,0.36,0.32c0.04,0.03,0.32,0.33,0.36,0.32c0.08-0.02,0.26-0.3,0.32-0.36
		c0.11-0.12,0.21-0.24,0.32-0.36c0.11-0.12,0.21-0.24,0.32-0.36c0.06-0.07,0.23-0.33,0.32-0.36c0.03-0.01,0.33,0.29,0.36,0.32
		c0.04,0.04,0.32,0.33,0.36,0.32c0.12-0.02,0.2-0.34,0.32-0.36c0.12-0.02,0.2-0.36,0.32-0.36c0.11-0.01,0.25,0.33,0.36,0.32
		c0.12-0.01,0.2-0.36,0.32-0.36c0.11-0.01,0.25,0.33,0.36,0.32c0.11-0.01,0.21-0.36,0.32-0.36c0.07,0,0.3,0.35,0.36,0.32
		c0.1-0.05,0.24-0.28,0.32-0.36c0.11-0.12,0.21-0.24,0.32-0.36c0.04-0.05,0.26-0.36,0.32-0.36c0.02,0,0.36,0.3,0.36,0.32
		c0.01,0.1-0.34,0.27-0.32,0.36c0.02,0.06,0.31,0.29,0.36,0.32c0.08,0.04,0.28,0.33,0.36,0.32c0.1-0.01,0.23-0.38,0.32-0.36
		c0.04,0.01,0.34,0.34,0.36,0.32c0.04-0.03,0.32-0.32,0.32-0.36c0-0.02-0.34-0.32-0.36-0.32c0.12-0.01,0.21-0.36,0.32-0.36
		c0.08,0,0.29,0.28,0.36,0.32c0.13,0.06,0.26,0.23,0.36,0.32c0.03,0.02,0.35,0.33,0.36,0.32c0.04-0.02,0.32-0.33,0.32-0.36
		c0-0.08-0.31-0.25-0.36-0.32c-0.08-0.12-0.26-0.23-0.36-0.32c-0.04-0.04-0.32-0.33-0.36-0.32c0.11-0.02,0.2-0.36,0.32-0.36
		c0.08,0,0.29,0.28,0.36,0.32c0.13,0.06,0.26,0.23,0.36,0.32c0.06,0.05,0.29,0.32,0.36,0.32c0.12,0.01,0.25,0.33,0.36,0.32
		c0.02,0,0.32-0.35,0.32-0.36c0-0.02-0.36-0.32-0.37-0.32c0.1-0.04,0.22-0.36,0.32-0.36c0.1-0.01,0.27,0.34,0.37,0.32
		c0.11-0.03,0.21-0.36,0.32-0.36c0.11-0.01,0.25,0.33,0.36,0.32c0.1-0.01,0.23-0.38,0.32-0.36c0.08,0.01,0.29,0.34,0.36,0.32
		c0.09-0.03,0.26-0.29,0.32-0.36c0.04-0.04,0.27-0.37,0.32-0.36c0.06,0,0.32,0.35,0.36,0.32c0.11-0.06,0.23-0.27,0.32-0.36
		c0.04-0.05,0.26-0.36,0.32-0.37c0.06,0,0.31,0.27,0.36,0.32c0.04,0.04,0.32,0.33,0.36,0.32c0.11-0.02,0.21-0.36,0.32-0.36
		c0.12-0.01,0.25,0.33,0.36,0.32c0.08-0.01,0.25-0.38,0.32-0.36c0.1,0.03,0.28,0.25,0.36,0.32c0.12,0.11,0.24,0.21,0.36,0.32
		c0.09,0.08,0.25,0.28,0.36,0.32c0.06,0.02,0.25-0.36,0.32-0.36c0.11-0.01,0.25,0.31,0.36,0.32c0.21-0.24,0.43-0.49,0.64-0.73
		c0.11-0.12,0.21-0.24,0.32-0.36c0.11-0.12,0.21-0.24,0.32-0.36c0.1-0.12,0.2-0.26,0.32-0.36c0.12-0.1,0.22-0.25,0.32-0.36
		c0.08-0.09,0.21-0.31,0.32-0.36c0.06-0.03,0.29,0.33,0.36,0.32c0.11-0.01,0.21-0.33,0.32-0.36c0.04-0.01,0.29-0.38,0.32-0.36
		c0.13,0.07,0.25,0.22,0.37,0.32c0.04,0.04,0.37,0.27,0.36,0.32c0,0.03-0.33,0.36-0.32,0.36c0.06,0.04,0.3,0.32,0.36,0.32
		c0.12-0.01,0.2-0.34,0.32-0.37c0.12-0.02,0.2-0.36,0.32-0.36c0.07,0,0.31,0.28,0.36,0.32c0.03,0.02,0.35,0.33,0.36,0.32
		c0.04-0.03,0.32-0.32,0.32-0.36c0-0.07-0.39-0.26-0.36-0.32c0.04-0.11,0.24-0.28,0.32-0.36c0.04-0.05,0.26-0.36,0.32-0.36
		c0.06,0,0.31,0.28,0.36,0.32c0.04,0.04,0.32,0.33,0.36,0.32c0.09-0.02,0.23-0.38,0.32-0.36c0.12,0.02,0.25,0.33,0.36,0.32
		c0.1-0.01,0.23-0.38,0.32-0.36c0.13,0.02,0.23,0.31,0.36,0.32c0.12,0.01,0.25,0.33,0.36,0.32c0.06,0,0.27-0.31,0.32-0.36
		c0.05-0.05,0.26-0.36,0.32-0.36c0.07,0,0.31,0.27,0.36,0.32c0.09,0.08,0.25,0.28,0.36,0.32c0.06,0.02,0.25-0.36,0.32-0.36
		c0.12-0.01,0.25,0.32,0.36,0.32c0.11,0,0.21-0.36,0.32-0.36c0.1-0.01,0.27,0.34,0.36,0.32c0.11-0.03,0.21-0.36,0.32-0.36
		c0.12,0,0.25,0.33,0.36,0.32c0.11-0.01,0.21-0.36,0.32-0.36c0.11-0.01,0.25,0.33,0.36,0.32c0.11-0.01,0.21-0.36,0.32-0.36
		c0.12,0,0.25,0.33,0.36,0.32c0.09-0.01,0.23-0.38,0.32-0.36c0.09,0.01,0.28,0.34,0.36,0.32c0.08-0.02,0.26-0.3,0.32-0.36
		c0.04-0.04,0.27-0.37,0.32-0.36c0.06,0,0.32,0.35,0.36,0.32c0.11-0.06,0.24-0.27,0.32-0.36c0.05-0.05,0.26-0.36,0.32-0.36
		c0.06-0.01,0.32,0.28,0.36,0.32c0.06,0.05,0.29,0.31,0.36,0.32c0.12,0.01,0.25,0.33,0.36,0.32c0.1-0.01,0.23-0.38,0.32-0.36
		c0.13,0.02,0.24,0.32,0.36,0.32c0.11,0,0.21-0.36,0.32-0.36c0.1-0.01,0.27,0.34,0.36,0.32c0.08-0.02,0.26-0.3,0.32-0.36
		c0.08-0.09,0.21-0.31,0.32-0.36c0.06-0.03,0.29,0.32,0.36,0.32c0.11-0.01,0.21-0.36,0.32-0.36c0.07,0,0.31,0.28,0.36,0.32
		c0.06,0.04,0.3,0.32,0.36,0.32c0.07,0,0.27-0.31,0.32-0.36c0.04-0.04,0.27-0.37,0.32-0.36c0.07,0,0.31,0.27,0.36,0.32
		c0.04,0.04,0.32,0.33,0.36,0.32c0.09-0.02,0.23-0.38,0.32-0.36c0.11,0.02,0.25,0.33,0.36,0.32c0.1-0.01,0.23-0.38,0.32-0.36
		c0.13,0.02,0.24,0.32,0.36,0.32c0.12,0,0.25,0.33,0.36,0.32c0.1-0.01,0.23-0.38,0.32-0.36c0.13,0.02,0.24,0.32,0.36,0.32
		c0.11,0,0.21-0.36,0.32-0.36c0.1-0.01,0.26,0.34,0.36,0.32c0.12-0.02,0.2-0.36,0.32-0.36c0.07-0.01,0.3,0.35,0.36,0.32
		c0.1-0.05,0.24-0.28,0.32-0.36c0.04-0.05,0.27-0.36,0.32-0.36c0.07,0,0.31,0.27,0.36,0.32c0.04,0.04,0.32,0.33,0.36,0.32
		c0.06-0.01,0.27-0.38,0.32-0.36c0.12,0.05,0.27,0.23,0.36,0.32c0.04,0.04,0.31,0.33,0.36,0.32c0.07-0.01,0.27-0.31,0.32-0.36
		c0.04-0.04,0.27-0.37,0.32-0.36c0.07,0,0.3,0.35,0.36,0.32c0.1-0.04,0.25-0.28,0.32-0.36c0.04-0.04,0.27-0.37,0.32-0.36
		c0.09,0,0.29,0.35,0.36,0.32c0.11-0.04,0.21-0.36,0.32-0.36c0.1-0.01,0.27,0.34,0.36,0.32c0.13-0.03,0.19-0.32,0.32-0.36
		c0.11-0.04,0.21-0.36,0.32-0.36c0.1-0.01,0.27,0.34,0.36,0.32c0.12-0.03,0.2-0.35,0.32-0.36c0.02,0,0.36,0.3,0.36,0.32
		c0.01,0.1-0.34,0.27-0.32,0.36c0.02,0.06,0.31,0.3,0.36,0.32c0.02,0.01,0.3-0.34,0.32-0.36c0.04-0.05,0.26-0.36,0.32-0.36
		c0.06,0,0.31,0.28,0.36,0.32c0.03,0.03,0.34,0.33,0.36,0.32c0.1-0.04,0.25-0.28,0.32-0.36c0.11-0.12,0.21-0.24,0.32-0.36
		c0.05-0.05,0.26-0.36,0.32-0.36c0.11-0.01,0.25,0.33,0.36,0.32c0.11-0.01,0.21-0.36,0.32-0.36c0.12-0.01,0.25,0.33,0.37,0.32
		c0.07,0,0.26-0.39,0.32-0.36c0.11,0.04,0.27,0.24,0.36,0.32c0.12,0.11,0.24,0.21,0.37,0.32c0.05,0.05,0.3,0.32,0.36,0.32
		c0.05,0,0.28-0.32,0.32-0.36c0.11-0.12,0.21-0.24,0.32-0.36c0.06-0.06,0.24-0.35,0.32-0.36c0.04-0.01,0.32,0.28,0.36,0.32
		c0.09,0.08,0.25,0.28,0.36,0.32c0.06,0.02,0.25-0.36,0.32-0.36c0.11-0.01,0.26,0.33,0.36,0.32c0.07-0.01,0.27-0.31,0.32-0.36
		c0.11-0.12,0.21-0.24,0.32-0.36c0.07-0.08,0.22-0.32,0.32-0.36c0.03-0.01,0.33,0.29,0.36,0.32c0.06,0.05,0.3,0.32,0.37,0.32
		c0.05,0,0.28-0.32,0.32-0.36c0.11-0.12,0.21-0.24,0.32-0.36c0.06-0.07,0.24-0.34,0.32-0.36c0.04-0.01,0.33,0.29,0.36,0.32
		c0.05,0.04,0.3,0.32,0.36,0.32c0.06,0,0.28-0.31,0.32-0.36c0.05-0.06,0.25-0.35,0.32-0.36c0.02,0,0.36,0.3,0.36,0.32
		c0,0.02-0.3,0.36-0.32,0.36c0.11-0.01,0.25,0.33,0.36,0.32c0.11-0.01,0.21-0.33,0.32-0.36c0.11-0.03,0.21-0.36,0.32-0.36
		c0.11-0.01,0.25,0.33,0.36,0.32c0.11-0.01,0.25,0.33,0.36,0.32c0.07,0,0.27-0.31,0.32-0.36c0.07-0.07,0.23-0.34,0.32-0.36
		c0.09-0.02,0.27,0.33,0.36,0.32c0.11-0.01,0.26,0.33,0.36,0.32c0.11-0.01,0.21-0.33,0.32-0.36c0.11-0.03,0.21-0.36,0.32-0.36
		c0.1-0.01,0.27,0.34,0.37,0.32c0.11-0.03,0.2-0.36,0.32-0.36c0.1-0.01,0.27,0.34,0.36,0.32C82,4.7,82.15,4.35,82.24,4.36
		c0.03,0,0.36,0.29,0.36,0.32c0.01,0.1-0.34,0.28-0.32,0.36c0.02,0.06,0.31,0.29,0.36,0.32C82.68,5.38,82.91,5,82.96,5
		c0.11-0.01,0.25,0.33,0.36,0.32c0.11-0.01,0.25,0.33,0.36,0.32c0.02,0,0.32-0.35,0.32-0.36c0-0.02-0.36-0.32-0.36-0.32
		c0.08-0.05,0.23-0.36,0.32-0.36c0.1-0.01,0.27,0.34,0.36,0.32c0.12-0.03,0.2-0.35,0.32-0.36c0.11-0.02,0.26,0.33,0.36,0.32
		c0.11-0.01,0.22-0.33,0.32-0.36c0.1-0.04,0.21-0.36,0.32-0.36c0.07,0,0.3,0.35,0.36,0.32c0.11-0.05,0.24-0.28,0.32-0.36
		c0.05-0.06,0.25-0.35,0.32-0.36c0.05-0.01,0.32,0.28,0.36,0.32c0.07,0.06,0.28,0.31,0.36,0.32c0.12,0.02,0.25,0.33,0.36,0.32
		c0.11-0.01,0.21-0.36,0.32-0.36c0.11-0.01,0.25,0.33,0.36,0.32c0.11-0.01,0.21-0.36,0.32-0.36c0.11-0.01,0.21-0.36,0.32-0.36
		c0.06,0,0.31,0.28,0.36,0.32c0.04,0.03,0.32,0.33,0.36,0.32c0.08-0.02,0.26-0.3,0.32-0.36c0.04-0.04,0.27-0.37,0.32-0.36
		c0.06,0,0.32,0.35,0.36,0.32c0.11-0.06,0.23-0.27,0.32-0.36c0.06-0.06,0.24-0.35,0.32-0.36c0.04-0.01,0.32,0.29,0.36,0.32
		c0.05,0.04,0.3,0.32,0.36,0.32c0.06,0,0.28-0.31,0.32-0.36c0.05-0.05,0.26-0.36,0.32-0.36c0.06,0,0.32,0.28,0.36,0.32
		c0.05,0.05,0.3,0.32,0.36,0.32c0.12,0,0.25,0.33,0.36,0.32c0.1-0.01,0.23-0.38,0.32-0.36c0.07,0.01,0.31,0.34,0.36,0.32
		c0.1-0.05,0.24-0.28,0.32-0.36c0.04-0.05,0.26-0.36,0.32-0.37c0.11-0.01,0.25,0.33,0.36,0.32c0.07-0.01,0.26-0.39,0.32-0.36
		c0.11,0.04,0.28,0.24,0.36,0.32c0.04,0.03,0.33,0.33,0.36,0.32c0.09-0.03,0.26-0.29,0.32-0.36c0.11-0.12,0.21-0.24,0.32-0.37
		c0.09-0.1,0.21-0.29,0.32-0.36c0.08-0.05,0.23-0.36,0.32-0.36c0.11-0.01,0.25,0.3,0.36,0.32c0-0.08,0.35-0.3,0.32-0.36
		c0.04,0.1,0.28,0.25,0.36,0.32c0.05,0.04,0.36,0.26,0.36,0.32c0,0.06-0.28,0.32-0.32,0.37C99,3.64,98.72,3.99,98.71,3.98
		c0.07,0.04,0.29,0.32,0.36,0.32c0.1-0.01,0.23-0.38,0.32-0.36c0.07,0.01,0.31,0.34,0.36,0.32c0.1-0.04,0.25-0.28,0.32-0.36
		c0.11-0.12,0.21-0.24,0.32-0.36c0.04-0.04,0.27-0.37,0.32-0.36c0.07,0,0.31,0.27,0.36,0.32c0.12,0.11,0.24,0.21,0.36,0.32
		c0.04,0.04,0.32,0.33,0.36,0.32c0.08-0.02,0.27-0.3,0.32-0.37c0.11-0.12,0.21-0.24,0.32-0.36c0.11-0.12,0.21-0.24,0.32-0.36
		c0.06-0.06,0.24-0.35,0.32-0.36c0.09-0.02,0.26,0.33,0.36,0.32c0.07-0.01,0.26-0.39,0.32-0.36c0.11,0.03,0.28,0.24,0.36,0.32
		c0.09,0.08,0.25,0.28,0.36,0.32c0.06,0.02,0.25-0.36,0.32-0.36c0.07,0,0.31,0.28,0.36,0.32c0.06,0.05,0.29,0.32,0.36,0.32
		c0.06,0,0.28-0.32,0.32-0.36c0.04-0.04,0.27-0.37,0.32-0.36c0.11,0,0.26,0.34,0.36,0.32c0.1-0.02,0.26,0.33,0.36,0.32
		c0.02,0,0.32-0.35,0.32-0.36c0-0.03-0.34-0.32-0.36-0.32c0.11-0.01,0.21-0.36,0.32-0.36c0.11-0.01,0.25,0.33,0.36,0.32
		c0.11-0.01,0.21-0.36,0.32-0.36c0.11-0.01,0.26,0.29,0.36,0.32c0.1,0.03,0.28,0.25,0.36,0.32c0.09,0.08,0.25,0.28,0.36,0.32
		c0.06,0.02,0.25-0.36,0.32-0.36c0.12-0.01,0.25,0.32,0.36,0.32c0.05,0,0.28-0.32,0.32-0.36c0.11-0.12,0.21-0.24,0.32-0.36
		c0.06-0.06,0.24-0.35,0.32-0.36c0.04-0.01,0.32,0.29,0.36,0.32c0.04,0.04,0.32,0.33,0.36,0.32c0.11-0.02,0.21-0.36,0.32-0.36
		c0.12-0.01,0.25,0.33,0.36,0.32c0.07,0,0.27-0.39,0.32-0.36c0.04,0.02,0.36,0.28,0.36,0.32c0.01,0.1-0.34,0.27-0.32,0.36
		c0.02,0.06,0.31,0.29,0.36,0.32c0.04,0.02,0.27-0.36,0.32-0.36c0.11-0.01,0.25,0.33,0.36,0.32c0.02,0,0.32-0.34,0.32-0.36
		c0-0.07-0.38-0.26-0.36-0.32c0.04-0.11,0.24-0.27,0.32-0.36c0.05-0.06,0.25-0.35,0.32-0.36c0.05-0.01,0.32,0.28,0.36,0.32
		c0.04,0.04,0.32,0.33,0.36,0.32c0.11-0.02,0.21-0.36,0.32-0.36c0.12,0,0.25,0.33,0.36,0.32c0.1-0.01,0.23-0.38,0.32-0.36
		c0.12,0.01,0.25,0.33,0.36,0.32c0.07,0,0.26-0.38,0.32-0.36c0.11,0.04,0.28,0.24,0.36,0.32c0.05,0.04,0.31,0.33,0.36,0.32
		c0.07-0.01,0.27-0.31,0.32-0.36c0.04-0.04,0.27-0.37,0.32-0.36c0.06,0,0.32,0.35,0.36,0.32c0.11-0.06,0.23-0.27,0.32-0.36
		c0.06-0.07,0.23-0.34,0.32-0.36c0.09-0.02,0.27,0.33,0.36,0.32c0.11-0.01,0.21-0.36,0.32-0.36c0.11-0.01,0.25,0.33,0.36,0.32
		c0.11-0.01,0.21-0.37,0.32-0.36c0.07,0,0.31,0.27,0.36,0.32c0.04,0.04,0.37,0.27,0.36,0.32c0,0.03-0.29,0.36-0.32,0.36
		c0.11-0.01,0.25,0.33,0.36,0.32c0.02,0,0.32-0.35,0.32-0.36c0-0.02-0.36-0.32-0.36-0.32c0.08-0.05,0.23-0.36,0.32-0.36
		c0.11-0.01,0.25,0.33,0.37,0.32c0.11-0.01,0.21-0.36,0.32-0.36c0.1-0.01,0.26,0.34,0.37,0.32c0.11-0.02,0.2-0.36,0.32-0.36
		c0.07,0,0.3,0.35,0.36,0.32c0.11-0.05,0.24-0.28,0.32-0.36c0.05-0.06,0.25-0.35,0.32-0.36c0.1-0.02,0.26,0.33,0.37,0.32
		c0.07,0,0.26-0.38,0.32-0.36c0.11,0.04,0.28,0.24,0.36,0.32c0.05,0.04,0.3,0.32,0.36,0.32c0.06,0,0.28-0.31,0.32-0.36
		c0.08-0.09,0.21-0.31,0.32-0.36c0.06-0.03,0.29,0.33,0.37,0.32c0.11-0.01,0.21-0.36,0.32-0.36c0.12-0.01,0.25,0.33,0.36,0.32
		c0.1-0.01,0.23-0.38,0.32-0.36c0.12,0.02,0.24,0.32,0.36,0.32c0.12,0,0.25,0.33,0.36,0.32c0.07,0,0.27-0.31,0.32-0.36
		c0.04-0.04,0.27-0.37,0.32-0.36c0.08,0,0.3,0.27,0.37,0.32c0.05,0.05,0.3,0.32,0.36,0.32c0.12,0,0.25,0.33,0.36,0.32
		c0.08-0.01,0.25-0.31,0.32-0.36c0.12-0.08,0.23-0.26,0.32-0.36c0.04-0.04,0.27-0.37,0.32-0.36c0.07,0,0.31,0.27,0.36,0.32
		c0.12,0.11,0.24,0.21,0.36,0.32c0.08,0.07,0.26,0.29,0.36,0.32c0.11,0.03,0.26,0.33,0.37,0.32c0.07,0,0.27-0.31,0.32-0.36
		c0.08-0.08,0.22-0.33,0.32-0.36c0.08-0.03,0.28,0.33,0.36,0.32c0.11-0.01,0.22-0.37,0.32-0.36c0.07,0,0.3,0.27,0.36,0.32
		c0.09,0.08,0.25,0.28,0.36,0.32c0.06,0.02,0.25-0.36,0.32-0.36c0.11-0.01,0.25,0.33,0.36,0.32c0.11-0.01,0.21-0.36,0.32-0.36
		c0.07-0.01,0.3,0.35,0.36,0.32c0.1-0.05,0.24-0.28,0.32-0.36c0.04-0.05,0.26-0.36,0.32-0.37c0.11-0.01,0.25,0.33,0.36,0.32
		c0.07,0,0.26-0.38,0.32-0.36c0.11,0.04,0.28,0.24,0.36,0.32c0.06,0.06,0.28,0.31,0.36,0.32c0.1,0.01,0.22-0.36,0.32-0.36
		c0.1-0.01,0.27,0.34,0.36,0.32c0.13-0.04,0.19-0.33,0.32-0.36c0.09-0.02,0.27,0.33,0.37,0.32c0.06,0,0.27-0.31,0.32-0.36
		c0.04-0.04,0.28-0.37,0.32-0.36c0.09,0.01,0.3,0.26,0.36,0.32c0.12,0.11,0.24,0.21,0.36,0.32c0.09,0.08,0.25,0.28,0.36,0.32
		c0.1,0.03,0.27,0.33,0.36,0.32c0.07,0,0.27-0.31,0.32-0.36c0.03-0.03,0.3-0.37,0.32-0.36c0.11,0.04,0.27,0.24,0.36,0.32
		c0.04,0.04,0.37,0.27,0.36,0.32c0,0.03-0.33,0.36-0.32,0.36c0.13,0.1,0.24,0.22,0.36,0.32c0.21-0.24,0.43-0.49,0.64-0.73
		c0.1-0.11,0.2-0.28,0.32-0.36c0.07-0.05,0.24-0.36,0.32-0.36c0.1-0.01,0.27,0.34,0.36,0.32c0.06-0.02,0.27-0.38,0.32-0.36
		c0.11,0.04,0.27,0.24,0.36,0.32c0.09,0.08,0.31,0.22,0.36,0.32c0.03,0.06-0.33,0.29-0.32,0.36c0,0.02,0.34,0.32,0.36,0.32
		c0.06-0.01,0.28-0.31,0.32-0.36c0.11-0.12,0.21-0.24,0.32-0.36c0.11-0.12,0.21-0.24,0.32-0.36c0.05-0.06,0.25-0.35,0.32-0.36
		c0.05-0.01,0.32,0.28,0.36,0.32c0.09,0.08,0.25,0.28,0.36,0.32c0.06,0.02,0.25-0.36,0.32-0.36c0.12-0.01,0.25,0.32,0.36,0.32
		c0.12,0,0.25,0.33,0.37,0.32c0.06-0.01,0.27-0.31,0.32-0.36c0.03-0.04,0.28-0.37,0.32-0.36c0.09,0.02,0.29,0.26,0.36,0.32
		c0.1,0.09,0.24,0.27,0.36,0.32c0.09,0.04,0.27,0.33,0.36,0.32c0.1-0.01,0.23-0.38,0.32-0.36c0.13,0.02,0.23,0.3,0.36,0.32
		c0.09,0.01,0.23-0.36,0.32-0.36c0.06,0,0.31,0.28,0.36,0.32c0.07,0.05,0.28,0.31,0.36,0.32c0.02,0,0.32-0.34,0.32-0.36
		c0-0.03-0.38-0.31-0.36-0.32c0.04-0.05,0.26-0.36,0.32-0.36c0.12-0.01,0.25,0.31,0.36,0.32c0.12,0.01,0.25,0.33,0.36,0.32
		c0.07,0,0.27-0.31,0.32-0.36c0.04-0.04,0.27-0.37,0.32-0.36c0.03,0,0.36,0.29,0.36,0.32c0,0.03-0.33,0.36-0.32,0.36
		c0.07,0.04,0.29,0.33,0.36,0.32c0.1-0.01,0.23-0.38,0.32-0.36c0.12,0.02,0.25,0.33,0.36,0.32c0.11-0.01,0.21-0.36,0.32-0.36
		c0.1-0.01,0.27,0.34,0.37,0.32c0.07-0.02,0.25-0.38,0.32-0.36c0.1,0.02,0.29,0.25,0.36,0.32c0.06,0.05,0.29,0.32,0.36,0.32
		c0.12,0,0.25,0.33,0.36,0.32c0.06,0,0.27-0.31,0.32-0.36c0.08-0.08,0.22-0.33,0.32-0.36c0.08-0.03,0.28,0.33,0.37,0.32
		c0.11-0.01,0.21-0.33,0.32-0.36c0.09-0.02,0.27,0.33,0.36,0.32c0.07,0,0.27-0.31,0.32-0.36c0.08-0.08,0.22-0.33,0.32-0.36
		c0.08-0.03,0.28,0.33,0.36,0.32c0.1-0.01,0.22-0.37,0.32-0.36c0.07,0,0.3,0.27,0.36,0.32c0.04,0.04,0.37,0.27,0.37,0.32
		c0,0.02-0.31,0.37-0.32,0.36c0.1,0.03,0.26,0.33,0.36,0.32c0.11-0.01,0.21-0.36,0.32-0.36c0.11-0.01,0.25,0.33,0.37,0.32
		c0.11-0.01,0.21-0.33,0.32-0.36c0.09-0.02,0.27,0.33,0.36,0.32c0.07,0,0.27-0.31,0.32-0.36c0.05-0.05,0.26-0.36,0.32-0.36
		c0.06,0,0.31,0.27,0.37,0.32c0.09,0.08,0.25,0.28,0.36,0.32c0.06,0.02,0.25-0.36,0.32-0.36c0.12-0.01,0.25,0.31,0.36,0.32
		c0.1,0.01,0.22-0.36,0.32-0.36c0.11-0.01,0.25,0.33,0.36,0.32c0.11-0.01,0.21-0.36,0.32-0.36c0.12-0.01,0.25,0.32,0.36,0.32
		c0.12,0,0.25,0.33,0.36,0.32c0.1-0.01,0.23-0.38,0.32-0.36c0.07,0.01,0.31,0.35,0.36,0.32c0.1-0.05,0.24-0.28,0.32-0.36
		c0.04-0.04,0.27-0.37,0.32-0.36c0.03,0,0.36,0.3,0.37,0.32c0,0.02-0.3,0.36-0.32,0.36c0.12,0,0.25,0.33,0.36,0.32
		c0.1-0.01,0.23-0.38,0.32-0.36c0.12,0.02,0.24,0.32,0.36,0.32c0.11,0,0.21-0.36,0.32-0.36c0.1-0.01,0.27,0.34,0.36,0.32
		c0.08-0.02,0.26-0.3,0.32-0.36c0.04-0.04,0.27-0.37,0.32-0.36c0.06,0,0.32,0.35,0.36,0.32c0.11-0.06,0.24-0.27,0.32-0.36
		c0.03-0.03,0.29-0.37,0.32-0.36c0.03,0.01,0.36,0.29,0.36,0.32c0.01,0.11-0.33,0.25-0.32,0.36c0.01,0.11,0.36,0.21,0.36,0.32
		c0,0.05-0.34,0.34-0.32,0.36c0.03,0.04,0.32,0.32,0.36,0.32c0.1-0.01,0.23-0.38,0.32-0.36c0.13,0.02,0.23,0.28,0.36,0.32
		c0.11-0.12,0.21-0.24,0.32-0.36c0.08-0.09,0.21-0.31,0.32-0.36c0.06-0.03,0.29,0.32,0.36,0.32c0.1-0.01,0.23-0.32,0.32-0.36
		c0.09-0.04,0.22-0.36,0.32-0.36c0.07-0.01,0.31,0.35,0.36,0.32c0.1-0.05,0.24-0.27,0.32-0.36c0.05-0.05,0.25-0.36,0.32-0.36
		c0.05-0.01,0.32,0.28,0.37,0.32c0.04,0.04,0.31,0.33,0.36,0.32c0.11-0.02,0.21-0.36,0.32-0.36c0.12,0,0.25,0.33,0.36,0.32
		c0.06,0,0.27-0.38,0.32-0.36c0.12,0.05,0.27,0.23,0.36,0.32c0.11,0.09,0.28,0.2,0.36,0.32c0.05,0.07,0.36,0.24,0.37,0.32
		c0,0.04-0.34,0.34-0.32,0.36c0.11,0.12,0.25,0.2,0.36,0.32c0.21-0.24,0.43-0.49,0.64-0.73c0.11-0.12,0.21-0.24,0.32-0.36
		c0.05-0.06,0.25-0.35,0.32-0.37c0.05-0.01,0.32,0.28,0.36,0.32c0.1,0.09,0.24,0.27,0.36,0.32c0.09,0.04,0.27,0.33,0.37,0.32
		c0.06,0,0.27-0.31,0.32-0.36c0.08-0.08,0.22-0.33,0.32-0.36c0.08-0.03,0.28,0.33,0.37,0.32c0.1-0.01,0.22-0.37,0.32-0.36
		c0.08,0.01,0.3,0.26,0.36,0.32c0.11,0.1,0.24,0.24,0.36,0.32c0.07,0.04,0.29,0.32,0.36,0.32c0.09-0.01,0.23-0.38,0.32-0.36
		c0.07,0.01,0.31,0.34,0.36,0.32c0.1-0.05,0.24-0.28,0.32-0.36c0.03-0.03,0.3-0.37,0.32-0.37c0.11,0.04,0.27,0.24,0.36,0.32
		c0.09,0.08,0.31,0.21,0.36,0.32c0.03,0.06-0.32,0.29-0.32,0.36c0,0.06,0.31,0.27,0.36,0.32c0.05,0.04,0.31,0.32,0.36,0.32
		c0.1-0.01,0.23-0.38,0.32-0.36c0.11,0.01,0.27,0.26,0.36,0.32c0.13,0.08,0.25,0.22,0.37,0.32c0.12,0.11,0.24,0.21,0.36,0.32
		c-0.21,0.24-0.43,0.49-0.64,0.73c-0.08,0.09-0.22,0.31-0.32,0.36c-0.06,0.03-0.29-0.32-0.36-0.32c-0.1,0.01-0.23,0.32-0.32,0.36
		c-0.06,0.03-0.29-0.33-0.37-0.32c-0.08,0.01-0.25,0.31-0.32,0.36c-0.12,0.08-0.23,0.26-0.32,0.36c-0.05,0.06-0.25,0.35-0.32,0.36
		c-0.1,0.02-0.26-0.33-0.36-0.32c-0.05,0-0.29,0.38-0.32,0.36c-0.05-0.03-0.36-0.27-0.36-0.32c0-0.02,0.32-0.37,0.32-0.36
		c-0.09-0.04-0.28-0.33-0.36-0.32c-0.1,0.01-0.23,0.38-0.32,0.36c-0.12-0.02-0.24-0.32-0.36-0.32c-0.11,0-0.21,0.36-0.32,0.36
		c-0.12,0.01-0.25-0.31-0.37-0.32c-0.12-0.01-0.25-0.33-0.36-0.32c-0.1,0.01-0.23,0.38-0.32,0.36c-0.13-0.02-0.24-0.32-0.36-0.32
		c-0.11,0-0.21,0.36-0.32,0.36c-0.1,0.01-0.27-0.34-0.37-0.32c-0.08,0.02-0.26,0.3-0.32,0.36c-0.08,0.09-0.22,0.31-0.32,0.36
		c-0.06,0.03-0.29-0.32-0.36-0.32c-0.11,0.01-0.21,0.36-0.32,0.36c-0.11,0.01-0.25-0.33-0.36-0.32c-0.1,0.01-0.23,0.38-0.32,0.36
		c-0.06-0.01-0.33-0.27-0.36-0.32c-0.03-0.04,0.32-0.31,0.32-0.36c0-0.03-0.37-0.31-0.37-0.32c-0.04,0.04-0.32,0.31-0.32,0.37
		c0.01,0.1,0.38,0.23,0.36,0.32c-0.02,0.13-0.32,0.24-0.32,0.36c0,0.11,0.36,0.21,0.36,0.32c0.01,0.11-0.29,0.26-0.32,0.36
		c-0.02,0.11-0.33,0.26-0.32,0.36c0.01,0.07,0.38,0.26,0.36,0.32c-0.04,0.11-0.24,0.28-0.32,0.36c-0.11,0.12-0.21,0.24-0.32,0.36
		c0.24,0.21,0.49,0.43,0.73,0.64c0.11-0.12,0.21-0.24,0.32-0.36c0.08-0.09,0.22-0.31,0.32-0.36c0.06-0.03,0.29,0.32,0.36,0.32
		c0.11-0.01,0.21-0.36,0.32-0.36c0.11-0.01,0.25,0.33,0.37,0.32c0.07,0,0.26-0.38,0.32-0.36c0.11,0.03,0.27,0.24,0.36,0.32
		c0.03,0.03,0.33,0.33,0.36,0.32c0.09-0.03,0.25-0.29,0.32-0.36c0.11-0.12,0.21-0.24,0.32-0.36c0.11-0.12,0.21-0.24,0.32-0.36
		c0.04-0.05,0.26-0.36,0.32-0.36c0.02,0,0.36,0.3,0.36,0.32c0.01,0.1-0.34,0.27-0.32,0.36c0.01,0.04,0.33,0.31,0.36,0.32
		c0.12,0.02,0.25,0.33,0.36,0.32c0.06,0,0.27-0.31,0.32-0.36c0.06-0.06,0.24-0.35,0.32-0.36c0.1-0.02,0.26,0.33,0.36,0.32
		c0.1-0.01,0.23-0.38,0.32-0.36c0.11,0.01,0.26,0.33,0.36,0.32c0.12-0.02,0.2-0.36,0.32-0.36c0.09-0.01,0.27,0.34,0.36,0.32
		c0.12-0.03,0.2-0.35,0.32-0.36c0.11-0.02,0.26,0.33,0.36,0.32c0.1-0.01,0.22-0.37,0.32-0.36c0.12,0.01,0.25,0.33,0.36,0.32
		c0.07,0,0.26-0.38,0.32-0.36c0.11,0.04,0.28,0.24,0.36,0.32c0.04,0.04,0.32,0.33,0.36,0.32c0.07-0.01,0.27-0.31,0.32-0.36
		c0.11-0.12,0.21-0.24,0.32-0.36c0.04-0.05,0.27-0.36,0.32-0.36c0.07,0,0.31,0.27,0.36,0.32c0.03,0.03,0.34,0.33,0.36,0.32
		c0.1-0.04,0.25-0.28,0.32-0.36c0.11-0.12,0.21-0.24,0.32-0.36c0.05-0.06,0.25-0.35,0.32-0.36c0.1-0.02,0.26,0.33,0.36,0.32
		c0.1-0.01,0.23-0.38,0.32-0.36c0.06,0.01,0.33,0.27,0.36,0.32c0.03,0.04-0.32,0.31-0.32,0.36c0,0.02,0.35,0.32,0.37,0.32
		c0.09-0.03,0.25-0.29,0.32-0.36c0.11-0.12,0.21-0.24,0.32-0.36c0.07-0.08,0.22-0.32,0.32-0.36c0.07-0.03,0.29,0.33,0.36,0.32
		c0.09-0.01,0.23-0.38,0.32-0.36c0.04,0.01,0.34,0.34,0.36,0.32c0.12-0.1,0.22-0.25,0.32-0.36c0.04-0.04,0.33-0.32,0.32-0.36
		c-0.01-0.06-0.38-0.27-0.36-0.32c0.05-0.12,0.23-0.27,0.32-0.36c0.05-0.06,0.25-0.35,0.32-0.36c0.11-0.01,0.26,0.33,0.36,0.32
		c0.07,0,0.26-0.39,0.32-0.36c0.11,0.04,0.28,0.24,0.37,0.32c0.06,0.06,0.29,0.31,0.36,0.32c0.1,0.01,0.22-0.36,0.32-0.36
		c0.1-0.01,0.27,0.34,0.36,0.32c0.07-0.02,0.25-0.38,0.32-0.36c0.1,0.02,0.29,0.25,0.36,0.32c0.12,0.11,0.24,0.21,0.37,0.32
		c0.08,0.07,0.26,0.29,0.36,0.32c0.07,0.02,0.24-0.36,0.32-0.36c0.1-0.01,0.27,0.34,0.36,0.32c0.04-0.01,0.3-0.38,0.32-0.36
		c0.05,0.03,0.36,0.27,0.36,0.32c0.01,0.11-0.33,0.25-0.32,0.36c0.01,0.11,0.36,0.21,0.36,0.32c0,0.02-0.32,0.37-0.32,0.36
		c0.09,0.04,0.27,0.33,0.36,0.32c0.11-0.01,0.21-0.36,0.32-0.36c0.11-0.01,0.25,0.33,0.36,0.32c0.11-0.01,0.21-0.36,0.32-0.36
		c0.11-0.01,0.25,0.33,0.36,0.32c0.11-0.01,0.21-0.36,0.32-0.36c0.11-0.01,0.25,0.33,0.36,0.32c0.1-0.01,0.22-0.37,0.32-0.36
		c0.03,0,0.36,0.29,0.36,0.32c0.01,0.11-0.3,0.25-0.32,0.37c-0.11,0.03-0.21,0.36-0.32,0.36c-0.07,0.01-0.31-0.35-0.36-0.32
		c-0.11,0.05-0.24,0.28-0.32,0.36c-0.05,0.06-0.25,0.36-0.32,0.36c-0.05,0.01-0.32-0.28-0.36-0.32c-0.05-0.04-0.3-0.32-0.36-0.32
		c-0.06,0-0.28,0.31-0.32,0.36c-0.04,0.04-0.27,0.37-0.32,0.36c-0.08,0-0.31-0.27-0.37-0.32c-0.09-0.08-0.25-0.28-0.36-0.32
		c-0.06-0.02-0.25,0.36-0.32,0.36c-0.12,0.01-0.25-0.32-0.36-0.32c-0.11,0-0.21,0.36-0.32,0.36c-0.1,0.01-0.27-0.34-0.36-0.32
		c-0.04,0.01-0.3,0.38-0.32,0.36c-0.05-0.04-0.36-0.26-0.37-0.32c-0.01-0.11,0.33-0.25,0.32-0.36c-0.01-0.11-0.36-0.21-0.36-0.32
		c-0.01-0.11,0.33-0.25,0.32-0.36c-0.01-0.12-0.36-0.2-0.36-0.32c-0.01-0.1,0.34-0.27,0.32-0.36c-0.01-0.04-0.32-0.31-0.36-0.32
		c-0.11-0.02-0.25-0.33-0.36-0.32c-0.11,0.01-0.21,0.33-0.32,0.36c-0.11,0.03-0.21,0.36-0.32,0.36c-0.04,0-0.34-0.34-0.36-0.32
		c-0.04,0.04-0.32,0.31-0.32,0.36c0,0.07,0.38,0.26,0.36,0.32c-0.04,0.11-0.24,0.28-0.32,0.36c-0.06,0.07-0.23,0.34-0.32,0.36
		c-0.04,0.01-0.33-0.29-0.36-0.32c-0.04-0.04-0.32-0.33-0.37-0.32c-0.11,0.02-0.21,0.36-0.32,0.36c-0.12,0.01-0.25-0.33-0.36-0.32
		c-0.06,0-0.28,0.32-0.32,0.36c-0.04,0.06-0.32,0.3-0.32,0.36c0.01,0.08,0.31,0.25,0.36,0.32c0.08,0.12,0.26,0.23,0.36,0.32
		c0.12,0.11,0.24,0.21,0.36,0.32c-0.11,0.03-0.21,0.36-0.32,0.36c-0.11,0.01-0.25-0.33-0.36-0.32c-0.12,0.01-0.21,0.36-0.32,0.36
		c-0.11,0.01-0.25-0.33-0.36-0.32c-0.12,0.01-0.2,0.36-0.32,0.36c-0.1,0.01-0.27-0.34-0.37-0.32c-0.13,0.03-0.2,0.31-0.32,0.36
		c-0.13,0.06-0.19,0.29-0.32,0.36c0.11,0.02,0.25,0.33,0.36,0.32c0.1-0.01,0.23-0.38,0.32-0.37c0.13,0.02,0.24,0.32,0.36,0.32
		c0.11,0,0.21-0.36,0.32-0.36c0.11-0.01,0.25,0.3,0.37,0.32c-0.11,0.12-0.21,0.24-0.32,0.36c-0.04,0.04-0.27,0.37-0.32,0.36
		c-0.12-0.01-0.24-0.3-0.36-0.32c-0.12-0.02-0.25-0.33-0.36-0.32c-0.07,0-0.27,0.31-0.32,0.36c-0.08,0.08-0.22,0.33-0.32,0.36
		c-0.08,0.03-0.28-0.33-0.37-0.32c-0.12,0.01-0.2,0.35-0.32,0.36c-0.1,0.02-0.26-0.33-0.36-0.32c-0.11,0.01-0.21,0.36-0.32,0.36
		c-0.11,0.01-0.25-0.33-0.36-0.32c-0.11,0.01-0.21,0.36-0.32,0.36c-0.12,0-0.25-0.33-0.36-0.32c-0.1,0.01-0.23,0.38-0.32,0.36
		c-0.12-0.02-0.24-0.32-0.36-0.32c-0.12,0-0.25-0.33-0.36-0.32c-0.07,0-0.27,0.31-0.32,0.36c-0.06,0.06-0.24,0.35-0.32,0.36
		c-0.11,0.02-0.26-0.33-0.36-0.32c-0.07,0-0.26,0.38-0.32,0.36c-0.11-0.04-0.28-0.24-0.37-0.32c-0.04-0.04-0.32-0.33-0.36-0.32
		c-0.07,0.01-0.27,0.3-0.32,0.36c-0.11,0.12-0.21,0.24-0.32,0.36c-0.05,0.06-0.25,0.35-0.32,0.36c-0.11,0.01-0.26-0.33-0.37-0.32
		c-0.11,0.01-0.21,0.36-0.32,0.36c-0.11,0.01-0.25-0.33-0.36-0.32c-0.1,0.01-0.23,0.38-0.32,0.36c-0.09-0.01-0.3-0.26-0.36-0.32
		c-0.09-0.08-0.25-0.28-0.36-0.32c-0.06-0.02-0.25,0.36-0.32,0.36c-0.09,0.01-0.29-0.35-0.37-0.32c-0.09,0.03-0.25,0.29-0.32,0.36
		c-0.11,0.12-0.21,0.24-0.32,0.36c-0.04,0.04-0.27,0.36-0.32,0.36c-0.07,0-0.31-0.27-0.36-0.32c-0.04-0.04-0.31-0.33-0.36-0.32
		c-0.11,0.02-0.21,0.36-0.32,0.36c-0.12,0-0.25-0.33-0.37-0.32c-0.05,0-0.29,0.38-0.32,0.37c-0.05-0.03-0.36-0.27-0.36-0.32
		c-0.01-0.1,0.34-0.27,0.32-0.36c-0.01-0.03-0.34-0.32-0.36-0.32c-0.06,0-0.28,0.31-0.32,0.36c-0.11,0.12-0.21,0.24-0.32,0.36
		c-0.11,0.12-0.21,0.24-0.32,0.36c-0.08,0.09-0.22,0.32-0.32,0.36c-0.02,0.01-0.33-0.29-0.36-0.32c-0.04-0.04-0.31-0.33-0.36-0.32
		c-0.12,0.02-0.2,0.35-0.32,0.36c-0.12,0.02-0.2,0.36-0.32,0.36c-0.1,0.01-0.27-0.34-0.36-0.32c-0.09,0.02-0.23,0.37-0.32,0.36
		c-0.08-0.01-0.3-0.26-0.37-0.32c-0.04-0.04-0.31-0.33-0.36-0.32c-0.06,0.01-0.27,0.38-0.32,0.36c-0.12-0.05-0.27-0.24-0.36-0.32
		c-0.05-0.05-0.3-0.32-0.36-0.32c-0.11,0.01-0.25-0.33-0.36-0.32c-0.08,0.01-0.25,0.31-0.32,0.36c-0.12,0.08-0.23,0.26-0.32,0.36
		c-0.07,0.08-0.22,0.32-0.32,0.36c-0.07,0.03-0.29-0.33-0.36-0.32c-0.1,0.01-0.23,0.38-0.32,0.36c-0.07-0.01-0.31-0.34-0.36-0.32
		c-0.1,0.05-0.24,0.28-0.32,0.36c-0.04,0.05-0.27,0.36-0.32,0.36c-0.07,0-0.31-0.27-0.36-0.32c-0.11-0.09-0.24-0.26-0.36-0.32
		c-0.08-0.04-0.28-0.33-0.36-0.32c-0.09,0.01-0.23,0.38-0.32,0.36c-0.11-0.02-0.25-0.33-0.36-0.32c-0.1,0.01-0.23,0.38-0.32,0.37
		c-0.1-0.01-0.27-0.26-0.36-0.32c-0.13-0.08-0.25-0.22-0.37-0.32c-0.09-0.08-0.31-0.22-0.36-0.32c-0.03-0.06,0.33-0.29,0.32-0.36
		c-0.01-0.08-0.31-0.25-0.36-0.32c-0.1-0.13-0.26-0.2-0.37-0.32c-0.11,0.12-0.21,0.24-0.32,0.36c-0.04,0.05-0.26,0.36-0.32,0.36
		c-0.06,0-0.31-0.28-0.36-0.32c-0.04-0.04-0.32-0.33-0.36-0.32c-0.08,0.02-0.26,0.3-0.32,0.36c-0.04,0.04-0.27,0.37-0.32,0.36
		c-0.07,0-0.3-0.35-0.36-0.32c-0.1,0.04-0.25,0.28-0.32,0.36c-0.04,0.04-0.27,0.37-0.32,0.36c-0.12,0-0.24-0.29-0.36-0.32
		c-0.02,0.12-0.32,0.24-0.32,0.36c0-0.11-0.36-0.21-0.37-0.32c0-0.06,0.28-0.31,0.32-0.36c0.03-0.04,0.33-0.32,0.32-0.36
		c-0.02-0.08-0.3-0.26-0.36-0.32c-0.12-0.11-0.25-0.21-0.36-0.32c-0.11-0.11-0.25-0.21-0.36-0.32c-0.11,0.12-0.21,0.25-0.32,0.36
		c-0.05,0.05-0.25,0.36-0.32,0.37c-0.05,0-0.33-0.35-0.36-0.32c-0.12,0.08-0.23,0.26-0.32,0.36c-0.11,0.12-0.21,0.24-0.32,0.36
		c-0.11,0.12-0.21,0.24-0.32,0.36c-0.21,0.24-0.43,0.49-0.64,0.73c-0.05,0.06-0.25,0.35-0.32,0.36c-0.02,0-0.36-0.3-0.36-0.32
		c-0.01-0.06,0.28-0.31,0.32-0.36c0.03-0.04,0.33-0.33,0.32-0.36c-0.02-0.04-0.32-0.31-0.37-0.32c-0.09-0.01-0.22,0.36-0.32,0.36
		c-0.11,0.01-0.25-0.3-0.36-0.32c-0.11,0.12-0.21,0.24-0.32,0.36c-0.08,0.09-0.28,0.25-0.32,0.36c-0.02,0.06,0.36,0.25,0.36,0.32
		c0.01,0.11-0.3,0.25-0.32,0.36c-0.02,0.08,0.36,0.24,0.37,0.32c0,0.06-0.28,0.31-0.32,0.36c-0.1,0.12-0.21,0.26-0.32,0.36
		c-0.01,0.01-0.33-0.31-0.36-0.32c-0.13-0.03-0.23-0.3-0.36-0.32c-0.12-0.01-0.25-0.33-0.36-0.32c-0.11,0.01-0.21,0.36-0.32,0.36
		c-0.11,0.01-0.25-0.33-0.37-0.32c-0.1,0.01-0.22,0.37-0.32,0.36c-0.12-0.01-0.25-0.33-0.36-0.32c-0.07,0.01-0.26,0.39-0.32,0.36
		c-0.11-0.04-0.28-0.24-0.36-0.32c-0.06-0.05-0.29-0.32-0.36-0.32c-0.11,0-0.21,0.36-0.32,0.36c-0.07,0-0.3-0.35-0.36-0.32
		c-0.11,0.05-0.24,0.27-0.32,0.36c-0.05,0.05-0.26,0.36-0.32,0.36c-0.06,0.01-0.32-0.28-0.36-0.32c-0.04-0.04-0.32-0.33-0.36-0.32
		c-0.11,0.02-0.21,0.36-0.32,0.36c-0.12,0.01-0.25-0.33-0.37-0.32c-0.11,0.01-0.21,0.36-0.32,0.36c-0.12,0-0.25-0.33-0.36-0.32
		c-0.11,0.01-0.21,0.36-0.32,0.36c-0.11,0.01-0.25-0.33-0.36-0.32c-0.09,0.01-0.23,0.38-0.32,0.36c-0.03-0.01-0.36-0.29-0.36-0.32
		c0-0.05,0.34-0.33,0.32-0.36c-0.03-0.04-0.32-0.32-0.36-0.32c-0.08,0.01-0.24,0.38-0.32,0.36c-0.11-0.02-0.26-0.33-0.36-0.32
		c-0.1,0.01-0.23,0.38-0.32,0.36c-0.12-0.02-0.25-0.32-0.36-0.32c-0.02,0-0.32,0.34-0.32,0.36c0,0.02,0.35,0.32,0.36,0.32
		c-0.11,0.03-0.21,0.36-0.32,0.36c-0.07,0-0.31-0.28-0.36-0.32c-0.04-0.03-0.32-0.33-0.37-0.32c-0.08,0.02-0.26,0.3-0.32,0.36
		c-0.04,0.05-0.26,0.36-0.32,0.36c-0.12,0-0.25-0.33-0.36-0.32c-0.07,0-0.26,0.38-0.32,0.36c-0.11-0.04-0.28-0.24-0.36-0.32
		c-0.06-0.05-0.29-0.31-0.36-0.32c-0.1-0.01-0.22,0.36-0.32,0.36c-0.07,0.01-0.3-0.35-0.37-0.32c-0.1,0.05-0.24,0.28-0.32,0.36
		c-0.05,0.06-0.25,0.36-0.32,0.36c-0.05,0.01-0.32-0.28-0.36-0.32c-0.04-0.04-0.32-0.33-0.36-0.32c-0.12,0.02-0.2,0.36-0.32,0.36
		c-0.11,0.01-0.25-0.33-0.36-0.32c-0.07,0-0.27,0.31-0.32,0.36c-0.05,0.05-0.26,0.36-0.32,0.36c-0.07,0-0.31-0.27-0.36-0.32
		c-0.06-0.05-0.3-0.32-0.36-0.32c-0.12,0-0.25-0.33-0.36-0.32c-0.11,0.01-0.21,0.36-0.32,0.36c-0.11,0.01-0.25-0.33-0.36-0.32
		c-0.11,0.01-0.21,0.33-0.32,0.36c-0.11,0.03-0.21,0.36-0.32,0.36c-0.1,0.01-0.27-0.34-0.36-0.32c-0.11,0.03-0.21,0.36-0.32,0.36
		c-0.12,0-0.25-0.33-0.36-0.32c-0.1,0.01-0.23,0.38-0.32,0.36c-0.14-0.02-0.23-0.29-0.37-0.32c-0.11-0.02-0.26-0.33-0.36-0.32
		c-0.1,0.01-0.23,0.38-0.32,0.36c-0.11-0.01-0.26-0.33-0.36-0.32c-0.07,0.01-0.27,0.31-0.32,0.36c-0.11,0.12-0.21,0.24-0.32,0.36
		c-0.08,0.09-0.21,0.31-0.32,0.36c-0.06,0.03-0.29-0.32-0.36-0.32c-0.11,0.01-0.21,0.36-0.32,0.36c-0.11,0.01-0.25-0.33-0.37-0.32
		c-0.11,0.01-0.21,0.33-0.32,0.36c-0.11,0.03-0.21,0.36-0.32,0.36c-0.1,0.01-0.27-0.34-0.36-0.32c-0.12,0.03-0.2,0.35-0.32,0.36
		c-0.06,0.01-0.32-0.28-0.36-0.32c-0.05-0.05-0.3-0.32-0.36-0.32c-0.12,0-0.25-0.33-0.36-0.32c-0.11,0.01-0.21,0.33-0.32,0.36
		c-0.11,0.03-0.21,0.36-0.32,0.36c-0.1,0.01-0.27-0.34-0.37-0.32c-0.11,0.02-0.2,0.36-0.32,0.36c-0.1,0.01-0.27-0.34-0.36-0.32
		c-0.1,0.03-0.23,0.37-0.32,0.36c-0.08,0-0.3-0.27-0.36-0.32c-0.08-0.07-0.26-0.29-0.36-0.32c-0.11-0.03-0.26-0.33-0.36-0.32
		c-0.07,0-0.27,0.31-0.32,0.36c-0.04,0.04-0.28,0.37-0.32,0.36c-0.09-0.01-0.3-0.26-0.36-0.32c-0.12-0.11-0.24-0.21-0.37-0.32
		c-0.05-0.05-0.3-0.32-0.36-0.32c-0.06,0-0.28,0.32-0.32,0.37c-0.11,0.12-0.21,0.24-0.32,0.36c-0.11,0.12-0.21,0.24-0.32,0.36
		c-0.06,0.07-0.23,0.34-0.32,0.37c-0.08,0.03-0.27-0.33-0.36-0.32c-0.11,0.01-0.21,0.36-0.32,0.36c-0.11,0.01-0.25-0.33-0.36-0.32
		c-0.11,0.01-0.21,0.36-0.32,0.36c-0.07,0-0.31-0.27-0.36-0.32c-0.05-0.04-0.3-0.32-0.36-0.32c-0.06,0-0.28,0.31-0.32,0.36
		c-0.03,0.04-0.28,0.37-0.32,0.36c-0.03,0-0.36-0.29-0.36-0.32c0-0.02,0.3-0.36,0.32-0.36c-0.12,0-0.25-0.33-0.37-0.32
		c-0.1,0.01-0.23,0.38-0.32,0.36c-0.13-0.02-0.24-0.32-0.36-0.32c-0.11,0-0.21,0.36-0.32,0.36c-0.07,0-0.31-0.35-0.36-0.32
		c-0.11,0.05-0.24,0.27-0.32,0.36c-0.11,0.12-0.21,0.24-0.32,0.36c-0.04,0.05-0.26,0.36-0.32,0.36c-0.12,0-0.25-0.33-0.36-0.32
		c-0.1,0.01-0.23,0.38-0.32,0.36c-0.06-0.01-0.33-0.27-0.36-0.32c-0.03-0.04,0.32-0.31,0.32-0.36c0-0.03-0.33-0.32-0.36-0.32
		c-0.04-0.01-0.29,0.33-0.32,0.36c-0.11,0.12-0.21,0.24-0.32,0.36c-0.06,0.07-0.23,0.34-0.32,0.36c-0.04,0.01-0.33-0.29-0.37-0.32
		c-0.04-0.04-0.32-0.33-0.36-0.32c-0.06,0.01-0.27,0.38-0.32,0.36c-0.12-0.05-0.27-0.23-0.37-0.32c-0.04-0.04-0.32-0.33-0.36-0.32
		c-0.07,0.01-0.27,0.3-0.32,0.36c-0.08,0.09-0.21,0.31-0.32,0.36c-0.06,0.03-0.29-0.32-0.36-0.32c-0.1,0.01-0.23,0.32-0.32,0.36
		c-0.09,0.04-0.22,0.36-0.32,0.36c-0.07,0-0.3-0.35-0.36-0.32c-0.11,0.05-0.24,0.28-0.32,0.36c-0.04,0.05-0.26,0.36-0.32,0.36
		c-0.06,0-0.31-0.28-0.36-0.32c-0.1-0.09-0.24-0.27-0.36-0.32c-0.09-0.04-0.27-0.33-0.36-0.32c-0.06,0-0.27,0.31-0.32,0.36
		c-0.08,0.08-0.22,0.33-0.32,0.36c-0.08,0.03-0.28-0.33-0.36-0.32c-0.11,0.01-0.21,0.36-0.32,0.36c-0.06,0-0.31-0.27-0.36-0.32
		c-0.06-0.05-0.29-0.32-0.36-0.32c-0.12,0-0.25-0.33-0.36-0.32c-0.11,0.01-0.21,0.33-0.32,0.36c-0.11,0.03-0.21,0.36-0.32,0.36
		c-0.1,0.01-0.27-0.34-0.36-0.32c-0.12,0.03-0.2,0.36-0.32,0.36c-0.1,0.01-0.27-0.34-0.37-0.32c-0.09,0.02-0.23,0.37-0.32,0.36
		c-0.08-0.01-0.3-0.26-0.36-0.32c-0.12-0.11-0.24-0.21-0.36-0.32c-0.05-0.04-0.31-0.33-0.37-0.32c-0.07,0.01-0.27,0.31-0.32,0.36
		c-0.11,0.12-0.21,0.24-0.32,0.37c-0.08,0.09-0.21,0.31-0.32,0.36c-0.05,0.03-0.3-0.32-0.36-0.32c-0.1,0.01-0.23,0.38-0.32,0.36
		c-0.1-0.01-0.28-0.34-0.36-0.32c-0.08,0.02-0.27,0.3-0.32,0.36c-0.04,0.04-0.27,0.37-0.32,0.36c-0.13,0-0.24-0.3-0.36-0.32
		c-0.21,0.24-0.43,0.49-0.64,0.73c-0.24-0.21-0.49-0.43-0.73-0.64c0.21-0.24,0.43-0.49,0.64-0.73c0.05-0.05,0.32-0.3,0.32-0.36
		c0-0.11-0.34-0.21-0.36-0.32c-0.21,0.24-0.43,0.49-0.64,0.73c-0.08,0.09-0.21,0.31-0.32,0.36c-0.06,0.03-0.3-0.33-0.36-0.32
		c-0.1,0.01-0.23,0.38-0.32,0.36c-0.13-0.02-0.24-0.32-0.36-0.32c-0.11,0-0.21,0.36-0.32,0.36c-0.09,0.01-0.28-0.35-0.36-0.32
		c-0.09,0.03-0.26,0.29-0.32,0.36c-0.09,0.11-0.2,0.28-0.32,0.36c-0.07,0.05-0.24,0.36-0.32,0.36c-0.11,0.01-0.25-0.3-0.36-0.32
		c-0.09,0.01-0.24,0.38-0.32,0.36c-0.03-0.01-0.36-0.29-0.36-0.32c-0.01-0.11,0.33-0.25,0.32-0.36c-0.01-0.11-0.36-0.21-0.36-0.32
		c0-0.04,0.34-0.34,0.32-0.36c-0.03-0.04-0.32-0.32-0.36-0.32c-0.1,0.01-0.23,0.38-0.32,0.36c-0.13-0.02-0.23-0.28-0.36-0.32
		c-0.11,0.12-0.21,0.24-0.32,0.36c-0.04,0.04-0.33,0.31-0.32,0.36c0.01,0.04,0.38,0.3,0.36,0.32c-0.04,0.05-0.27,0.36-0.32,0.36
		c-0.07,0-0.3-0.35-0.36-0.32c-0.1,0.05-0.24,0.27-0.32,0.36c-0.05,0.06-0.24,0.35-0.32,0.36c-0.1,0.02-0.26-0.33-0.36-0.32
		c-0.1,0.01-0.23,0.38-0.32,0.36c-0.1-0.01-0.27-0.34-0.36-0.32c-0.03,0.01-0.32,0.34-0.32,0.36c0,0.02,0.35,0.32,0.36,0.32
		c-0.11,0.03-0.21,0.36-0.32,0.36c-0.02,0-0.37-0.3-0.36-0.32c0-0.03,0.32-0.36,0.32-0.36c-0.1-0.06-0.25-0.31-0.36-0.32
		c-0.09-0.01-0.22,0.36-0.32,0.36c-0.12,0.01-0.25-0.31-0.36-0.32c-0.12-0.01-0.25-0.33-0.36-0.32c-0.07,0-0.27,0.31-0.32,0.36
		c-0.04,0.04-0.27,0.37-0.32,0.36c-0.08-0.01-0.3-0.26-0.36-0.32c-0.03-0.03-0.34-0.33-0.36-0.32c-0.1,0.04-0.25,0.28-0.32,0.36
		c-0.11,0.12-0.21,0.24-0.32,0.36C88.34,17.25,88.12,17.49,87.91,17.74z M90.98,12.04c0.07,0.13,0.3,0.19,0.36,0.32
		c0.03,0.06-0.32,0.29-0.32,0.36c0,0.06,0.32,0.28,0.36,0.32c0.02,0.02,0.28-0.36,0.32-0.36c0.08-0.01,0.29,0.28,0.36,0.32
		c0.13,0.07,0.26,0.23,0.36,0.32c0.05,0.05,0.3,0.32,0.36,0.32c0.06,0,0.28-0.32,0.32-0.36c0.08-0.1,0.21-0.3,0.32-0.36
		c0.05-0.03,0.3,0.32,0.36,0.32c0.08-0.01,0.25-0.31,0.32-0.36c0.12-0.08,0.23-0.26,0.32-0.36c0.11-0.12,0.21-0.24,0.32-0.36
		c-0.24-0.21-0.49-0.43-0.73-0.64c-0.11,0.12-0.21,0.25-0.32,0.36c-0.05,0.05-0.26,0.36-0.32,0.36c-0.08,0.01-0.3-0.35-0.36-0.32
		c-0.11,0.05-0.24,0.28-0.32,0.36c-0.05,0.05-0.26,0.36-0.32,0.36c-0.11,0.01-0.25-0.33-0.36-0.32c-0.07,0-0.31-0.28-0.36-0.32
		c-0.06-0.04-0.3-0.32-0.36-0.32C91.19,11.68,91.09,12.03,90.98,12.04c-0.12,0.01-0.25-0.31-0.36-0.32c-0.02,0-0.32,0.34-0.32,0.36
		c0.01,0.11,0.34,0.21,0.36,0.32C90.77,12.28,90.87,12.16,90.98,12.04z M95.49,12.78c0,0.07-0.35,0.31-0.32,0.36
		c0.05,0.1,0.27,0.25,0.36,0.32c0.06,0.04,0.3,0.33,0.36,0.32c0.05,0,0.29-0.32,0.32-0.36c0.01-0.01-0.35-0.29-0.36-0.32
		c0.11-0.12,0.21-0.24,0.32-0.36c0.21-0.24,0.43-0.49,0.64-0.73c0.12,0.02,0.25,0.33,0.36,0.32c0.1-0.01,0.23-0.38,0.32-0.36
		c0.07,0.01,0.32,0.26,0.36,0.32c0.02,0.03-0.32,0.32-0.32,0.36c0.01,0.11,0.36,0.21,0.36,0.32c0.01,0.11-0.33,0.25-0.32,0.36
		c0.01,0.11,0.33,0.21,0.36,0.32c-0.02-0.09,0.32-0.27,0.32-0.36c0.11-0.12,0.21-0.24,0.32-0.36c0.04-0.04,0.33-0.32,0.32-0.36
		c-0.02-0.12-0.32-0.2-0.37-0.32c0.02-0.12,0.33-0.25,0.32-0.36c0-0.04-0.32-0.3-0.36-0.32c-0.05-0.02-0.26,0.36-0.32,0.36
		c-0.07,0-0.31-0.28-0.36-0.32c-0.06-0.05-0.3-0.32-0.36-0.32c-0.06,0-0.27,0.32-0.32,0.37c-0.05,0.05-0.26,0.36-0.32,0.36
		c-0.09,0-0.29-0.35-0.36-0.32c-0.11,0.04-0.21,0.36-0.32,0.36c-0.07,0-0.31-0.35-0.36-0.32c-0.11,0.05-0.24,0.28-0.32,0.36
		c-0.11,0.12-0.21,0.24-0.32,0.36C95.16,12.57,95.49,12.67,95.49,12.78z M104.76,12.53c0.03,0,0.31-0.33,0.32-0.36
		c0-0.01-0.34-0.32-0.36-0.32c-0.09-0.01-0.22,0.36-0.32,0.36c-0.12,0.01-0.25-0.32-0.36-0.32c-0.12,0-0.25-0.33-0.36-0.32
		c-0.02,0-0.32,0.34-0.32,0.36c0,0.06,0.31,0.28,0.36,0.32c0.08,0.07,0.26,0.29,0.36,0.32c0.07,0.02,0.24-0.38,0.32-0.36
		C104.51,12.23,104.65,12.53,104.76,12.53z M108.19,7.15c0.11-0.01,0.21-0.33,0.32-0.36c0.13,0.04,0.23,0.3,0.36,0.32
		c0.09,0.01,0.22-0.36,0.32-0.36c0.08-0.01,0.3,0.35,0.36,0.32c0.1-0.04,0.25-0.28,0.32-0.36c0.11-0.12,0.21-0.24,0.32-0.36
		c0.05-0.06,0.24-0.35,0.32-0.36c0.05-0.01,0.32,0.28,0.36,0.32c0.06,0.05,0.29,0.31,0.36,0.32c0.05,0,0.28-0.32,0.32-0.36
		c0.04-0.05,0.26-0.36,0.32-0.36c0.06,0,0.32,0.28,0.37,0.32c0.12,0.11,0.24,0.21,0.36,0.32c0.21-0.24,0.43-0.49,0.64-0.73
		c-0.24-0.21-0.49-0.43-0.73-0.64c-0.12-0.02-0.24-0.32-0.36-0.32c-0.05,0-0.28,0.32-0.32,0.36c-0.07,0.08-0.22,0.32-0.32,0.36
		c-0.1,0.04-0.22,0.36-0.32,0.36c-0.11,0.01-0.25-0.33-0.36-0.32c-0.11,0.01-0.21,0.36-0.32,0.36c-0.09,0.01-0.28-0.28-0.36-0.32
		c-0.12-0.06-0.26-0.23-0.36-0.32c-0.12-0.11-0.24-0.21-0.36-0.32c-0.07-0.06-0.27-0.3-0.36-0.32c-0.03-0.01-0.29,0.33-0.32,0.36
		c-0.04,0.06-0.32,0.3-0.32,0.36c0.01,0.11,0.33,0.21,0.36,0.32c-0.11,0.12-0.21,0.24-0.32,0.36c-0.21,0.24-0.43,0.49-0.64,0.73
		C107.94,6.84,108.08,7.16,108.19,7.15z M116.68,5.57c0.11-0.12,0.21-0.24,0.32-0.36c0.08-0.08,0.29-0.26,0.32-0.36
		c0.01-0.03-0.33-0.29-0.36-0.32c-0.05-0.05-0.36-0.26-0.36-0.32c0-0.07,0.28-0.31,0.32-0.36c0.1-0.13,0.22-0.24,0.32-0.36
		c-0.12-0.11-0.24-0.21-0.36-0.32c-0.06-0.05-0.29-0.32-0.36-0.32c-0.02,0-0.32,0.34-0.32,0.36c-0.01,0.09,0.36,0.22,0.36,0.32
		c0.01,0.1-0.29,0.26-0.32,0.36c-0.02,0.07,0.36,0.24,0.36,0.32c0.01,0.11-0.32,0.25-0.32,0.36c0.01,0.11,0.35,0.21,0.36,0.32
		c0.01,0.05-0.28,0.32-0.32,0.36c-0.11,0.12-0.21,0.24-0.32,0.37c-0.05-0.13-0.33-0.19-0.36-0.32c-0.02-0.09,0.33-0.27,0.32-0.36
		c0-0.03-0.33-0.32-0.36-0.32c-0.04,0-0.29,0.33-0.32,0.36c-0.11,0.12-0.21,0.24-0.32,0.36c-0.09,0.1-0.2,0.29-0.32,0.36
		c-0.04,0.02-0.31-0.32-0.37-0.32c-0.05,0-0.28,0.32-0.32,0.36c-0.11,0.12-0.21,0.24-0.32,0.36c0.13,0.04,0.23,0.29,0.36,0.32
		c0.08,0.02,0.23-0.36,0.32-0.36c0.11-0.01,0.25,0.33,0.36,0.32c0.11-0.01,0.21-0.36,0.32-0.36c0.1-0.01,0.26,0.29,0.36,0.32
		c0.11,0.03,0.27,0.25,0.36,0.32c0.06,0.04,0.3,0.32,0.36,0.32c0.1-0.01,0.23-0.38,0.32-0.36c-0.13-0.02-0.23-0.28-0.36-0.32
		C116.25,6.06,116.47,5.81,116.68,5.57z M124.62,6.09c0.21-0.24,0.43-0.49,0.64-0.73c0.12,0.11,0.24,0.21,0.36,0.32
		c0.11-0.12,0.21-0.24,0.32-0.36c0.11-0.12,0.21-0.24,0.32-0.36c0.05-0.06,0.32-0.29,0.32-0.36c0-0.02-0.34-0.32-0.36-0.32
		c-0.08,0.01-0.25,0.31-0.32,0.36c-0.12,0.08-0.23,0.26-0.32,0.36c-0.11,0.12-0.21,0.24-0.32,0.36c-0.12-0.11-0.24-0.21-0.36-0.32
		c-0.05-0.04-0.3-0.32-0.36-0.32c-0.06,0-0.28,0.31-0.32,0.36c-0.11,0.12-0.21,0.24-0.32,0.36C124.13,5.66,124.38,5.87,124.62,6.09z
		 M152.54,7.38c-0.02-0.09,0.33-0.27,0.32-0.36c0-0.05-0.32-0.29-0.36-0.32c-0.01-0.01-0.3,0.34-0.32,0.36
		c-0.05,0.05-0.25,0.36-0.32,0.36c-0.09,0.01-0.27-0.28-0.36-0.32c0,0,0.32-0.34,0.32-0.36c0-0.06-0.31-0.28-0.36-0.32
		c-0.05-0.04-0.3-0.32-0.36-0.32c-0.11,0.01-0.21,0.34-0.32,0.36c0.12,0.11,0.24,0.21,0.36,0.32c0.09,0.08,0.31,0.21,0.36,0.32
		c0.03,0.06-0.33,0.29-0.32,0.36c0,0.05,0.32,0.29,0.36,0.32c0.06,0.04,0.29,0.32,0.36,0.32c0.11-0.01,0.21-0.36,0.32-0.36
		c0.11-0.01,0.25,0.33,0.36,0.32c0.11-0.01,0.21-0.33,0.32-0.36C152.85,7.57,152.58,7.51,152.54,7.38z M161.48,7.49
		c0.11-0.12,0.21-0.24,0.32-0.36c-0.12-0.11-0.24-0.21-0.36-0.32c-0.11-0.1-0.24-0.24-0.36-0.32c-0.1-0.06-0.26-0.31-0.36-0.32
		c-0.09-0.01-0.22,0.36-0.32,0.36c-0.11,0.01-0.25-0.3-0.36-0.32c-0.11,0.12-0.21,0.24-0.32,0.36c-0.1,0.11-0.24,0.24-0.32,0.36
		c-0.06,0.1-0.31,0.26-0.32,0.37c-0.01,0.09,0.36,0.22,0.36,0.32c0.01,0.11-0.3,0.25-0.32,0.36c0.24,0.21,0.49,0.43,0.73,0.64
		c0.1-0.13,0.22-0.24,0.32-0.36c0.04-0.06,0.33-0.3,0.32-0.36c0-0.04-0.38-0.29-0.37-0.32c0.08-0.12,0.22-0.26,0.32-0.36
		c0.05-0.05,0.25-0.36,0.32-0.36c0.11-0.01,0.26,0.29,0.36,0.32C161.16,7.18,161.48,7.46,161.48,7.49c0,0.05-0.34,0.33-0.32,0.36
		c0.03,0.04,0.32,0.32,0.36,0.32c0.11-0.01,0.21-0.33,0.32-0.36C161.73,7.7,161.61,7.6,161.48,7.49z"/>
	<path class="st0" d="M110.84,5.6c0.11-0.01,0.25,0.33,0.36,0.32c0.1-0.01,0.22-0.32,0.32-0.36c0.1-0.05,0.25-0.28,0.32-0.36
		c0.04-0.04,0.27-0.37,0.32-0.36c0.12,0,0.24,0.3,0.36,0.32c0.24,0.21,0.49,0.43,0.73,0.64c-0.21,0.24-0.43,0.49-0.64,0.73
		c-0.12-0.11-0.24-0.21-0.36-0.32c-0.05-0.04-0.3-0.32-0.37-0.32c-0.06,0-0.28,0.31-0.32,0.36c-0.04,0.04-0.27,0.37-0.32,0.36
		c-0.08-0.01-0.3-0.27-0.36-0.32c-0.04-0.04-0.32-0.33-0.36-0.32c-0.08,0.01-0.27,0.3-0.32,0.36c-0.11,0.12-0.21,0.24-0.32,0.36
		c-0.07,0.08-0.22,0.32-0.32,0.36c-0.07,0.03-0.29-0.33-0.36-0.32c-0.1,0.01-0.23,0.38-0.32,0.36c-0.13-0.02-0.23-0.28-0.36-0.32
		c-0.11,0.03-0.21,0.36-0.32,0.36c-0.11,0.01-0.25-0.31-0.36-0.32c0.21-0.24,0.43-0.49,0.64-0.73c0.11-0.12,0.21-0.24,0.32-0.36
		c-0.03-0.11-0.36-0.21-0.36-0.32c0-0.06,0.28-0.31,0.32-0.36c0.03-0.04,0.29-0.37,0.32-0.36c0.09,0.02,0.29,0.26,0.36,0.32
		c0.12,0.11,0.24,0.21,0.36,0.32c0.1,0.09,0.24,0.26,0.36,0.32"/>
	<path class="st0" d="M116.04,6.3c0.13,0.03,0.23,0.3,0.36,0.32c-0.09-0.01-0.22,0.36-0.32,0.36c-0.06,0-0.31-0.28-0.36-0.32
		c-0.09-0.08-0.25-0.29-0.36-0.32c-0.1-0.03-0.26-0.33-0.36-0.32c-0.11,0.01-0.21,0.36-0.32,0.36c-0.11,0.01-0.25-0.33-0.36-0.32
		c-0.09,0.01-0.24,0.38-0.32,0.36c-0.14-0.03-0.23-0.28-0.36-0.32c0.11-0.12,0.21-0.24,0.32-0.36c0.04-0.04,0.27-0.37,0.32-0.36
		c0.05,0,0.33,0.34,0.37,0.32c0.12-0.08,0.23-0.26,0.32-0.36c0.11-0.12,0.21-0.24,0.32-0.36c0.03-0.04,0.28-0.37,0.32-0.36
		c0.03,0,0.36,0.29,0.36,0.32c0.01,0.1-0.34,0.27-0.32,0.36c0.04,0.13,0.31,0.19,0.36,0.32c0.11-0.12,0.21-0.24,0.32-0.37
		c0.04-0.04,0.33-0.31,0.32-0.36c-0.02-0.11-0.36-0.21-0.36-0.32c0-0.12,0.33-0.25,0.32-0.36c0-0.08-0.38-0.25-0.36-0.32
		c0.03-0.11,0.33-0.26,0.32-0.36c-0.01-0.1-0.38-0.23-0.36-0.32c0-0.03,0.3-0.36,0.32-0.36c0.07,0,0.31,0.27,0.36,0.32
		c0.12,0.11,0.24,0.21,0.36,0.32c-0.1,0.13-0.22,0.24-0.32,0.36c-0.04,0.06-0.33,0.3-0.32,0.36c0.01,0.06,0.31,0.27,0.36,0.32
		c0.03,0.03,0.37,0.29,0.36,0.32c-0.03,0.11-0.24,0.28-0.32,0.36c-0.11,0.12-0.21,0.24-0.32,0.36
		C116.47,5.81,116.25,6.06,116.04,6.3z"/>
	<path class="st0" d="M161.85,7.81c-0.11,0.03-0.21,0.36-0.32,0.36c-0.05,0-0.33-0.28-0.36-0.32c-0.02-0.03,0.32-0.32,0.32-0.36
		c0-0.03-0.33-0.31-0.36-0.32c-0.1-0.03-0.26-0.33-0.36-0.32c-0.07,0-0.27,0.31-0.32,0.36c-0.1,0.11-0.24,0.24-0.32,0.36
		c-0.02,0.03,0.36,0.27,0.37,0.32c0,0.07-0.28,0.31-0.32,0.36c-0.1,0.13-0.22,0.24-0.32,0.36c-0.24-0.21-0.49-0.43-0.73-0.64
		c0.02-0.11,0.33-0.25,0.32-0.36c-0.01-0.1-0.38-0.23-0.36-0.32c0.01-0.11,0.26-0.27,0.32-0.37c0.08-0.13,0.22-0.25,0.32-0.36
		c0.11-0.12,0.21-0.24,0.32-0.36c0.11,0.01,0.25,0.33,0.36,0.32c0.1-0.01,0.23-0.38,0.32-0.36c0.11,0.02,0.27,0.26,0.36,0.32
		c0.13,0.08,0.25,0.22,0.36,0.32c0.12,0.11,0.24,0.21,0.36,0.32c-0.11,0.12-0.21,0.24-0.32,0.36C161.61,7.6,161.73,7.7,161.85,7.81z
		"/>
</g>
</svg>
